<?xml version="1.0" encoding="UTF-8"?>
<svg xmlns="http://www.w3.org/2000/svg" xmlns:xlink="http://www.w3.org/1999/xlink" width="800" height="400" viewBox="0 0 207.472 200.837" version="1.2">
<defs>
<clipPath id="clip-1755515118719025-1">
  <path d="M 6 0.171875 L 206.945312 0.171875 L 206.945312 200.5 L 6 200.5 Z M 6 0.171875 "/>
</clipPath>
</defs>
<g id="surface1">
<g clip-path="url(#clip-1755515118719025-1)" clip-rule="nonzero">
<path style="fill:none;stroke-width:0.3985;stroke-linecap:butt;stroke-linejoin:miter;stroke:rgb(0%,0%,0%);stroke-opacity:1;stroke-miterlimit:10;" d="M 100.219246 100.221019 L -100.219247 100.221019 L -100.219247 -100.22139 L 100.219246 -100.22139 Z M 100.219246 100.221019 " transform="matrix(0.997462,0,0,-0.997462,106.78125,100.337706)"/>
</g>
<path style="fill:none;stroke-width:0.3985;stroke-linecap:butt;stroke-linejoin:miter;stroke:rgb(0%,0%,0%);stroke-opacity:1;stroke-miterlimit:10;" d="M -0.0000000771189 70.865251 L -70.867394 0.00177262 L -0.0000000771189 -70.865622 L 70.867394 0.00177262 Z M -0.0000000771189 70.865251 " transform="matrix(0.997462,0,0,-0.997462,106.78125,100.337706)"/>
<path style="fill:none;stroke-width:0.3985;stroke-linecap:butt;stroke-linejoin:miter;stroke:rgb(0%,0%,0%);stroke-opacity:1;stroke-miterlimit:10;" d="M -25.055791 25.057563 L -25.055791 -25.054018 L 25.055791 -25.054018 L 25.055791 25.057563 Z M -25.055791 25.057563 " transform="matrix(0.997462,0,0,-0.997462,106.78125,100.337706)"/>
<path style="fill:none;stroke-width:0.3985;stroke-linecap:butt;stroke-linejoin:miter;stroke:rgb(0%,0%,0%);stroke-opacity:1;stroke-miterlimit:10;" d="M -17.716849 0.00177262 L -0.0000000771189 -17.715076 L 17.716848 0.00177262 L -0.0000000771189 17.718621 Z M -17.716849 0.00177262 " transform="matrix(0.997462,0,0,-0.997462,106.78125,100.337706)"/>
<path style="fill:none;stroke-width:0.3985;stroke-linecap:butt;stroke-linejoin:miter;stroke:rgb(0%,0%,0%);stroke-opacity:1;stroke-miterlimit:10;" d="M -6.265906 -6.264133 L 6.265906 -6.264133 L 6.265906 6.263762 L -6.265906 6.263762 Z M -6.265906 -6.264133 " transform="matrix(0.997462,0,0,-0.997462,106.78125,100.337706)"/>
</g>
</svg>
