<?xml version="1.0" encoding="UTF-8"?>
<svg xmlns="http://www.w3.org/2000/svg" xmlns:xlink="http://www.w3.org/1999/xlink" width="1000" height="600" viewBox="0 0 322.034 206.46" version="1.2">
<defs>
<clipPath id="clip-1732874191380013-1">
  <path d="M 1 112 L 101 112 L 101 205.882812 L 1 205.882812 Z M 1 112 "/>
</clipPath>
<clipPath id="clip-1732874191380013-2">
  <path d="M 125 135 L 202 135 L 202 205.882812 L 125 205.882812 Z M 125 135 "/>
</clipPath>
<clipPath id="clip-1732874191380013-3">
  <path d="M 227 111 L 321.070312 111 L 321.070312 205.882812 L 227 205.882812 Z M 227 111 "/>
</clipPath>
<clipPath id="clip-1732874191380013-4">
  <path d="M 268 0.0390625 L 285 0.0390625 L 285 15 L 268 15 Z M 268 0.0390625 "/>
</clipPath>
<clipPath id="clip-1732874191380013-5">
  <path d="M 269 0.0390625 L 284 0.0390625 L 284 10 L 269 10 Z M 269 0.0390625 "/>
</clipPath>
<clipPath id="clip-1732874191380013-6">
  <path d="M 270 0.0390625 L 283 0.0390625 L 283 7 L 270 7 Z M 270 0.0390625 "/>
</clipPath>
</defs>
<g id="surface1">
<g clip-path="url(#clip-1732874191380013-1)" clip-rule="nonzero">
<path style="fill:none;stroke-width:0.3985;stroke-linecap:butt;stroke-linejoin:miter;stroke:rgb(0%,0%,0%);stroke-opacity:1;stroke-miterlimit:10;" d="M 44.000404 43.998853 C 44.000404 68.302006 24.300863 88.001546 0.00162848 88.001546 C -24.301524 88.001546 -44.001065 68.302006 -44.001065 43.998853 C -44.001065 19.699619 -24.301524 0.0000779196 0.00162848 0.0000779196 C 24.300863 0.0000779196 44.000404 19.699619 44.000404 43.998853 Z M 44.000404 43.998853 " transform="matrix(0.997009,0,0,-0.997009,50.68197,205.683671)"/>
</g>
<path style="fill:none;stroke-width:0.3985;stroke-linecap:butt;stroke-linejoin:miter;stroke:rgb(0%,0%,0%);stroke-opacity:1;stroke-miterlimit:10;" d="M 14.49419 102.494108 C 14.49419 110.498516 8.006036 116.98667 0.00162848 116.98667 C -8.006697 116.98667 -14.494851 110.498516 -14.494851 102.494108 C -14.494851 94.4897 -8.006697 88.001546 0.00162848 88.001546 C 8.006036 88.001546 14.49419 94.4897 14.49419 102.494108 Z M 14.49419 102.494108 " transform="matrix(0.997009,0,0,-0.997009,50.68197,205.683671)"/>
<path style="fill:none;stroke-width:0.3985;stroke-linecap:butt;stroke-linejoin:miter;stroke:rgb(0%,0%,0%);stroke-opacity:1;stroke-miterlimit:10;" d="M 11.17959 128.168549 C 11.17959 134.343266 6.176345 139.34651 0.00162848 139.34651 C -6.173088 139.34651 -11.180251 134.343266 -11.180251 128.168549 C -11.180251 121.993832 -6.173088 116.98667 0.00162848 116.98667 C 6.176345 116.98667 11.17959 121.993832 11.17959 128.168549 Z M 11.17959 128.168549 " transform="matrix(0.997009,0,0,-0.997009,50.68197,205.683671)"/>
<path style="fill:none;stroke-width:0.3985;stroke-linecap:butt;stroke-linejoin:miter;stroke:rgb(0%,0%,0%);stroke-opacity:1;stroke-miterlimit:10;" d="M 7.684763 147.029645 C 7.684763 151.272804 4.244787 154.712779 0.00162848 154.712779 C -4.245448 154.712779 -7.685424 151.272804 -7.685424 147.029645 C -7.685424 142.786486 -4.245448 139.342593 0.00162848 139.342593 C 4.244787 139.342593 7.684763 142.786486 7.684763 147.029645 Z M 7.684763 147.029645 " transform="matrix(0.997009,0,0,-0.997009,50.68197,205.683671)"/>
<g clip-path="url(#clip-1732874191380013-2)" clip-rule="nonzero">
<path style="fill:none;stroke-width:0.3985;stroke-linecap:butt;stroke-linejoin:miter;stroke:rgb(0%,0%,0%);stroke-opacity:1;stroke-miterlimit:10;" d="M 145.996852 32.609322 C 145.996852 50.620218 131.398505 65.222483 113.387608 65.222483 C 95.376712 65.222483 80.778365 50.620218 80.778365 32.609322 C 80.778365 14.598425 95.376712 0.0000779196 113.387608 0.0000779196 C 131.398505 0.0000779196 145.996852 14.598425 145.996852 32.609322 Z M 145.996852 32.609322 " transform="matrix(0.997009,0,0,-0.997009,50.68197,205.683671)"/>
</g>
<path style="fill:none;stroke-width:0.3985;stroke-linecap:butt;stroke-linejoin:miter;stroke:rgb(0%,0%,0%);stroke-opacity:1;stroke-miterlimit:10;" d="M 124.730124 76.561081 C 124.730124 82.821993 119.652438 87.899679 113.387608 87.899679 C 107.122778 87.899679 102.045092 82.821993 102.045092 76.561081 C 102.045092 70.296251 107.122778 65.218565 113.387608 65.218565 C 119.652438 65.218565 124.730124 70.296251 124.730124 76.561081 Z M 124.730124 76.561081 " transform="matrix(0.997009,0,0,-0.997009,50.68197,205.683671)"/>
<path style="fill:none;stroke-width:0.3985;stroke-linecap:butt;stroke-linejoin:miter;stroke:rgb(0%,0%,0%);stroke-opacity:1;stroke-miterlimit:10;" d="M 122.442031 96.950184 C 122.442031 101.953429 118.386935 106.004607 113.387608 106.004607 C 108.388282 106.004607 104.333185 101.953429 104.333185 96.950184 C 104.333185 91.950857 108.388282 87.899679 113.387608 87.899679 C 118.386935 87.899679 122.442031 91.950857 122.442031 96.950184 Z M 122.442031 96.950184 " transform="matrix(0.997009,0,0,-0.997009,50.68197,205.683671)"/>
<path style="fill:none;stroke-width:0.3985;stroke-linecap:butt;stroke-linejoin:miter;stroke:rgb(0%,0%,0%);stroke-opacity:1;stroke-miterlimit:10;" d="M 117.180201 109.797199 C 117.180201 111.893312 115.483721 113.589792 113.387608 113.589792 C 111.291496 113.589792 109.595016 111.893312 109.595016 109.797199 C 109.595016 107.705005 111.291496 106.004607 113.387608 106.004607 C 115.483721 106.004607 117.180201 107.705005 117.180201 109.797199 Z M 117.180201 109.797199 " transform="matrix(0.997009,0,0,-0.997009,50.68197,205.683671)"/>
<path style="fill:none;stroke-width:0.3985;stroke-linecap:butt;stroke-linejoin:miter;stroke:rgb(0%,0%,0%);stroke-opacity:1;stroke-miterlimit:10;" d="M 115.440623 115.646725 C 115.440623 116.782936 114.523819 117.69974 113.387608 117.69974 C 112.251398 117.69974 111.330675 116.782936 111.330675 115.646725 C 111.330675 114.510514 112.251398 113.589792 113.387608 113.589792 C 114.523819 113.589792 115.440623 114.510514 115.440623 115.646725 Z M 115.440623 115.646725 " transform="matrix(0.997009,0,0,-0.997009,50.68197,205.683671)"/>
<path style="fill:none;stroke-width:0.3985;stroke-linecap:butt;stroke-linejoin:miter;stroke:rgb(0%,0%,0%);stroke-opacity:1;stroke-miterlimit:10;" d="M 114.704045 119.016177 C 114.704045 119.744919 114.112432 120.332614 113.387608 120.332614 C 112.658866 120.332614 112.071171 119.744919 112.071171 119.016177 C 112.071171 118.291353 112.658866 117.69974 113.387608 117.69974 C 114.112432 117.69974 114.704045 118.291353 114.704045 119.016177 Z M 114.704045 119.016177 " transform="matrix(0.997009,0,0,-0.997009,50.68197,205.683671)"/>
<path style="fill:none;stroke-width:0.3985;stroke-linecap:butt;stroke-linejoin:miter;stroke:rgb(0%,0%,0%);stroke-opacity:1;stroke-miterlimit:10;" d="M 114.151612 121.100536 C 114.151612 121.523676 113.810749 121.864539 113.387608 121.864539 C 112.964468 121.864539 112.623605 121.523676 112.623605 121.100536 C 112.623605 120.677395 112.964468 120.336532 113.387608 120.336532 C 113.810749 120.336532 114.151612 120.677395 114.151612 121.100536 Z M 114.151612 121.100536 " transform="matrix(0.997009,0,0,-0.997009,50.68197,205.683671)"/>
<g clip-path="url(#clip-1732874191380013-3)" clip-rule="nonzero">
<path style="fill:none;stroke-width:0.3985;stroke-linecap:butt;stroke-linejoin:miter;stroke:rgb(0%,0%,0%);stroke-opacity:1;stroke-miterlimit:10;" d="M 271.003523 44.230013 C 271.003523 68.658541 251.202116 88.459948 226.773588 88.459948 C 202.345061 88.459948 182.543653 68.658541 182.543653 44.230013 C 182.543653 19.801486 202.345061 0.0000779196 226.773588 0.0000779196 C 251.202116 0.0000779196 271.003523 19.801486 271.003523 44.230013 Z M 271.003523 44.230013 " transform="matrix(0.997009,0,0,-0.997009,50.68197,205.683671)"/>
</g>
<path style="fill:none;stroke-width:0.3985;stroke-linecap:butt;stroke-linejoin:miter;stroke:rgb(0%,0%,0%);stroke-opacity:1;stroke-miterlimit:10;" d="M 250.371506 112.053949 C 250.371506 125.085109 239.804748 135.647949 226.773588 135.647949 C 213.742428 135.647949 203.179588 125.085109 203.179588 112.053949 C 203.179588 99.018871 213.742428 88.45603 226.773588 88.45603 C 239.804748 88.45603 250.371506 99.018871 250.371506 112.053949 Z M 250.371506 112.053949 " transform="matrix(0.997009,0,0,-0.997009,50.68197,205.683671)"/>
<path style="fill:none;stroke-width:0.3985;stroke-linecap:butt;stroke-linejoin:miter;stroke:rgb(0%,0%,0%);stroke-opacity:1;stroke-miterlimit:10;" d="M 243.268231 152.142592 C 243.268231 161.251867 235.882863 168.637236 226.773588 168.637236 C 217.664314 168.637236 210.278945 161.251867 210.278945 152.142592 C 210.278945 143.033318 217.664314 135.647949 226.773588 135.647949 C 235.882863 135.647949 243.268231 143.033318 243.268231 152.142592 Z M 243.268231 152.142592 " transform="matrix(0.997009,0,0,-0.997009,50.68197,205.683671)"/>
<path style="fill:none;stroke-width:0.3985;stroke-linecap:butt;stroke-linejoin:miter;stroke:rgb(0%,0%,0%);stroke-opacity:1;stroke-miterlimit:10;" d="M 234.922961 176.786608 C 234.922961 181.284435 231.275333 184.93598 226.773588 184.93598 C 222.271843 184.93598 218.624216 181.284435 218.624216 176.786608 C 218.624216 172.284863 222.271843 168.633318 226.773588 168.633318 C 231.275333 168.633318 234.922961 172.284863 234.922961 176.786608 Z M 234.922961 176.786608 " transform="matrix(0.997009,0,0,-0.997009,50.68197,205.683671)"/>
<path style="fill:none;stroke-width:0.3985;stroke-linecap:butt;stroke-linejoin:miter;stroke:rgb(0%,0%,0%);stroke-opacity:1;stroke-miterlimit:10;" d="M 233.242152 191.404545 C 233.242152 194.977731 230.346774 197.873109 226.773588 197.873109 C 223.200402 197.873109 220.305024 194.977731 220.305024 191.404545 C 220.305024 187.831358 223.200402 184.93598 226.773588 184.93598 C 230.346774 184.93598 233.242152 187.831358 233.242152 191.404545 Z M 233.242152 191.404545 " transform="matrix(0.997009,0,0,-0.997009,50.68197,205.683671)"/>
<g clip-path="url(#clip-1732874191380013-4)" clip-rule="nonzero">
<path style="fill:none;stroke-width:0.3985;stroke-linecap:butt;stroke-linejoin:miter;stroke:rgb(0%,0%,0%);stroke-opacity:1;stroke-miterlimit:10;" d="M 229.002912 200.098515 C 229.002912 201.328757 228.00383 202.32392 226.773588 202.32392 C 225.543346 202.32392 224.548183 201.328757 224.548183 200.098515 C 224.548183 198.868273 225.543346 197.869191 226.773588 197.869191 C 228.00383 197.869191 229.002912 198.868273 229.002912 200.098515 Z M 229.002912 200.098515 " transform="matrix(0.997009,0,0,-0.997009,50.68197,205.683671)"/>
</g>
<g clip-path="url(#clip-1732874191380013-5)" clip-rule="nonzero">
<path style="fill:none;stroke-width:0.3985;stroke-linecap:butt;stroke-linejoin:miter;stroke:rgb(0%,0%,0%);stroke-opacity:1;stroke-miterlimit:10;" d="M 228.219318 203.773568 C 228.219318 204.572834 227.572853 205.219298 226.773588 205.219298 C 225.974323 205.219298 225.327858 204.572834 225.327858 203.773568 C 225.327858 202.974303 225.974323 202.327838 226.773588 202.327838 C 227.572853 202.327838 228.219318 202.974303 228.219318 203.773568 Z M 228.219318 203.773568 " transform="matrix(0.997009,0,0,-0.997009,50.68197,205.683671)"/>
</g>
<g clip-path="url(#clip-1732874191380013-6)" clip-rule="nonzero">
<path style="fill:none;stroke-width:0.3985;stroke-linecap:butt;stroke-linejoin:miter;stroke:rgb(0%,0%,0%);stroke-opacity:1;stroke-miterlimit:10;" d="M 227.196729 205.642439 C 227.196729 205.873599 227.008666 206.065579 226.773588 206.065579 C 226.542428 206.065579 226.350448 205.873599 226.350448 205.642439 C 226.350448 205.407361 226.542428 205.219298 226.773588 205.219298 C 227.008666 205.219298 227.196729 205.407361 227.196729 205.642439 Z M 227.196729 205.642439 " transform="matrix(0.997009,0,0,-0.997009,50.68197,205.683671)"/>
</g>
</g>
</svg>
