<?xml version="1.0" encoding="UTF-8"?>
<svg xmlns="http://www.w3.org/2000/svg" xmlns:xlink="http://www.w3.org/1999/xlink" width="400" height="400" viewBox="0 0 271.891 272.947" version="1.2">
<defs>
<clipPath id="clip-1732874191380013-1">
  <path d="M 59 201 L 135 201 L 135 272.867188 L 59 272.867188 Z M 59 201 "/>
</clipPath>
<clipPath id="clip-1732874191380013-2">
  <path d="M 128 199 L 207 199 L 207 272.867188 L 128 272.867188 Z M 128 199 "/>
</clipPath>
<clipPath id="clip-1732874191380013-3">
  <path d="M 135 0.0273438 L 200 0.0273438 L 200 59 L 135 59 Z M 135 0.0273438 "/>
</clipPath>
<clipPath id="clip-1732874191380013-4">
  <path d="M 199 58 L 271.78125 58 L 271.78125 137 L 199 137 Z M 199 58 "/>
</clipPath>
</defs>
<g id="surface1">
<path style="fill:none;stroke-width:0.3985;stroke-linecap:butt;stroke-linejoin:miter;stroke:rgb(0%,0%,0%);stroke-opacity:1;stroke-miterlimit:10;" d="M 54.476345 35.432844 C 54.476345 45.952685 45.94949 54.475632 35.433558 54.475632 C 24.917625 54.475632 16.39077 45.952685 16.39077 35.432844 C 16.39077 24.916912 24.917625 16.390057 35.433558 16.390057 C 45.94949 16.390057 54.476345 24.916912 54.476345 35.432844 Z M 54.476345 35.432844 " transform="matrix(0.999599,0,0,-0.999599,-9.552171,274.395208)"/>
<path style="fill:none;stroke-width:0.3985;stroke-linecap:butt;stroke-linejoin:miter;stroke:rgb(0%,0%,0%);stroke-opacity:1;stroke-miterlimit:10;" d="M 46.906905 106.301088 C 46.906905 112.639565 41.772035 117.774435 35.433558 117.774435 C 29.09508 117.774435 23.96021 112.639565 23.96021 106.301088 C 23.96021 99.96261 29.09508 94.823832 35.433558 94.823832 C 41.772035 94.823832 46.906905 99.96261 46.906905 106.301088 Z M 46.906905 106.301088 " transform="matrix(0.999599,0,0,-0.999599,-9.552171,274.395208)"/>
<path style="fill:none;stroke-width:0.3985;stroke-linecap:butt;stroke-linejoin:miter;stroke:rgb(0%,0%,0%);stroke-opacity:1;stroke-miterlimit:10;" d="M 52.667026 177.169331 C 52.667026 186.684863 44.94909 194.398891 35.433558 194.398891 C 25.918026 194.398891 18.200089 186.684863 18.200089 177.169331 C 18.200089 167.649891 25.918026 159.935862 35.433558 159.935862 C 44.94909 159.935862 52.667026 167.649891 52.667026 177.169331 Z M 52.667026 177.169331 " transform="matrix(0.999599,0,0,-0.999599,-9.552171,274.395208)"/>
<path style="fill:none;stroke-width:0.3985;stroke-linecap:butt;stroke-linejoin:miter;stroke:rgb(0%,0%,0%);stroke-opacity:1;stroke-miterlimit:10;" d="M 50.216825 248.033666 C 50.216825 256.197094 43.596985 262.816934 35.433558 262.816934 C 27.27013 262.816934 20.65029 256.197094 20.65029 248.033666 C 20.65029 239.870238 27.27013 233.250398 35.433558 233.250398 C 43.596985 233.250398 50.216825 239.870238 50.216825 248.033666 Z M 50.216825 248.033666 " transform="matrix(0.999599,0,0,-0.999599,-9.552171,274.395208)"/>
<g clip-path="url(#clip-1732874191380013-1)" clip-rule="nonzero">
<path style="fill:none;stroke-width:0.3985;stroke-linecap:butt;stroke-linejoin:miter;stroke:rgb(0%,0%,0%);stroke-opacity:1;stroke-miterlimit:10;" d="M 138.369339 35.432844 C 138.369339 53.143067 124.012023 67.500383 106.301801 67.500383 C 88.587671 67.500383 74.230355 53.143067 74.230355 35.432844 C 74.230355 17.722622 88.587671 3.365306 106.301801 3.365306 C 124.012023 3.365306 138.369339 17.722622 138.369339 35.432844 Z M 138.369339 35.432844 " transform="matrix(0.999599,0,0,-0.999599,-9.552171,274.395208)"/>
</g>
<path style="fill:none;stroke-width:0.3985;stroke-linecap:butt;stroke-linejoin:miter;stroke:rgb(0%,0%,0%);stroke-opacity:1;stroke-miterlimit:10;" d="M 122.116732 106.301088 C 122.116732 115.035056 115.035769 122.119927 106.301801 122.119927 C 97.563924 122.119927 90.482962 115.035056 90.482962 106.301088 C 90.482962 97.563211 97.563924 90.482248 106.301801 90.482248 C 115.035769 90.482248 122.116732 97.563211 122.116732 106.301088 Z M 122.116732 106.301088 " transform="matrix(0.999599,0,0,-0.999599,-9.552171,274.395208)"/>
<path style="fill:none;stroke-width:0.3985;stroke-linecap:butt;stroke-linejoin:miter;stroke:rgb(0%,0%,0%);stroke-opacity:1;stroke-miterlimit:10;" d="M 139.666734 177.169331 C 139.666734 195.594683 124.727153 210.534264 106.301801 210.534264 C 87.87254 210.534264 72.93296 195.594683 72.93296 177.169331 C 72.93296 158.74007 87.87254 143.80049 106.301801 143.80049 C 124.727153 143.80049 139.666734 158.74007 139.666734 177.169331 Z M 139.666734 177.169331 " transform="matrix(0.999599,0,0,-0.999599,-9.552171,274.395208)"/>
<path style="fill:none;stroke-width:0.3985;stroke-linecap:butt;stroke-linejoin:miter;stroke:rgb(0%,0%,0%);stroke-opacity:1;stroke-miterlimit:10;" d="M 122.847494 248.033666 C 122.847494 257.174048 115.438275 264.579359 106.301801 264.579359 C 97.161419 264.579359 89.756108 257.174048 89.756108 248.033666 C 89.756108 238.897192 97.161419 231.487973 106.301801 231.487973 C 115.438275 231.487973 122.847494 238.897192 122.847494 248.033666 Z M 122.847494 248.033666 " transform="matrix(0.999599,0,0,-0.999599,-9.552171,274.395208)"/>
<g clip-path="url(#clip-1732874191380013-2)" clip-rule="nonzero">
<path style="fill:none;stroke-width:0.3985;stroke-linecap:butt;stroke-linejoin:miter;stroke:rgb(0%,0%,0%);stroke-opacity:1;stroke-miterlimit:10;" d="M 210.871049 35.432844 C 210.871049 54.04968 195.782971 69.137757 177.166136 69.137757 C 158.553208 69.137757 143.465131 54.04968 143.465131 35.432844 C 143.465131 16.819917 158.553208 1.727931 177.166136 1.727931 C 195.782971 1.727931 210.871049 16.819917 210.871049 35.432844 Z M 210.871049 35.432844 " transform="matrix(0.999599,0,0,-0.999599,-9.552171,274.395208)"/>
</g>
<path style="fill:none;stroke-width:0.3985;stroke-linecap:butt;stroke-linejoin:miter;stroke:rgb(0%,0%,0%);stroke-opacity:1;stroke-miterlimit:10;" d="M 211.007823 106.301088 C 211.007823 124.992172 195.85722 140.142774 177.166136 140.142774 C 158.47896 140.142774 143.328357 124.992172 143.328357 106.301088 C 143.328357 87.610004 158.47896 72.459401 177.166136 72.459401 C 195.85722 72.459401 211.007823 87.610004 211.007823 106.301088 Z M 211.007823 106.301088 " transform="matrix(0.999599,0,0,-0.999599,-9.552171,274.395208)"/>
<path style="fill:none;stroke-width:0.3985;stroke-linecap:butt;stroke-linejoin:miter;stroke:rgb(0%,0%,0%);stroke-opacity:1;stroke-miterlimit:10;" d="M 195.403913 177.169331 C 195.403913 187.239773 187.240486 195.4032 177.166136 195.4032 C 167.095694 195.4032 158.932267 187.239773 158.932267 177.169331 C 158.932267 167.094981 167.095694 158.931553 177.166136 158.931553 C 187.240486 158.931553 195.403913 167.094981 195.403913 177.169331 Z M 195.403913 177.169331 " transform="matrix(0.999599,0,0,-0.999599,-9.552171,274.395208)"/>
<g clip-path="url(#clip-1732874191380013-3)" clip-rule="nonzero">
<path style="fill:none;stroke-width:0.3985;stroke-linecap:butt;stroke-linejoin:miter;stroke:rgb(0%,0%,0%);stroke-opacity:1;stroke-miterlimit:10;" d="M 203.414936 248.033666 C 203.414936 262.531663 191.664133 274.282466 177.166136 274.282466 C 162.672047 274.282466 150.921244 262.531663 150.921244 248.033666 C 150.921244 233.539577 162.672047 221.788774 177.166136 221.788774 C 191.664133 221.788774 203.414936 233.539577 203.414936 248.033666 Z M 203.414936 248.033666 " transform="matrix(0.999599,0,0,-0.999599,-9.552171,274.395208)"/>
</g>
<path style="fill:none;stroke-width:0.3985;stroke-linecap:butt;stroke-linejoin:miter;stroke:rgb(0%,0%,0%);stroke-opacity:1;stroke-miterlimit:10;" d="M 271.367949 35.432844 C 271.367949 48.320822 260.922356 58.766414 248.034379 58.766414 C 235.146402 58.766414 224.70081 48.320822 224.70081 35.432844 C 224.70081 22.548775 235.146402 12.099275 248.034379 12.099275 C 260.922356 12.099275 271.367949 22.548775 271.367949 35.432844 Z M 271.367949 35.432844 " transform="matrix(0.999599,0,0,-0.999599,-9.552171,274.395208)"/>
<path style="fill:none;stroke-width:0.3985;stroke-linecap:butt;stroke-linejoin:miter;stroke:rgb(0%,0%,0%);stroke-opacity:1;stroke-miterlimit:10;" d="M 263.575763 106.301088 C 263.575763 114.882652 256.615943 121.838564 248.034379 121.838564 C 239.452815 121.838564 232.492995 114.882652 232.492995 106.301088 C 232.492995 97.719524 239.452815 90.759703 248.034379 90.759703 C 256.615943 90.759703 263.575763 97.719524 263.575763 106.301088 Z M 263.575763 106.301088 " transform="matrix(0.999599,0,0,-0.999599,-9.552171,274.395208)"/>
<g clip-path="url(#clip-1732874191380013-4)" clip-rule="nonzero">
<path style="fill:none;stroke-width:0.3985;stroke-linecap:butt;stroke-linejoin:miter;stroke:rgb(0%,0%,0%);stroke-opacity:1;stroke-miterlimit:10;" d="M 281.250815 177.169331 C 281.250815 195.512619 266.381575 210.385767 248.034379 210.385767 C 229.691091 210.385767 214.817943 195.512619 214.817943 177.169331 C 214.817943 158.822135 229.691091 143.948987 248.034379 143.948987 C 266.381575 143.948987 281.250815 158.822135 281.250815 177.169331 Z M 281.250815 177.169331 " transform="matrix(0.999599,0,0,-0.999599,-9.552171,274.395208)"/>
</g>
<path style="fill:none;stroke-width:0.3985;stroke-linecap:butt;stroke-linejoin:miter;stroke:rgb(0%,0%,0%);stroke-opacity:1;stroke-miterlimit:10;" d="M 266.967748 248.033666 C 266.967748 258.490982 258.491695 266.967035 248.034379 266.967035 C 237.577064 266.967035 229.101011 258.490982 229.101011 248.033666 C 229.101011 237.57635 237.577064 229.100298 248.034379 229.100298 C 258.491695 229.100298 266.967748 237.57635 266.967748 248.033666 Z M 266.967748 248.033666 " transform="matrix(0.999599,0,0,-0.999599,-9.552171,274.395208)"/>
</g>
</svg>
