<?xml version="1.0" encoding="UTF-8"?>
<svg xmlns="http://www.w3.org/2000/svg" xmlns:xlink="http://www.w3.org/1999/xlink" width="400" height="400" viewBox="0 0 290.498 283.863" version="1.2">
<defs>
<clipPath id="clip-1732874191380003-1">
  <path d="M 1 206 L 84 206 L 84 283.550781 L 1 283.550781 Z M 1 206 "/>
</clipPath>
<clipPath id="clip-1732874191380003-2">
  <path d="M 1 0.175781 L 84 0.175781 L 84 77 L 1 77 Z M 1 0.175781 "/>
</clipPath>
<clipPath id="clip-1732874191380003-3">
  <path d="M 71 206 L 154 206 L 154 283.550781 L 71 283.550781 Z M 71 206 "/>
</clipPath>
<clipPath id="clip-1732874191380003-4">
  <path d="M 71 0.175781 L 154 0.175781 L 154 77 L 71 77 Z M 71 0.175781 "/>
</clipPath>
<clipPath id="clip-1732874191380003-5">
  <path d="M 142 206 L 225 206 L 225 283.550781 L 142 283.550781 Z M 142 206 "/>
</clipPath>
<clipPath id="clip-1732874191380003-6">
  <path d="M 142 0.175781 L 225 0.175781 L 225 77 L 142 77 Z M 142 0.175781 "/>
</clipPath>
<clipPath id="clip-1732874191380003-7">
  <path d="M 213 206 L 289.996094 206 L 289.996094 283.550781 L 213 283.550781 Z M 213 206 "/>
</clipPath>
<clipPath id="clip-1732874191380003-8">
  <path d="M 213 136 L 289.996094 136 L 289.996094 219 L 213 219 Z M 213 136 "/>
</clipPath>
<clipPath id="clip-1732874191380003-9">
  <path d="M 213 65 L 289.996094 65 L 289.996094 148 L 213 148 Z M 213 65 "/>
</clipPath>
<clipPath id="clip-1732874191380003-10">
  <path d="M 213 0.175781 L 289.996094 0.175781 L 289.996094 77 L 213 77 Z M 213 0.175781 "/>
</clipPath>
</defs>
<g id="surface1">
<g clip-path="url(#clip-1732874191380003-1)" clip-rule="nonzero">
<path style="fill:none;stroke-width:0.3985;stroke-linecap:butt;stroke-linejoin:miter;stroke:rgb(0%,0%,0%);stroke-opacity:1;stroke-miterlimit:10;" d="M 70.866446 35.431772 C 70.866446 55.004599 55.003143 70.867902 35.434229 70.867902 C 15.865315 70.867902 -0.00190154 55.004599 -0.00190154 35.431772 C -0.00190154 15.862857 15.865315 -0.00044584 35.434229 -0.00044584 C 55.003143 -0.00044584 70.866446 15.862857 70.866446 35.431772 Z M 70.866446 35.431772 " transform="matrix(0.998275,0,0,-0.998275,6.822211,283.351117)"/>
</g>
<path style="fill:none;stroke-width:0.3985;stroke-linecap:butt;stroke-linejoin:miter;stroke:rgb(0%,0%,0%);stroke-opacity:1;stroke-miterlimit:10;" d="M 70.866446 106.300119 C 70.866446 125.869034 55.003143 141.732337 35.434229 141.732337 C 15.865315 141.732337 -0.00190154 125.869034 -0.00190154 106.300119 C -0.00190154 86.731205 15.865315 70.867902 35.434229 70.867902 C 55.003143 70.867902 70.866446 86.731205 70.866446 106.300119 Z M 70.866446 106.300119 " transform="matrix(0.998275,0,0,-0.998275,6.822211,283.351117)"/>
<path style="fill:none;stroke-width:0.3985;stroke-linecap:butt;stroke-linejoin:miter;stroke:rgb(0%,0%,0%);stroke-opacity:1;stroke-miterlimit:10;" d="M 70.866446 177.168467 C 70.866446 196.737381 55.003143 212.600684 35.434229 212.600684 C 15.865315 212.600684 -0.00190154 196.737381 -0.00190154 177.168467 C -0.00190154 157.599553 15.865315 141.732337 35.434229 141.732337 C 55.003143 141.732337 70.866446 157.599553 70.866446 177.168467 Z M 70.866446 177.168467 " transform="matrix(0.998275,0,0,-0.998275,6.822211,283.351117)"/>
<g clip-path="url(#clip-1732874191380003-2)" clip-rule="nonzero">
<path style="fill:none;stroke-width:0.3985;stroke-linecap:butt;stroke-linejoin:miter;stroke:rgb(0%,0%,0%);stroke-opacity:1;stroke-miterlimit:10;" d="M 70.866446 248.032902 C 70.866446 267.605729 55.003143 283.469032 35.434229 283.469032 C 15.865315 283.469032 -0.00190154 267.605729 -0.00190154 248.032902 C -0.00190154 228.463987 15.865315 212.600684 35.434229 212.600684 C 55.003143 212.600684 70.866446 228.463987 70.866446 248.032902 Z M 70.866446 248.032902 " transform="matrix(0.998275,0,0,-0.998275,6.822211,283.351117)"/>
</g>
<g clip-path="url(#clip-1732874191380003-3)" clip-rule="nonzero">
<path style="fill:none;stroke-width:0.3985;stroke-linecap:butt;stroke-linejoin:miter;stroke:rgb(0%,0%,0%);stroke-opacity:1;stroke-miterlimit:10;" d="M 141.734794 35.431772 C 141.734794 55.004599 125.871491 70.867902 106.298664 70.867902 C 86.729749 70.867902 70.866446 55.004599 70.866446 35.431772 C 70.866446 15.862857 86.729749 -0.00044584 106.298664 -0.00044584 C 125.871491 -0.00044584 141.734794 15.862857 141.734794 35.431772 Z M 141.734794 35.431772 " transform="matrix(0.998275,0,0,-0.998275,6.822211,283.351117)"/>
</g>
<path style="fill:none;stroke-width:0.3985;stroke-linecap:butt;stroke-linejoin:miter;stroke:rgb(0%,0%,0%);stroke-opacity:1;stroke-miterlimit:10;" d="M 141.734794 106.300119 C 141.734794 125.869034 125.871491 141.732337 106.298664 141.732337 C 86.729749 141.732337 70.866446 125.869034 70.866446 106.300119 C 70.866446 86.731205 86.729749 70.867902 106.298664 70.867902 C 125.871491 70.867902 141.734794 86.731205 141.734794 106.300119 Z M 141.734794 106.300119 " transform="matrix(0.998275,0,0,-0.998275,6.822211,283.351117)"/>
<path style="fill:none;stroke-width:0.3985;stroke-linecap:butt;stroke-linejoin:miter;stroke:rgb(0%,0%,0%);stroke-opacity:1;stroke-miterlimit:10;" d="M 141.734794 177.168467 C 141.734794 196.737381 125.871491 212.600684 106.298664 212.600684 C 86.729749 212.600684 70.866446 196.737381 70.866446 177.168467 C 70.866446 157.599553 86.729749 141.732337 106.298664 141.732337 C 125.871491 141.732337 141.734794 157.599553 141.734794 177.168467 Z M 141.734794 177.168467 " transform="matrix(0.998275,0,0,-0.998275,6.822211,283.351117)"/>
<g clip-path="url(#clip-1732874191380003-4)" clip-rule="nonzero">
<path style="fill:none;stroke-width:0.3985;stroke-linecap:butt;stroke-linejoin:miter;stroke:rgb(0%,0%,0%);stroke-opacity:1;stroke-miterlimit:10;" d="M 141.734794 248.032902 C 141.734794 267.605729 125.871491 283.469032 106.298664 283.469032 C 86.729749 283.469032 70.866446 267.605729 70.866446 248.032902 C 70.866446 228.463987 86.729749 212.600684 106.298664 212.600684 C 125.871491 212.600684 141.734794 228.463987 141.734794 248.032902 Z M 141.734794 248.032902 " transform="matrix(0.998275,0,0,-0.998275,6.822211,283.351117)"/>
</g>
<g clip-path="url(#clip-1732874191380003-5)" clip-rule="nonzero">
<path style="fill:none;stroke-width:0.3985;stroke-linecap:butt;stroke-linejoin:miter;stroke:rgb(0%,0%,0%);stroke-opacity:1;stroke-miterlimit:10;" d="M 212.599229 35.431772 C 212.599229 55.004599 196.735926 70.867902 177.167011 70.867902 C 157.598097 70.867902 141.734794 55.004599 141.734794 35.431772 C 141.734794 15.862857 157.598097 -0.00044584 177.167011 -0.00044584 C 196.735926 -0.00044584 212.599229 15.862857 212.599229 35.431772 Z M 212.599229 35.431772 " transform="matrix(0.998275,0,0,-0.998275,6.822211,283.351117)"/>
</g>
<path style="fill:none;stroke-width:0.3985;stroke-linecap:butt;stroke-linejoin:miter;stroke:rgb(0%,0%,0%);stroke-opacity:1;stroke-miterlimit:10;" d="M 212.599229 106.300119 C 212.599229 125.869034 196.735926 141.732337 177.167011 141.732337 C 157.598097 141.732337 141.734794 125.869034 141.734794 106.300119 C 141.734794 86.731205 157.598097 70.867902 177.167011 70.867902 C 196.735926 70.867902 212.599229 86.731205 212.599229 106.300119 Z M 212.599229 106.300119 " transform="matrix(0.998275,0,0,-0.998275,6.822211,283.351117)"/>
<path style="fill:none;stroke-width:0.3985;stroke-linecap:butt;stroke-linejoin:miter;stroke:rgb(0%,0%,0%);stroke-opacity:1;stroke-miterlimit:10;" d="M 212.599229 177.168467 C 212.599229 196.737381 196.735926 212.600684 177.167011 212.600684 C 157.598097 212.600684 141.734794 196.737381 141.734794 177.168467 C 141.734794 157.599553 157.598097 141.732337 177.167011 141.732337 C 196.735926 141.732337 212.599229 157.599553 212.599229 177.168467 Z M 212.599229 177.168467 " transform="matrix(0.998275,0,0,-0.998275,6.822211,283.351117)"/>
<g clip-path="url(#clip-1732874191380003-6)" clip-rule="nonzero">
<path style="fill:none;stroke-width:0.3985;stroke-linecap:butt;stroke-linejoin:miter;stroke:rgb(0%,0%,0%);stroke-opacity:1;stroke-miterlimit:10;" d="M 212.599229 248.032902 C 212.599229 267.605729 196.735926 283.469032 177.167011 283.469032 C 157.598097 283.469032 141.734794 267.605729 141.734794 248.032902 C 141.734794 228.463987 157.598097 212.600684 177.167011 212.600684 C 196.735926 212.600684 212.599229 228.463987 212.599229 248.032902 Z M 212.599229 248.032902 " transform="matrix(0.998275,0,0,-0.998275,6.822211,283.351117)"/>
</g>
<g clip-path="url(#clip-1732874191380003-7)" clip-rule="nonzero">
<path style="fill:none;stroke-width:0.3985;stroke-linecap:butt;stroke-linejoin:miter;stroke:rgb(0%,0%,0%);stroke-opacity:1;stroke-miterlimit:10;" d="M 283.467576 35.431772 C 283.467576 55.004599 267.604273 70.867902 248.035359 70.867902 C 228.466445 70.867902 212.599229 55.004599 212.599229 35.431772 C 212.599229 15.862857 228.466445 -0.00044584 248.035359 -0.00044584 C 267.604273 -0.00044584 283.467576 15.862857 283.467576 35.431772 Z M 283.467576 35.431772 " transform="matrix(0.998275,0,0,-0.998275,6.822211,283.351117)"/>
</g>
<g clip-path="url(#clip-1732874191380003-8)" clip-rule="nonzero">
<path style="fill:none;stroke-width:0.3985;stroke-linecap:butt;stroke-linejoin:miter;stroke:rgb(0%,0%,0%);stroke-opacity:1;stroke-miterlimit:10;" d="M 283.467576 106.300119 C 283.467576 125.869034 267.604273 141.732337 248.035359 141.732337 C 228.466445 141.732337 212.599229 125.869034 212.599229 106.300119 C 212.599229 86.731205 228.466445 70.867902 248.035359 70.867902 C 267.604273 70.867902 283.467576 86.731205 283.467576 106.300119 Z M 283.467576 106.300119 " transform="matrix(0.998275,0,0,-0.998275,6.822211,283.351117)"/>
</g>
<g clip-path="url(#clip-1732874191380003-9)" clip-rule="nonzero">
<path style="fill:none;stroke-width:0.3985;stroke-linecap:butt;stroke-linejoin:miter;stroke:rgb(0%,0%,0%);stroke-opacity:1;stroke-miterlimit:10;" d="M 283.467576 177.168467 C 283.467576 196.737381 267.604273 212.600684 248.035359 212.600684 C 228.466445 212.600684 212.599229 196.737381 212.599229 177.168467 C 212.599229 157.599553 228.466445 141.732337 248.035359 141.732337 C 267.604273 141.732337 283.467576 157.599553 283.467576 177.168467 Z M 283.467576 177.168467 " transform="matrix(0.998275,0,0,-0.998275,6.822211,283.351117)"/>
</g>
<g clip-path="url(#clip-1732874191380003-10)" clip-rule="nonzero">
<path style="fill:none;stroke-width:0.3985;stroke-linecap:butt;stroke-linejoin:miter;stroke:rgb(0%,0%,0%);stroke-opacity:1;stroke-miterlimit:10;" d="M 283.467576 248.032902 C 283.467576 267.605729 267.604273 283.469032 248.035359 283.469032 C 228.466445 283.469032 212.599229 267.605729 212.599229 248.032902 C 212.599229 228.463987 228.466445 212.600684 248.035359 212.600684 C 267.604273 212.600684 283.467576 228.463987 283.467576 248.032902 Z M 283.467576 248.032902 " transform="matrix(0.998275,0,0,-0.998275,6.822211,283.351117)"/>
</g>
</g>
</svg>
