<?xml version="1.0" encoding="UTF-8"?>
<svg xmlns="http://www.w3.org/2000/svg" xmlns:xlink="http://www.w3.org/1999/xlink" width="400" height="400" viewBox="0 0 290.498 283.863" version="1.2">
<defs>
<clipPath id="clip-1732452203364024-1">
  <path d="M 6 254 L 36 254 L 36 283.550781 L 6 283.550781 Z M 6 254 "/>
</clipPath>
<clipPath id="clip-1732452203364024-2">
  <path d="M 6 0.175781 L 36 0.175781 L 36 29 L 6 29 Z M 6 0.175781 "/>
</clipPath>
<clipPath id="clip-1732452203364024-3">
  <path d="M 29 249 L 70 249 L 70 283.550781 L 29 283.550781 Z M 29 249 "/>
</clipPath>
<clipPath id="clip-1732452203364024-4">
  <path d="M 29 0.175781 L 70 0.175781 L 70 35 L 29 35 Z M 29 0.175781 "/>
</clipPath>
<clipPath id="clip-1732452203364024-5">
  <path d="M 57 249 L 98 249 L 98 283.550781 L 57 283.550781 Z M 57 249 "/>
</clipPath>
<clipPath id="clip-1732452203364024-6">
  <path d="M 57 0.175781 L 98 0.175781 L 98 35 L 57 35 Z M 57 0.175781 "/>
</clipPath>
<clipPath id="clip-1732452203364024-7">
  <path d="M 86 249 L 126 249 L 126 283.550781 L 86 283.550781 Z M 86 249 "/>
</clipPath>
<clipPath id="clip-1732452203364024-8">
  <path d="M 86 0.175781 L 126 0.175781 L 126 35 L 86 35 Z M 86 0.175781 "/>
</clipPath>
<clipPath id="clip-1732452203364024-9">
  <path d="M 114 249 L 154 249 L 154 283.550781 L 114 283.550781 Z M 114 249 "/>
</clipPath>
<clipPath id="clip-1732452203364024-10">
  <path d="M 114 0.175781 L 154 0.175781 L 154 35 L 114 35 Z M 114 0.175781 "/>
</clipPath>
<clipPath id="clip-1732452203364024-11">
  <path d="M 142 249 L 183 249 L 183 283.550781 L 142 283.550781 Z M 142 249 "/>
</clipPath>
<clipPath id="clip-1732452203364024-12">
  <path d="M 142 0.175781 L 183 0.175781 L 183 35 L 142 35 Z M 142 0.175781 "/>
</clipPath>
<clipPath id="clip-1732452203364024-13">
  <path d="M 170 249 L 211 249 L 211 283.550781 L 170 283.550781 Z M 170 249 "/>
</clipPath>
<clipPath id="clip-1732452203364024-14">
  <path d="M 170 0.175781 L 211 0.175781 L 211 35 L 170 35 Z M 170 0.175781 "/>
</clipPath>
<clipPath id="clip-1732452203364024-15">
  <path d="M 199 249 L 239 249 L 239 283.550781 L 199 283.550781 Z M 199 249 "/>
</clipPath>
<clipPath id="clip-1732452203364024-16">
  <path d="M 199 0.175781 L 239 0.175781 L 239 35 L 199 35 Z M 199 0.175781 "/>
</clipPath>
<clipPath id="clip-1732452203364024-17">
  <path d="M 227 249 L 268 249 L 268 283.550781 L 227 283.550781 Z M 227 249 "/>
</clipPath>
<clipPath id="clip-1732452203364024-18">
  <path d="M 227 0.175781 L 268 0.175781 L 268 35 L 227 35 Z M 227 0.175781 "/>
</clipPath>
<clipPath id="clip-1732452203364024-19">
  <path d="M 255 249 L 289.996094 249 L 289.996094 283.550781 L 255 283.550781 Z M 255 249 "/>
</clipPath>
<clipPath id="clip-1732452203364024-20">
  <path d="M 255 221 L 289.996094 221 L 289.996094 261 L 255 261 Z M 255 221 "/>
</clipPath>
<clipPath id="clip-1732452203364024-21">
  <path d="M 255 192 L 289.996094 192 L 289.996094 233 L 255 233 Z M 255 192 "/>
</clipPath>
<clipPath id="clip-1732452203364024-22">
  <path d="M 255 164 L 289.996094 164 L 289.996094 205 L 255 205 Z M 255 164 "/>
</clipPath>
<clipPath id="clip-1732452203364024-23">
  <path d="M 255 136 L 289.996094 136 L 289.996094 176 L 255 176 Z M 255 136 "/>
</clipPath>
<clipPath id="clip-1732452203364024-24">
  <path d="M 255 107 L 289.996094 107 L 289.996094 148 L 255 148 Z M 255 107 "/>
</clipPath>
<clipPath id="clip-1732452203364024-25">
  <path d="M 255 79 L 289.996094 79 L 289.996094 120 L 255 120 Z M 255 79 "/>
</clipPath>
<clipPath id="clip-1732452203364024-26">
  <path d="M 255 51 L 289.996094 51 L 289.996094 91 L 255 91 Z M 255 51 "/>
</clipPath>
<clipPath id="clip-1732452203364024-27">
  <path d="M 255 23 L 289.996094 23 L 289.996094 63 L 255 63 Z M 255 23 "/>
</clipPath>
<clipPath id="clip-1732452203364024-28">
  <path d="M 255 0.175781 L 289.996094 0.175781 L 289.996094 35 L 255 35 Z M 255 0.175781 "/>
</clipPath>
</defs>
<g id="surface1">
<g clip-path="url(#clip-1732452203364024-1)" clip-rule="nonzero">
<path style="fill:none;stroke-width:0.3985;stroke-linecap:butt;stroke-linejoin:miter;stroke:rgb(0%,0%,0%);stroke-opacity:1;stroke-miterlimit:10;" d="M -0.00190154 -0.00044584 L 28.347785 -0.00044584 L 28.347785 28.345328 L -0.00190154 28.345328 Z M -0.00190154 -0.00044584 " transform="matrix(0.998275,0,0,-0.998275,6.822211,283.351117)"/>
</g>
<path style="fill:none;stroke-width:0.3985;stroke-linecap:butt;stroke-linejoin:miter;stroke:rgb(0%,0%,0%);stroke-opacity:1;stroke-miterlimit:10;" d="M -0.00190154 28.345328 L 28.347785 28.345328 L 28.347785 56.695015 L -0.00190154 56.695015 Z M -0.00190154 28.345328 " transform="matrix(0.998275,0,0,-0.998275,6.822211,283.351117)"/>
<path style="fill:none;stroke-width:0.3985;stroke-linecap:butt;stroke-linejoin:miter;stroke:rgb(0%,0%,0%);stroke-opacity:1;stroke-miterlimit:10;" d="M -0.00190154 56.695015 L 28.347785 56.695015 L 28.347785 85.040789 L -0.00190154 85.040789 Z M -0.00190154 56.695015 " transform="matrix(0.998275,0,0,-0.998275,6.822211,283.351117)"/>
<path style="fill:none;stroke-width:0.3985;stroke-linecap:butt;stroke-linejoin:miter;stroke:rgb(0%,0%,0%);stroke-opacity:1;stroke-miterlimit:10;" d="M -0.00190154 85.040789 L 28.347785 85.040789 L 28.347785 113.386563 L -0.00190154 113.386563 Z M -0.00190154 85.040789 " transform="matrix(0.998275,0,0,-0.998275,6.822211,283.351117)"/>
<path style="fill:none;stroke-width:0.3985;stroke-linecap:butt;stroke-linejoin:miter;stroke:rgb(0%,0%,0%);stroke-opacity:1;stroke-miterlimit:10;" d="M -0.00190154 113.386563 L 28.347785 113.386563 L 28.347785 141.732337 L -0.00190154 141.732337 Z M -0.00190154 113.386563 " transform="matrix(0.998275,0,0,-0.998275,6.822211,283.351117)"/>
<path style="fill:none;stroke-width:0.3985;stroke-linecap:butt;stroke-linejoin:miter;stroke:rgb(0%,0%,0%);stroke-opacity:1;stroke-miterlimit:10;" d="M -0.00190154 141.732337 L 28.347785 141.732337 L 28.347785 170.082024 L -0.00190154 170.082024 Z M -0.00190154 141.732337 " transform="matrix(0.998275,0,0,-0.998275,6.822211,283.351117)"/>
<path style="fill:none;stroke-width:0.3985;stroke-linecap:butt;stroke-linejoin:miter;stroke:rgb(0%,0%,0%);stroke-opacity:1;stroke-miterlimit:10;" d="M -0.00190154 170.082024 L 28.347785 170.082024 L 28.347785 198.427797 L -0.00190154 198.427797 Z M -0.00190154 170.082024 " transform="matrix(0.998275,0,0,-0.998275,6.822211,283.351117)"/>
<path style="fill:none;stroke-width:0.3985;stroke-linecap:butt;stroke-linejoin:miter;stroke:rgb(0%,0%,0%);stroke-opacity:1;stroke-miterlimit:10;" d="M -0.00190154 198.427797 L 28.347785 198.427797 L 28.347785 226.773571 L -0.00190154 226.773571 Z M -0.00190154 198.427797 " transform="matrix(0.998275,0,0,-0.998275,6.822211,283.351117)"/>
<path style="fill:none;stroke-width:0.3985;stroke-linecap:butt;stroke-linejoin:miter;stroke:rgb(0%,0%,0%);stroke-opacity:1;stroke-miterlimit:10;" d="M -0.00190154 226.773571 L 28.347785 226.773571 L 28.347785 255.119345 L -0.00190154 255.119345 Z M -0.00190154 226.773571 " transform="matrix(0.998275,0,0,-0.998275,6.822211,283.351117)"/>
<g clip-path="url(#clip-1732452203364024-2)" clip-rule="nonzero">
<path style="fill:none;stroke-width:0.3985;stroke-linecap:butt;stroke-linejoin:miter;stroke:rgb(0%,0%,0%);stroke-opacity:1;stroke-miterlimit:10;" d="M -0.00190154 255.119345 L 28.347785 255.119345 L 28.347785 283.469032 L -0.00190154 283.469032 Z M -0.00190154 255.119345 " transform="matrix(0.998275,0,0,-0.998275,6.822211,283.351117)"/>
</g>
<g clip-path="url(#clip-1732452203364024-3)" clip-rule="nonzero">
<path style="fill:none;stroke-width:0.3985;stroke-linecap:butt;stroke-linejoin:miter;stroke:rgb(0%,0%,0%);stroke-opacity:1;stroke-miterlimit:10;" d="M 28.347785 -0.00044584 L 45.474987 4.839935 L 56.693559 -0.00044584 L 56.693559 28.345328 L 28.347785 28.345328 Z M 28.347785 -0.00044584 " transform="matrix(0.998275,0,0,-0.998275,6.822211,283.351117)"/>
</g>
<path style="fill:none;stroke-width:0.3985;stroke-linecap:butt;stroke-linejoin:miter;stroke:rgb(0%,0%,0%);stroke-opacity:1;stroke-miterlimit:10;" d="M 28.347785 28.345328 L 45.474987 33.189622 L 56.693559 28.345328 L 56.693559 56.695015 L 28.347785 56.695015 Z M 28.347785 28.345328 " transform="matrix(0.998275,0,0,-0.998275,6.822211,283.351117)"/>
<path style="fill:none;stroke-width:0.3985;stroke-linecap:butt;stroke-linejoin:miter;stroke:rgb(0%,0%,0%);stroke-opacity:1;stroke-miterlimit:10;" d="M 28.347785 56.695015 L 45.474987 61.535396 L 56.693559 56.695015 L 56.693559 85.040789 L 28.347785 85.040789 Z M 28.347785 56.695015 " transform="matrix(0.998275,0,0,-0.998275,6.822211,283.351117)"/>
<path style="fill:none;stroke-width:0.3985;stroke-linecap:butt;stroke-linejoin:miter;stroke:rgb(0%,0%,0%);stroke-opacity:1;stroke-miterlimit:10;" d="M 28.347785 85.040789 L 45.474987 89.88117 L 56.693559 85.040789 L 56.693559 113.386563 L 28.347785 113.386563 Z M 28.347785 85.040789 " transform="matrix(0.998275,0,0,-0.998275,6.822211,283.351117)"/>
<path style="fill:none;stroke-width:0.3985;stroke-linecap:butt;stroke-linejoin:miter;stroke:rgb(0%,0%,0%);stroke-opacity:1;stroke-miterlimit:10;" d="M 28.347785 113.386563 L 45.474987 118.230857 L 56.693559 113.386563 L 56.693559 141.732337 L 28.347785 141.732337 Z M 28.347785 113.386563 " transform="matrix(0.998275,0,0,-0.998275,6.822211,283.351117)"/>
<path style="fill:none;stroke-width:0.3985;stroke-linecap:butt;stroke-linejoin:miter;stroke:rgb(0%,0%,0%);stroke-opacity:1;stroke-miterlimit:10;" d="M 28.347785 141.732337 L 45.474987 146.576631 L 56.693559 141.732337 L 56.693559 170.082024 L 28.347785 170.082024 Z M 28.347785 141.732337 " transform="matrix(0.998275,0,0,-0.998275,6.822211,283.351117)"/>
<path style="fill:none;stroke-width:0.3985;stroke-linecap:butt;stroke-linejoin:miter;stroke:rgb(0%,0%,0%);stroke-opacity:1;stroke-miterlimit:10;" d="M 28.347785 170.082024 L 45.474987 174.922405 L 56.693559 170.082024 L 56.693559 198.427797 L 28.347785 198.427797 Z M 28.347785 170.082024 " transform="matrix(0.998275,0,0,-0.998275,6.822211,283.351117)"/>
<path style="fill:none;stroke-width:0.3985;stroke-linecap:butt;stroke-linejoin:miter;stroke:rgb(0%,0%,0%);stroke-opacity:1;stroke-miterlimit:10;" d="M 28.347785 198.427797 L 45.474987 203.268179 L 56.693559 198.427797 L 56.693559 226.773571 L 28.347785 226.773571 Z M 28.347785 198.427797 " transform="matrix(0.998275,0,0,-0.998275,6.822211,283.351117)"/>
<path style="fill:none;stroke-width:0.3985;stroke-linecap:butt;stroke-linejoin:miter;stroke:rgb(0%,0%,0%);stroke-opacity:1;stroke-miterlimit:10;" d="M 28.347785 226.773571 L 45.474987 231.617866 L 56.693559 226.773571 L 56.693559 255.119345 L 28.347785 255.119345 Z M 28.347785 226.773571 " transform="matrix(0.998275,0,0,-0.998275,6.822211,283.351117)"/>
<g clip-path="url(#clip-1732452203364024-4)" clip-rule="nonzero">
<path style="fill:none;stroke-width:0.3985;stroke-linecap:butt;stroke-linejoin:miter;stroke:rgb(0%,0%,0%);stroke-opacity:1;stroke-miterlimit:10;" d="M 28.347785 255.119345 L 45.474987 259.96364 L 56.693559 255.119345 L 56.693559 283.469032 L 28.347785 283.469032 Z M 28.347785 255.119345 " transform="matrix(0.998275,0,0,-0.998275,6.822211,283.351117)"/>
</g>
<g clip-path="url(#clip-1732452203364024-5)" clip-rule="nonzero">
<path style="fill:none;stroke-width:0.3985;stroke-linecap:butt;stroke-linejoin:miter;stroke:rgb(0%,0%,0%);stroke-opacity:1;stroke-miterlimit:10;" d="M 56.693559 -0.00044584 L 69.422549 9.101193 L 85.039333 -0.00044584 L 85.039333 28.345328 L 56.693559 28.345328 Z M 56.693559 -0.00044584 " transform="matrix(0.998275,0,0,-0.998275,6.822211,283.351117)"/>
</g>
<path style="fill:none;stroke-width:0.3985;stroke-linecap:butt;stroke-linejoin:miter;stroke:rgb(0%,0%,0%);stroke-opacity:1;stroke-miterlimit:10;" d="M 56.693559 28.345328 L 69.422549 37.45088 L 85.039333 28.345328 L 85.039333 56.695015 L 56.693559 56.695015 Z M 56.693559 28.345328 " transform="matrix(0.998275,0,0,-0.998275,6.822211,283.351117)"/>
<path style="fill:none;stroke-width:0.3985;stroke-linecap:butt;stroke-linejoin:miter;stroke:rgb(0%,0%,0%);stroke-opacity:1;stroke-miterlimit:10;" d="M 56.693559 56.695015 L 69.422549 65.796654 L 85.039333 56.695015 L 85.039333 85.040789 L 56.693559 85.040789 Z M 56.693559 56.695015 " transform="matrix(0.998275,0,0,-0.998275,6.822211,283.351117)"/>
<path style="fill:none;stroke-width:0.3985;stroke-linecap:butt;stroke-linejoin:miter;stroke:rgb(0%,0%,0%);stroke-opacity:1;stroke-miterlimit:10;" d="M 56.693559 85.040789 L 69.422549 94.142427 L 85.039333 85.040789 L 85.039333 113.386563 L 56.693559 113.386563 Z M 56.693559 85.040789 " transform="matrix(0.998275,0,0,-0.998275,6.822211,283.351117)"/>
<path style="fill:none;stroke-width:0.3985;stroke-linecap:butt;stroke-linejoin:miter;stroke:rgb(0%,0%,0%);stroke-opacity:1;stroke-miterlimit:10;" d="M 56.693559 113.386563 L 69.422549 122.488201 L 85.039333 113.386563 L 85.039333 141.732337 L 56.693559 141.732337 Z M 56.693559 113.386563 " transform="matrix(0.998275,0,0,-0.998275,6.822211,283.351117)"/>
<path style="fill:none;stroke-width:0.3985;stroke-linecap:butt;stroke-linejoin:miter;stroke:rgb(0%,0%,0%);stroke-opacity:1;stroke-miterlimit:10;" d="M 56.693559 141.732337 L 69.422549 150.837888 L 85.039333 141.732337 L 85.039333 170.082024 L 56.693559 170.082024 Z M 56.693559 141.732337 " transform="matrix(0.998275,0,0,-0.998275,6.822211,283.351117)"/>
<path style="fill:none;stroke-width:0.3985;stroke-linecap:butt;stroke-linejoin:miter;stroke:rgb(0%,0%,0%);stroke-opacity:1;stroke-miterlimit:10;" d="M 56.693559 170.082024 L 69.422549 179.183662 L 85.039333 170.082024 L 85.039333 198.427797 L 56.693559 198.427797 Z M 56.693559 170.082024 " transform="matrix(0.998275,0,0,-0.998275,6.822211,283.351117)"/>
<path style="fill:none;stroke-width:0.3985;stroke-linecap:butt;stroke-linejoin:miter;stroke:rgb(0%,0%,0%);stroke-opacity:1;stroke-miterlimit:10;" d="M 56.693559 198.427797 L 69.422549 207.529436 L 85.039333 198.427797 L 85.039333 226.773571 L 56.693559 226.773571 Z M 56.693559 198.427797 " transform="matrix(0.998275,0,0,-0.998275,6.822211,283.351117)"/>
<path style="fill:none;stroke-width:0.3985;stroke-linecap:butt;stroke-linejoin:miter;stroke:rgb(0%,0%,0%);stroke-opacity:1;stroke-miterlimit:10;" d="M 56.693559 226.773571 L 69.422549 235.87521 L 85.039333 226.773571 L 85.039333 255.119345 L 56.693559 255.119345 Z M 56.693559 226.773571 " transform="matrix(0.998275,0,0,-0.998275,6.822211,283.351117)"/>
<g clip-path="url(#clip-1732452203364024-6)" clip-rule="nonzero">
<path style="fill:none;stroke-width:0.3985;stroke-linecap:butt;stroke-linejoin:miter;stroke:rgb(0%,0%,0%);stroke-opacity:1;stroke-miterlimit:10;" d="M 56.693559 255.119345 L 69.422549 264.224897 L 85.039333 255.119345 L 85.039333 283.469032 L 56.693559 283.469032 Z M 56.693559 255.119345 " transform="matrix(0.998275,0,0,-0.998275,6.822211,283.351117)"/>
</g>
<g clip-path="url(#clip-1732452203364024-7)" clip-rule="nonzero">
<path style="fill:none;stroke-width:0.3985;stroke-linecap:butt;stroke-linejoin:miter;stroke:rgb(0%,0%,0%);stroke-opacity:1;stroke-miterlimit:10;" d="M 85.039333 -0.00044584 L 97.819192 12.26681 L 113.38902 -0.00044584 L 113.38902 28.345328 L 85.039333 28.345328 Z M 85.039333 -0.00044584 " transform="matrix(0.998275,0,0,-0.998275,6.822211,283.351117)"/>
</g>
<path style="fill:none;stroke-width:0.3985;stroke-linecap:butt;stroke-linejoin:miter;stroke:rgb(0%,0%,0%);stroke-opacity:1;stroke-miterlimit:10;" d="M 85.039333 28.345328 L 97.819192 40.616497 L 113.38902 28.345328 L 113.38902 56.695015 L 85.039333 56.695015 Z M 85.039333 28.345328 " transform="matrix(0.998275,0,0,-0.998275,6.822211,283.351117)"/>
<path style="fill:none;stroke-width:0.3985;stroke-linecap:butt;stroke-linejoin:miter;stroke:rgb(0%,0%,0%);stroke-opacity:1;stroke-miterlimit:10;" d="M 85.039333 56.695015 L 97.819192 68.962271 L 113.38902 56.695015 L 113.38902 85.040789 L 85.039333 85.040789 Z M 85.039333 56.695015 " transform="matrix(0.998275,0,0,-0.998275,6.822211,283.351117)"/>
<path style="fill:none;stroke-width:0.3985;stroke-linecap:butt;stroke-linejoin:miter;stroke:rgb(0%,0%,0%);stroke-opacity:1;stroke-miterlimit:10;" d="M 85.039333 85.040789 L 97.819192 97.308045 L 113.38902 85.040789 L 113.38902 113.386563 L 85.039333 113.386563 Z M 85.039333 85.040789 " transform="matrix(0.998275,0,0,-0.998275,6.822211,283.351117)"/>
<path style="fill:none;stroke-width:0.3985;stroke-linecap:butt;stroke-linejoin:miter;stroke:rgb(0%,0%,0%);stroke-opacity:1;stroke-miterlimit:10;" d="M 85.039333 113.386563 L 97.819192 125.653819 L 113.38902 113.386563 L 113.38902 141.732337 L 85.039333 141.732337 Z M 85.039333 113.386563 " transform="matrix(0.998275,0,0,-0.998275,6.822211,283.351117)"/>
<path style="fill:none;stroke-width:0.3985;stroke-linecap:butt;stroke-linejoin:miter;stroke:rgb(0%,0%,0%);stroke-opacity:1;stroke-miterlimit:10;" d="M 85.039333 141.732337 L 97.819192 154.003505 L 113.38902 141.732337 L 113.38902 170.082024 L 85.039333 170.082024 Z M 85.039333 141.732337 " transform="matrix(0.998275,0,0,-0.998275,6.822211,283.351117)"/>
<path style="fill:none;stroke-width:0.3985;stroke-linecap:butt;stroke-linejoin:miter;stroke:rgb(0%,0%,0%);stroke-opacity:1;stroke-miterlimit:10;" d="M 85.039333 170.082024 L 97.819192 182.349279 L 113.38902 170.082024 L 113.38902 198.427797 L 85.039333 198.427797 Z M 85.039333 170.082024 " transform="matrix(0.998275,0,0,-0.998275,6.822211,283.351117)"/>
<path style="fill:none;stroke-width:0.3985;stroke-linecap:butt;stroke-linejoin:miter;stroke:rgb(0%,0%,0%);stroke-opacity:1;stroke-miterlimit:10;" d="M 85.039333 198.427797 L 97.819192 210.695053 L 113.38902 198.427797 L 113.38902 226.773571 L 85.039333 226.773571 Z M 85.039333 198.427797 " transform="matrix(0.998275,0,0,-0.998275,6.822211,283.351117)"/>
<path style="fill:none;stroke-width:0.3985;stroke-linecap:butt;stroke-linejoin:miter;stroke:rgb(0%,0%,0%);stroke-opacity:1;stroke-miterlimit:10;" d="M 85.039333 226.773571 L 97.819192 239.04474 L 113.38902 226.773571 L 113.38902 255.119345 L 85.039333 255.119345 Z M 85.039333 226.773571 " transform="matrix(0.998275,0,0,-0.998275,6.822211,283.351117)"/>
<g clip-path="url(#clip-1732452203364024-8)" clip-rule="nonzero">
<path style="fill:none;stroke-width:0.3985;stroke-linecap:butt;stroke-linejoin:miter;stroke:rgb(0%,0%,0%);stroke-opacity:1;stroke-miterlimit:10;" d="M 85.039333 255.119345 L 97.819192 267.390514 L 113.38902 255.119345 L 113.38902 283.469032 L 85.039333 283.469032 Z M 85.039333 255.119345 " transform="matrix(0.998275,0,0,-0.998275,6.822211,283.351117)"/>
</g>
<g clip-path="url(#clip-1732452203364024-9)" clip-rule="nonzero">
<path style="fill:none;stroke-width:0.3985;stroke-linecap:butt;stroke-linejoin:miter;stroke:rgb(0%,0%,0%);stroke-opacity:1;stroke-miterlimit:10;" d="M 113.38902 -0.00044584 L 127.346692 13.953313 L 141.734794 -0.00044584 L 141.734794 28.345328 L 113.38902 28.345328 Z M 113.38902 -0.00044584 " transform="matrix(0.998275,0,0,-0.998275,6.822211,283.351117)"/>
</g>
<path style="fill:none;stroke-width:0.3985;stroke-linecap:butt;stroke-linejoin:miter;stroke:rgb(0%,0%,0%);stroke-opacity:1;stroke-miterlimit:10;" d="M 113.38902 28.345328 L 127.346692 42.303 L 141.734794 28.345328 L 141.734794 56.695015 L 113.38902 56.695015 Z M 113.38902 28.345328 " transform="matrix(0.998275,0,0,-0.998275,6.822211,283.351117)"/>
<path style="fill:none;stroke-width:0.3985;stroke-linecap:butt;stroke-linejoin:miter;stroke:rgb(0%,0%,0%);stroke-opacity:1;stroke-miterlimit:10;" d="M 113.38902 56.695015 L 127.346692 70.648774 L 141.734794 56.695015 L 141.734794 85.040789 L 113.38902 85.040789 Z M 113.38902 56.695015 " transform="matrix(0.998275,0,0,-0.998275,6.822211,283.351117)"/>
<path style="fill:none;stroke-width:0.3985;stroke-linecap:butt;stroke-linejoin:miter;stroke:rgb(0%,0%,0%);stroke-opacity:1;stroke-miterlimit:10;" d="M 113.38902 85.040789 L 127.346692 98.994548 L 141.734794 85.040789 L 141.734794 113.386563 L 113.38902 113.386563 Z M 113.38902 85.040789 " transform="matrix(0.998275,0,0,-0.998275,6.822211,283.351117)"/>
<path style="fill:none;stroke-width:0.3985;stroke-linecap:butt;stroke-linejoin:miter;stroke:rgb(0%,0%,0%);stroke-opacity:1;stroke-miterlimit:10;" d="M 113.38902 113.386563 L 127.346692 127.340322 L 141.734794 113.386563 L 141.734794 141.732337 L 113.38902 141.732337 Z M 113.38902 113.386563 " transform="matrix(0.998275,0,0,-0.998275,6.822211,283.351117)"/>
<path style="fill:none;stroke-width:0.3985;stroke-linecap:butt;stroke-linejoin:miter;stroke:rgb(0%,0%,0%);stroke-opacity:1;stroke-miterlimit:10;" d="M 113.38902 141.732337 L 127.346692 155.690009 L 141.734794 141.732337 L 141.734794 170.082024 L 113.38902 170.082024 Z M 113.38902 141.732337 " transform="matrix(0.998275,0,0,-0.998275,6.822211,283.351117)"/>
<path style="fill:none;stroke-width:0.3985;stroke-linecap:butt;stroke-linejoin:miter;stroke:rgb(0%,0%,0%);stroke-opacity:1;stroke-miterlimit:10;" d="M 113.38902 170.082024 L 127.346692 184.035782 L 141.734794 170.082024 L 141.734794 198.427797 L 113.38902 198.427797 Z M 113.38902 170.082024 " transform="matrix(0.998275,0,0,-0.998275,6.822211,283.351117)"/>
<path style="fill:none;stroke-width:0.3985;stroke-linecap:butt;stroke-linejoin:miter;stroke:rgb(0%,0%,0%);stroke-opacity:1;stroke-miterlimit:10;" d="M 113.38902 198.427797 L 127.346692 212.381556 L 141.734794 198.427797 L 141.734794 226.773571 L 113.38902 226.773571 Z M 113.38902 198.427797 " transform="matrix(0.998275,0,0,-0.998275,6.822211,283.351117)"/>
<path style="fill:none;stroke-width:0.3985;stroke-linecap:butt;stroke-linejoin:miter;stroke:rgb(0%,0%,0%);stroke-opacity:1;stroke-miterlimit:10;" d="M 113.38902 226.773571 L 127.346692 240.731243 L 141.734794 226.773571 L 141.734794 255.119345 L 113.38902 255.119345 Z M 113.38902 226.773571 " transform="matrix(0.998275,0,0,-0.998275,6.822211,283.351117)"/>
<g clip-path="url(#clip-1732452203364024-10)" clip-rule="nonzero">
<path style="fill:none;stroke-width:0.3985;stroke-linecap:butt;stroke-linejoin:miter;stroke:rgb(0%,0%,0%);stroke-opacity:1;stroke-miterlimit:10;" d="M 113.38902 255.119345 L 127.346692 269.077017 L 141.734794 255.119345 L 141.734794 283.469032 L 113.38902 283.469032 Z M 113.38902 255.119345 " transform="matrix(0.998275,0,0,-0.998275,6.822211,283.351117)"/>
</g>
<g clip-path="url(#clip-1732452203364024-11)" clip-rule="nonzero">
<path style="fill:none;stroke-width:0.3985;stroke-linecap:butt;stroke-linejoin:miter;stroke:rgb(0%,0%,0%);stroke-opacity:1;stroke-miterlimit:10;" d="M 141.734794 -0.00044584 L 155.704205 13.965052 L 170.080568 -0.00044584 L 170.080568 28.345328 L 141.734794 28.345328 Z M 141.734794 -0.00044584 " transform="matrix(0.998275,0,0,-0.998275,6.822211,283.351117)"/>
</g>
<path style="fill:none;stroke-width:0.3985;stroke-linecap:butt;stroke-linejoin:miter;stroke:rgb(0%,0%,0%);stroke-opacity:1;stroke-miterlimit:10;" d="M 141.734794 28.345328 L 155.704205 42.310826 L 170.080568 28.345328 L 170.080568 56.695015 L 141.734794 56.695015 Z M 141.734794 28.345328 " transform="matrix(0.998275,0,0,-0.998275,6.822211,283.351117)"/>
<path style="fill:none;stroke-width:0.3985;stroke-linecap:butt;stroke-linejoin:miter;stroke:rgb(0%,0%,0%);stroke-opacity:1;stroke-miterlimit:10;" d="M 141.734794 56.695015 L 155.704205 70.6566 L 170.080568 56.695015 L 170.080568 85.040789 L 141.734794 85.040789 Z M 141.734794 56.695015 " transform="matrix(0.998275,0,0,-0.998275,6.822211,283.351117)"/>
<path style="fill:none;stroke-width:0.3985;stroke-linecap:butt;stroke-linejoin:miter;stroke:rgb(0%,0%,0%);stroke-opacity:1;stroke-miterlimit:10;" d="M 141.734794 85.040789 L 155.704205 99.002374 L 170.080568 85.040789 L 170.080568 113.386563 L 141.734794 113.386563 Z M 141.734794 85.040789 " transform="matrix(0.998275,0,0,-0.998275,6.822211,283.351117)"/>
<path style="fill:none;stroke-width:0.3985;stroke-linecap:butt;stroke-linejoin:miter;stroke:rgb(0%,0%,0%);stroke-opacity:1;stroke-miterlimit:10;" d="M 141.734794 113.386563 L 155.704205 127.352061 L 170.080568 113.386563 L 170.080568 141.732337 L 141.734794 141.732337 Z M 141.734794 113.386563 " transform="matrix(0.998275,0,0,-0.998275,6.822211,283.351117)"/>
<path style="fill:none;stroke-width:0.3985;stroke-linecap:butt;stroke-linejoin:miter;stroke:rgb(0%,0%,0%);stroke-opacity:1;stroke-miterlimit:10;" d="M 141.734794 141.732337 L 155.704205 155.697835 L 170.080568 141.732337 L 170.080568 170.082024 L 141.734794 170.082024 Z M 141.734794 141.732337 " transform="matrix(0.998275,0,0,-0.998275,6.822211,283.351117)"/>
<path style="fill:none;stroke-width:0.3985;stroke-linecap:butt;stroke-linejoin:miter;stroke:rgb(0%,0%,0%);stroke-opacity:1;stroke-miterlimit:10;" d="M 141.734794 170.082024 L 155.704205 184.043608 L 170.080568 170.082024 L 170.080568 198.427797 L 141.734794 198.427797 Z M 141.734794 170.082024 " transform="matrix(0.998275,0,0,-0.998275,6.822211,283.351117)"/>
<path style="fill:none;stroke-width:0.3985;stroke-linecap:butt;stroke-linejoin:miter;stroke:rgb(0%,0%,0%);stroke-opacity:1;stroke-miterlimit:10;" d="M 141.734794 198.427797 L 155.704205 212.389382 L 170.080568 198.427797 L 170.080568 226.773571 L 141.734794 226.773571 Z M 141.734794 198.427797 " transform="matrix(0.998275,0,0,-0.998275,6.822211,283.351117)"/>
<path style="fill:none;stroke-width:0.3985;stroke-linecap:butt;stroke-linejoin:miter;stroke:rgb(0%,0%,0%);stroke-opacity:1;stroke-miterlimit:10;" d="M 141.734794 226.773571 L 155.704205 240.739069 L 170.080568 226.773571 L 170.080568 255.119345 L 141.734794 255.119345 Z M 141.734794 226.773571 " transform="matrix(0.998275,0,0,-0.998275,6.822211,283.351117)"/>
<g clip-path="url(#clip-1732452203364024-12)" clip-rule="nonzero">
<path style="fill:none;stroke-width:0.3985;stroke-linecap:butt;stroke-linejoin:miter;stroke:rgb(0%,0%,0%);stroke-opacity:1;stroke-miterlimit:10;" d="M 141.734794 255.119345 L 155.704205 269.084843 L 170.080568 255.119345 L 170.080568 283.469032 L 141.734794 283.469032 Z M 141.734794 255.119345 " transform="matrix(0.998275,0,0,-0.998275,6.822211,283.351117)"/>
</g>
<g clip-path="url(#clip-1732452203364024-13)" clip-rule="nonzero">
<path style="fill:none;stroke-width:0.3985;stroke-linecap:butt;stroke-linejoin:miter;stroke:rgb(0%,0%,0%);stroke-opacity:1;stroke-miterlimit:10;" d="M 170.080568 -0.00044584 L 182.872166 12.290288 L 198.426342 -0.00044584 L 198.426342 28.345328 L 170.080568 28.345328 Z M 170.080568 -0.00044584 " transform="matrix(0.998275,0,0,-0.998275,6.822211,283.351117)"/>
</g>
<path style="fill:none;stroke-width:0.3985;stroke-linecap:butt;stroke-linejoin:miter;stroke:rgb(0%,0%,0%);stroke-opacity:1;stroke-miterlimit:10;" d="M 170.080568 28.345328 L 182.872166 40.636062 L 198.426342 28.345328 L 198.426342 56.695015 L 170.080568 56.695015 Z M 170.080568 28.345328 " transform="matrix(0.998275,0,0,-0.998275,6.822211,283.351117)"/>
<path style="fill:none;stroke-width:0.3985;stroke-linecap:butt;stroke-linejoin:miter;stroke:rgb(0%,0%,0%);stroke-opacity:1;stroke-miterlimit:10;" d="M 170.080568 56.695015 L 182.872166 68.981836 L 198.426342 56.695015 L 198.426342 85.040789 L 170.080568 85.040789 Z M 170.080568 56.695015 " transform="matrix(0.998275,0,0,-0.998275,6.822211,283.351117)"/>
<path style="fill:none;stroke-width:0.3985;stroke-linecap:butt;stroke-linejoin:miter;stroke:rgb(0%,0%,0%);stroke-opacity:1;stroke-miterlimit:10;" d="M 170.080568 85.040789 L 182.872166 97.32761 L 198.426342 85.040789 L 198.426342 113.386563 L 170.080568 113.386563 Z M 170.080568 85.040789 " transform="matrix(0.998275,0,0,-0.998275,6.822211,283.351117)"/>
<path style="fill:none;stroke-width:0.3985;stroke-linecap:butt;stroke-linejoin:miter;stroke:rgb(0%,0%,0%);stroke-opacity:1;stroke-miterlimit:10;" d="M 170.080568 113.386563 L 182.872166 125.677297 L 198.426342 113.386563 L 198.426342 141.732337 L 170.080568 141.732337 Z M 170.080568 113.386563 " transform="matrix(0.998275,0,0,-0.998275,6.822211,283.351117)"/>
<path style="fill:none;stroke-width:0.3985;stroke-linecap:butt;stroke-linejoin:miter;stroke:rgb(0%,0%,0%);stroke-opacity:1;stroke-miterlimit:10;" d="M 170.080568 141.732337 L 182.872166 154.02307 L 198.426342 141.732337 L 198.426342 170.082024 L 170.080568 170.082024 Z M 170.080568 141.732337 " transform="matrix(0.998275,0,0,-0.998275,6.822211,283.351117)"/>
<path style="fill:none;stroke-width:0.3985;stroke-linecap:butt;stroke-linejoin:miter;stroke:rgb(0%,0%,0%);stroke-opacity:1;stroke-miterlimit:10;" d="M 170.080568 170.082024 L 182.872166 182.368844 L 198.426342 170.082024 L 198.426342 198.427797 L 170.080568 198.427797 Z M 170.080568 170.082024 " transform="matrix(0.998275,0,0,-0.998275,6.822211,283.351117)"/>
<path style="fill:none;stroke-width:0.3985;stroke-linecap:butt;stroke-linejoin:miter;stroke:rgb(0%,0%,0%);stroke-opacity:1;stroke-miterlimit:10;" d="M 170.080568 198.427797 L 182.872166 210.714618 L 198.426342 198.427797 L 198.426342 226.773571 L 170.080568 226.773571 Z M 170.080568 198.427797 " transform="matrix(0.998275,0,0,-0.998275,6.822211,283.351117)"/>
<path style="fill:none;stroke-width:0.3985;stroke-linecap:butt;stroke-linejoin:miter;stroke:rgb(0%,0%,0%);stroke-opacity:1;stroke-miterlimit:10;" d="M 170.080568 226.773571 L 182.872166 239.064305 L 198.426342 226.773571 L 198.426342 255.119345 L 170.080568 255.119345 Z M 170.080568 226.773571 " transform="matrix(0.998275,0,0,-0.998275,6.822211,283.351117)"/>
<g clip-path="url(#clip-1732452203364024-14)" clip-rule="nonzero">
<path style="fill:none;stroke-width:0.3985;stroke-linecap:butt;stroke-linejoin:miter;stroke:rgb(0%,0%,0%);stroke-opacity:1;stroke-miterlimit:10;" d="M 170.080568 255.119345 L 182.872166 267.410079 L 198.426342 255.119345 L 198.426342 283.469032 L 170.080568 283.469032 Z M 170.080568 255.119345 " transform="matrix(0.998275,0,0,-0.998275,6.822211,283.351117)"/>
</g>
<g clip-path="url(#clip-1732452203364024-15)" clip-rule="nonzero">
<path style="fill:none;stroke-width:0.3985;stroke-linecap:butt;stroke-linejoin:miter;stroke:rgb(0%,0%,0%);stroke-opacity:1;stroke-miterlimit:10;" d="M 198.426342 -0.00044584 L 211.143593 9.13641 L 226.776029 -0.00044584 L 226.776029 28.345328 L 198.426342 28.345328 Z M 198.426342 -0.00044584 " transform="matrix(0.998275,0,0,-0.998275,6.822211,283.351117)"/>
</g>
<path style="fill:none;stroke-width:0.3985;stroke-linecap:butt;stroke-linejoin:miter;stroke:rgb(0%,0%,0%);stroke-opacity:1;stroke-miterlimit:10;" d="M 198.426342 28.345328 L 211.143593 37.482184 L 226.776029 28.345328 L 226.776029 56.695015 L 198.426342 56.695015 Z M 198.426342 28.345328 " transform="matrix(0.998275,0,0,-0.998275,6.822211,283.351117)"/>
<path style="fill:none;stroke-width:0.3985;stroke-linecap:butt;stroke-linejoin:miter;stroke:rgb(0%,0%,0%);stroke-opacity:1;stroke-miterlimit:10;" d="M 198.426342 56.695015 L 211.143593 65.827958 L 226.776029 56.695015 L 226.776029 85.040789 L 198.426342 85.040789 Z M 198.426342 56.695015 " transform="matrix(0.998275,0,0,-0.998275,6.822211,283.351117)"/>
<path style="fill:none;stroke-width:0.3985;stroke-linecap:butt;stroke-linejoin:miter;stroke:rgb(0%,0%,0%);stroke-opacity:1;stroke-miterlimit:10;" d="M 198.426342 85.040789 L 211.143593 94.177644 L 226.776029 85.040789 L 226.776029 113.386563 L 198.426342 113.386563 Z M 198.426342 85.040789 " transform="matrix(0.998275,0,0,-0.998275,6.822211,283.351117)"/>
<path style="fill:none;stroke-width:0.3985;stroke-linecap:butt;stroke-linejoin:miter;stroke:rgb(0%,0%,0%);stroke-opacity:1;stroke-miterlimit:10;" d="M 198.426342 113.386563 L 211.143593 122.523418 L 226.776029 113.386563 L 226.776029 141.732337 L 198.426342 141.732337 Z M 198.426342 113.386563 " transform="matrix(0.998275,0,0,-0.998275,6.822211,283.351117)"/>
<path style="fill:none;stroke-width:0.3985;stroke-linecap:butt;stroke-linejoin:miter;stroke:rgb(0%,0%,0%);stroke-opacity:1;stroke-miterlimit:10;" d="M 198.426342 141.732337 L 211.143593 150.869192 L 226.776029 141.732337 L 226.776029 170.082024 L 198.426342 170.082024 Z M 198.426342 141.732337 " transform="matrix(0.998275,0,0,-0.998275,6.822211,283.351117)"/>
<path style="fill:none;stroke-width:0.3985;stroke-linecap:butt;stroke-linejoin:miter;stroke:rgb(0%,0%,0%);stroke-opacity:1;stroke-miterlimit:10;" d="M 198.426342 170.082024 L 211.143593 179.214966 L 226.776029 170.082024 L 226.776029 198.427797 L 198.426342 198.427797 Z M 198.426342 170.082024 " transform="matrix(0.998275,0,0,-0.998275,6.822211,283.351117)"/>
<path style="fill:none;stroke-width:0.3985;stroke-linecap:butt;stroke-linejoin:miter;stroke:rgb(0%,0%,0%);stroke-opacity:1;stroke-miterlimit:10;" d="M 198.426342 198.427797 L 211.143593 207.564653 L 226.776029 198.427797 L 226.776029 226.773571 L 198.426342 226.773571 Z M 198.426342 198.427797 " transform="matrix(0.998275,0,0,-0.998275,6.822211,283.351117)"/>
<path style="fill:none;stroke-width:0.3985;stroke-linecap:butt;stroke-linejoin:miter;stroke:rgb(0%,0%,0%);stroke-opacity:1;stroke-miterlimit:10;" d="M 198.426342 226.773571 L 211.143593 235.910427 L 226.776029 226.773571 L 226.776029 255.119345 L 198.426342 255.119345 Z M 198.426342 226.773571 " transform="matrix(0.998275,0,0,-0.998275,6.822211,283.351117)"/>
<g clip-path="url(#clip-1732452203364024-16)" clip-rule="nonzero">
<path style="fill:none;stroke-width:0.3985;stroke-linecap:butt;stroke-linejoin:miter;stroke:rgb(0%,0%,0%);stroke-opacity:1;stroke-miterlimit:10;" d="M 198.426342 255.119345 L 211.143593 264.256201 L 226.776029 255.119345 L 226.776029 283.469032 L 198.426342 283.469032 Z M 198.426342 255.119345 " transform="matrix(0.998275,0,0,-0.998275,6.822211,283.351117)"/>
</g>
<g clip-path="url(#clip-1732452203364024-17)" clip-rule="nonzero">
<path style="fill:none;stroke-width:0.3985;stroke-linecap:butt;stroke-linejoin:miter;stroke:rgb(0%,0%,0%);stroke-opacity:1;stroke-miterlimit:10;" d="M 226.776029 -0.00044584 L 243.832797 4.882978 L 255.121803 -0.00044584 L 255.121803 28.345328 L 226.776029 28.345328 Z M 226.776029 -0.00044584 " transform="matrix(0.998275,0,0,-0.998275,6.822211,283.351117)"/>
</g>
<path style="fill:none;stroke-width:0.3985;stroke-linecap:butt;stroke-linejoin:miter;stroke:rgb(0%,0%,0%);stroke-opacity:1;stroke-miterlimit:10;" d="M 226.776029 28.345328 L 243.832797 33.232665 L 255.121803 28.345328 L 255.121803 56.695015 L 226.776029 56.695015 Z M 226.776029 28.345328 " transform="matrix(0.998275,0,0,-0.998275,6.822211,283.351117)"/>
<path style="fill:none;stroke-width:0.3985;stroke-linecap:butt;stroke-linejoin:miter;stroke:rgb(0%,0%,0%);stroke-opacity:1;stroke-miterlimit:10;" d="M 226.776029 56.695015 L 243.832797 61.578439 L 255.121803 56.695015 L 255.121803 85.040789 L 226.776029 85.040789 Z M 226.776029 56.695015 " transform="matrix(0.998275,0,0,-0.998275,6.822211,283.351117)"/>
<path style="fill:none;stroke-width:0.3985;stroke-linecap:butt;stroke-linejoin:miter;stroke:rgb(0%,0%,0%);stroke-opacity:1;stroke-miterlimit:10;" d="M 226.776029 85.040789 L 243.832797 89.924213 L 255.121803 85.040789 L 255.121803 113.386563 L 226.776029 113.386563 Z M 226.776029 85.040789 " transform="matrix(0.998275,0,0,-0.998275,6.822211,283.351117)"/>
<path style="fill:none;stroke-width:0.3985;stroke-linecap:butt;stroke-linejoin:miter;stroke:rgb(0%,0%,0%);stroke-opacity:1;stroke-miterlimit:10;" d="M 226.776029 113.386563 L 243.832797 118.269987 L 255.121803 113.386563 L 255.121803 141.732337 L 226.776029 141.732337 Z M 226.776029 113.386563 " transform="matrix(0.998275,0,0,-0.998275,6.822211,283.351117)"/>
<path style="fill:none;stroke-width:0.3985;stroke-linecap:butt;stroke-linejoin:miter;stroke:rgb(0%,0%,0%);stroke-opacity:1;stroke-miterlimit:10;" d="M 226.776029 141.732337 L 243.832797 146.619674 L 255.121803 141.732337 L 255.121803 170.082024 L 226.776029 170.082024 Z M 226.776029 141.732337 " transform="matrix(0.998275,0,0,-0.998275,6.822211,283.351117)"/>
<path style="fill:none;stroke-width:0.3985;stroke-linecap:butt;stroke-linejoin:miter;stroke:rgb(0%,0%,0%);stroke-opacity:1;stroke-miterlimit:10;" d="M 226.776029 170.082024 L 243.832797 174.965448 L 255.121803 170.082024 L 255.121803 198.427797 L 226.776029 198.427797 Z M 226.776029 170.082024 " transform="matrix(0.998275,0,0,-0.998275,6.822211,283.351117)"/>
<path style="fill:none;stroke-width:0.3985;stroke-linecap:butt;stroke-linejoin:miter;stroke:rgb(0%,0%,0%);stroke-opacity:1;stroke-miterlimit:10;" d="M 226.776029 198.427797 L 243.832797 203.311222 L 255.121803 198.427797 L 255.121803 226.773571 L 226.776029 226.773571 Z M 226.776029 198.427797 " transform="matrix(0.998275,0,0,-0.998275,6.822211,283.351117)"/>
<path style="fill:none;stroke-width:0.3985;stroke-linecap:butt;stroke-linejoin:miter;stroke:rgb(0%,0%,0%);stroke-opacity:1;stroke-miterlimit:10;" d="M 226.776029 226.773571 L 243.832797 231.656996 L 255.121803 226.773571 L 255.121803 255.119345 L 226.776029 255.119345 Z M 226.776029 226.773571 " transform="matrix(0.998275,0,0,-0.998275,6.822211,283.351117)"/>
<g clip-path="url(#clip-1732452203364024-18)" clip-rule="nonzero">
<path style="fill:none;stroke-width:0.3985;stroke-linecap:butt;stroke-linejoin:miter;stroke:rgb(0%,0%,0%);stroke-opacity:1;stroke-miterlimit:10;" d="M 226.776029 255.119345 L 243.832797 260.006683 L 255.121803 255.119345 L 255.121803 283.469032 L 226.776029 283.469032 Z M 226.776029 255.119345 " transform="matrix(0.998275,0,0,-0.998275,6.822211,283.351117)"/>
</g>
<g clip-path="url(#clip-1732452203364024-19)" clip-rule="nonzero">
<path style="fill:none;stroke-width:0.3985;stroke-linecap:butt;stroke-linejoin:miter;stroke:rgb(0%,0%,0%);stroke-opacity:1;stroke-miterlimit:10;" d="M 255.121803 -0.00044584 L 283.334534 0.0465102 L 283.467576 -0.00044584 L 283.467576 28.345328 L 255.121803 28.345328 Z M 255.121803 -0.00044584 " transform="matrix(0.998275,0,0,-0.998275,6.822211,283.351117)"/>
</g>
<g clip-path="url(#clip-1732452203364024-20)" clip-rule="nonzero">
<path style="fill:none;stroke-width:0.3985;stroke-linecap:butt;stroke-linejoin:miter;stroke:rgb(0%,0%,0%);stroke-opacity:1;stroke-miterlimit:10;" d="M 255.121803 28.345328 L 283.334534 28.392284 L 283.467576 28.345328 L 283.467576 56.695015 L 255.121803 56.695015 Z M 255.121803 28.345328 " transform="matrix(0.998275,0,0,-0.998275,6.822211,283.351117)"/>
</g>
<g clip-path="url(#clip-1732452203364024-21)" clip-rule="nonzero">
<path style="fill:none;stroke-width:0.3985;stroke-linecap:butt;stroke-linejoin:miter;stroke:rgb(0%,0%,0%);stroke-opacity:1;stroke-miterlimit:10;" d="M 255.121803 56.695015 L 283.334534 56.738058 L 283.467576 56.695015 L 283.467576 85.040789 L 255.121803 85.040789 Z M 255.121803 56.695015 " transform="matrix(0.998275,0,0,-0.998275,6.822211,283.351117)"/>
</g>
<g clip-path="url(#clip-1732452203364024-22)" clip-rule="nonzero">
<path style="fill:none;stroke-width:0.3985;stroke-linecap:butt;stroke-linejoin:miter;stroke:rgb(0%,0%,0%);stroke-opacity:1;stroke-miterlimit:10;" d="M 255.121803 85.040789 L 283.334534 85.087745 L 283.467576 85.040789 L 283.467576 113.386563 L 255.121803 113.386563 Z M 255.121803 85.040789 " transform="matrix(0.998275,0,0,-0.998275,6.822211,283.351117)"/>
</g>
<g clip-path="url(#clip-1732452203364024-23)" clip-rule="nonzero">
<path style="fill:none;stroke-width:0.3985;stroke-linecap:butt;stroke-linejoin:miter;stroke:rgb(0%,0%,0%);stroke-opacity:1;stroke-miterlimit:10;" d="M 255.121803 113.386563 L 283.334534 113.433519 L 283.467576 113.386563 L 283.467576 141.732337 L 255.121803 141.732337 Z M 255.121803 113.386563 " transform="matrix(0.998275,0,0,-0.998275,6.822211,283.351117)"/>
</g>
<g clip-path="url(#clip-1732452203364024-24)" clip-rule="nonzero">
<path style="fill:none;stroke-width:0.3985;stroke-linecap:butt;stroke-linejoin:miter;stroke:rgb(0%,0%,0%);stroke-opacity:1;stroke-miterlimit:10;" d="M 255.121803 141.732337 L 283.334534 141.779293 L 283.467576 141.732337 L 283.467576 170.082024 L 255.121803 170.082024 Z M 255.121803 141.732337 " transform="matrix(0.998275,0,0,-0.998275,6.822211,283.351117)"/>
</g>
<g clip-path="url(#clip-1732452203364024-25)" clip-rule="nonzero">
<path style="fill:none;stroke-width:0.3985;stroke-linecap:butt;stroke-linejoin:miter;stroke:rgb(0%,0%,0%);stroke-opacity:1;stroke-miterlimit:10;" d="M 255.121803 170.082024 L 283.334534 170.125067 L 283.467576 170.082024 L 283.467576 198.427797 L 255.121803 198.427797 Z M 255.121803 170.082024 " transform="matrix(0.998275,0,0,-0.998275,6.822211,283.351117)"/>
</g>
<g clip-path="url(#clip-1732452203364024-26)" clip-rule="nonzero">
<path style="fill:none;stroke-width:0.3985;stroke-linecap:butt;stroke-linejoin:miter;stroke:rgb(0%,0%,0%);stroke-opacity:1;stroke-miterlimit:10;" d="M 255.121803 198.427797 L 283.334534 198.474753 L 283.467576 198.427797 L 283.467576 226.773571 L 255.121803 226.773571 Z M 255.121803 198.427797 " transform="matrix(0.998275,0,0,-0.998275,6.822211,283.351117)"/>
</g>
<g clip-path="url(#clip-1732452203364024-27)" clip-rule="nonzero">
<path style="fill:none;stroke-width:0.3985;stroke-linecap:butt;stroke-linejoin:miter;stroke:rgb(0%,0%,0%);stroke-opacity:1;stroke-miterlimit:10;" d="M 255.121803 226.773571 L 283.334534 226.820527 L 283.467576 226.773571 L 283.467576 255.119345 L 255.121803 255.119345 Z M 255.121803 226.773571 " transform="matrix(0.998275,0,0,-0.998275,6.822211,283.351117)"/>
</g>
<g clip-path="url(#clip-1732452203364024-28)" clip-rule="nonzero">
<path style="fill:none;stroke-width:0.3985;stroke-linecap:butt;stroke-linejoin:miter;stroke:rgb(0%,0%,0%);stroke-opacity:1;stroke-miterlimit:10;" d="M 255.121803 255.119345 L 283.334534 255.166301 L 283.467576 255.119345 L 283.467576 283.469032 L 255.121803 283.469032 Z M 255.121803 255.119345 " transform="matrix(0.998275,0,0,-0.998275,6.822211,283.351117)"/>
</g>
</g>
</svg>
