<?xml version="1.0" encoding="UTF-8"?>
<svg xmlns="http://www.w3.org/2000/svg" xmlns:xlink="http://www.w3.org/1999/xlink" width="400" height="400" viewBox="0 0 277.963 288.446" version="1.2">
<defs>
<clipPath id="clip-1732452203364021-1">
  <path d="M 27 269 L 45 269 L 45 287.894531 L 27 287.894531 Z M 27 269 "/>
</clipPath>
<clipPath id="clip-1732452203364021-2">
  <path d="M 53 266 L 76 266 L 76 287.894531 L 53 287.894531 Z M 53 266 "/>
</clipPath>
<clipPath id="clip-1732452203364021-3">
  <path d="M 80 264 L 106 264 L 106 287.894531 L 80 287.894531 Z M 80 264 "/>
</clipPath>
<clipPath id="clip-1732452203364021-4">
  <path d="M 107 263 L 135 263 L 135 287.894531 L 107 287.894531 Z M 107 263 "/>
</clipPath>
<clipPath id="clip-1732452203364021-5">
  <path d="M 135 263 L 164 263 L 164 287.894531 L 135 287.894531 Z M 135 263 "/>
</clipPath>
<clipPath id="clip-1732452203364021-6">
  <path d="M 164 264 L 191 264 L 191 287.894531 L 164 287.894531 Z M 164 264 "/>
</clipPath>
<clipPath id="clip-1732452203364021-7">
  <path d="M 195 266 L 217 266 L 217 287.894531 L 195 287.894531 Z M 195 266 "/>
</clipPath>
<clipPath id="clip-1732452203364021-8">
  <path d="M 225 269 L 243 269 L 243 287.894531 L 225 287.894531 Z M 225 269 "/>
</clipPath>
<clipPath id="clip-1732452203364021-9">
  <path d="M 270 257 L 277.679688 257 L 277.679688 271 L 270 271 Z M 270 257 "/>
</clipPath>
<clipPath id="clip-1732452203364021-10">
  <path d="M 270 229 L 277.679688 229 L 277.679688 243 L 270 243 Z M 270 229 "/>
</clipPath>
<clipPath id="clip-1732452203364021-11">
  <path d="M 270 201 L 277.679688 201 L 277.679688 215 L 270 215 Z M 270 201 "/>
</clipPath>
<clipPath id="clip-1732452203364021-12">
  <path d="M 270 172 L 277.679688 172 L 277.679688 186 L 270 186 Z M 270 172 "/>
</clipPath>
<clipPath id="clip-1732452203364021-13">
  <path d="M 270 144 L 277.679688 144 L 277.679688 158 L 270 158 Z M 270 144 "/>
</clipPath>
<clipPath id="clip-1732452203364021-14">
  <path d="M 270 116 L 277.679688 116 L 277.679688 130 L 270 130 Z M 270 116 "/>
</clipPath>
<clipPath id="clip-1732452203364021-15">
  <path d="M 270 87 L 277.679688 87 L 277.679688 102 L 270 102 Z M 270 87 "/>
</clipPath>
<clipPath id="clip-1732452203364021-16">
  <path d="M 270 59 L 277.679688 59 L 277.679688 73 L 270 73 Z M 270 59 "/>
</clipPath>
<clipPath id="clip-1732452203364021-17">
  <path d="M 270 31 L 277.679688 31 L 277.679688 45 L 270 45 Z M 270 31 "/>
</clipPath>
<clipPath id="clip-1732452203364021-18">
  <path d="M 270 3 L 277.679688 3 L 277.679688 17 L 270 17 Z M 270 3 "/>
</clipPath>
</defs>
<g id="surface1">
<path style="fill:none;stroke-width:0.3985;stroke-linecap:butt;stroke-linejoin:miter;stroke:rgb(0%,0%,0%);stroke-opacity:1;stroke-miterlimit:10;" d="M 0.817408 0.474511 L -0.00056671 0.944161 L -0.818541 0.474511 L -0.818541 -0.472618 L -0.00056671 -0.942268 L 0.817408 -0.472618 Z M 0.817408 0.474511 " transform="matrix(0.998083,0,0,-0.998083,7.887284,278.403288)"/>
<path style="fill:none;stroke-width:0.3985;stroke-linecap:butt;stroke-linejoin:miter;stroke:rgb(0%,0%,0%);stroke-opacity:1;stroke-miterlimit:10;" d="M 15.591823 14.994532 L 14.175045 15.812507 L 12.754353 14.994532 L 12.754353 13.35467 L 14.175045 12.536696 L 15.591823 13.35467 Z M 15.591823 14.994532 " transform="matrix(0.998083,0,0,-0.998083,7.887284,278.403288)"/>
<path style="fill:none;stroke-width:0.3985;stroke-linecap:butt;stroke-linejoin:miter;stroke:rgb(0%,0%,0%);stroke-opacity:1;stroke-miterlimit:10;" d="M 0.817408 28.82182 L -0.00056671 29.29147 L -0.818541 28.82182 L -0.818541 27.874692 L -0.00056671 27.401128 L 0.817408 27.874692 Z M 0.817408 28.82182 " transform="matrix(0.998083,0,0,-0.998083,7.887284,278.403288)"/>
<path style="fill:none;stroke-width:0.3985;stroke-linecap:butt;stroke-linejoin:miter;stroke:rgb(0%,0%,0%);stroke-opacity:1;stroke-miterlimit:10;" d="M 15.591823 43.337928 L 14.175045 44.159816 L 12.754353 43.337928 L 12.754353 41.701979 L 14.175045 40.880091 L 15.591823 41.701979 Z M 15.591823 43.337928 " transform="matrix(0.998083,0,0,-0.998083,7.887284,278.403288)"/>
<path style="fill:none;stroke-width:0.3985;stroke-linecap:butt;stroke-linejoin:miter;stroke:rgb(0%,0%,0%);stroke-opacity:1;stroke-miterlimit:10;" d="M 0.817408 57.165215 L -0.00056671 57.638779 L -0.818541 57.165215 L -0.818541 56.222001 L -0.00056671 55.748437 L 0.817408 56.222001 Z M 0.817408 57.165215 " transform="matrix(0.998083,0,0,-0.998083,7.887284,278.403288)"/>
<path style="fill:none;stroke-width:0.3985;stroke-linecap:butt;stroke-linejoin:miter;stroke:rgb(0%,0%,0%);stroke-opacity:1;stroke-miterlimit:10;" d="M 15.591823 71.685237 L 14.175045 72.507125 L 12.754353 71.685237 L 12.754353 70.049288 L 14.175045 69.2274 L 15.591823 70.049288 Z M 15.591823 71.685237 " transform="matrix(0.998083,0,0,-0.998083,7.887284,278.403288)"/>
<path style="fill:none;stroke-width:0.3985;stroke-linecap:butt;stroke-linejoin:miter;stroke:rgb(0%,0%,0%);stroke-opacity:1;stroke-miterlimit:10;" d="M 0.817408 85.512525 L -0.00056671 85.986089 L -0.818541 85.512525 L -0.818541 84.565396 L -0.00056671 84.095746 L 0.817408 84.565396 Z M 0.817408 85.512525 " transform="matrix(0.998083,0,0,-0.998083,7.887284,278.403288)"/>
<path style="fill:none;stroke-width:0.3985;stroke-linecap:butt;stroke-linejoin:miter;stroke:rgb(0%,0%,0%);stroke-opacity:1;stroke-miterlimit:10;" d="M 15.591823 100.032546 L 14.175045 100.850521 L 12.754353 100.032546 L 12.754353 98.392684 L 14.175045 97.57471 L 15.591823 98.392684 Z M 15.591823 100.032546 " transform="matrix(0.998083,0,0,-0.998083,7.887284,278.403288)"/>
<path style="fill:none;stroke-width:0.3985;stroke-linecap:butt;stroke-linejoin:miter;stroke:rgb(0%,0%,0%);stroke-opacity:1;stroke-miterlimit:10;" d="M 0.817408 113.859834 L -0.00056671 114.329484 L -0.818541 113.859834 L -0.818541 112.912706 L -0.00056671 112.443055 L 0.817408 112.912706 Z M 0.817408 113.859834 " transform="matrix(0.998083,0,0,-0.998083,7.887284,278.403288)"/>
<path style="fill:none;stroke-width:0.3985;stroke-linecap:butt;stroke-linejoin:miter;stroke:rgb(0%,0%,0%);stroke-opacity:1;stroke-miterlimit:10;" d="M 15.591823 128.379856 L 14.175045 129.19783 L 12.754353 128.379856 L 12.754353 126.739993 L 14.175045 125.922019 L 15.591823 126.739993 Z M 15.591823 128.379856 " transform="matrix(0.998083,0,0,-0.998083,7.887284,278.403288)"/>
<path style="fill:none;stroke-width:0.3985;stroke-linecap:butt;stroke-linejoin:miter;stroke:rgb(0%,0%,0%);stroke-opacity:1;stroke-miterlimit:10;" d="M 0.817408 142.207143 L -0.00056671 142.676793 L -0.818541 142.207143 L -0.818541 141.260015 L -0.00056671 140.790365 L 0.817408 141.260015 Z M 0.817408 142.207143 " transform="matrix(0.998083,0,0,-0.998083,7.887284,278.403288)"/>
<path style="fill:none;stroke-width:0.3985;stroke-linecap:butt;stroke-linejoin:miter;stroke:rgb(0%,0%,0%);stroke-opacity:1;stroke-miterlimit:10;" d="M 15.591823 156.727165 L 14.175045 157.545139 L 12.754353 156.727165 L 12.754353 155.087303 L 14.175045 154.269328 L 15.591823 155.087303 Z M 15.591823 156.727165 " transform="matrix(0.998083,0,0,-0.998083,7.887284,278.403288)"/>
<path style="fill:none;stroke-width:0.3985;stroke-linecap:butt;stroke-linejoin:miter;stroke:rgb(0%,0%,0%);stroke-opacity:1;stroke-miterlimit:10;" d="M 0.817408 170.554452 L -0.00056671 171.024103 L -0.818541 170.554452 L -0.818541 169.607324 L -0.00056671 169.137674 L 0.817408 169.607324 Z M 0.817408 170.554452 " transform="matrix(0.998083,0,0,-0.998083,7.887284,278.403288)"/>
<path style="fill:none;stroke-width:0.3985;stroke-linecap:butt;stroke-linejoin:miter;stroke:rgb(0%,0%,0%);stroke-opacity:1;stroke-miterlimit:10;" d="M 15.591823 185.074474 L 14.175045 185.892448 L 12.754353 185.074474 L 12.754353 183.434612 L 14.175045 182.616638 L 15.591823 183.434612 Z M 15.591823 185.074474 " transform="matrix(0.998083,0,0,-0.998083,7.887284,278.403288)"/>
<path style="fill:none;stroke-width:0.3985;stroke-linecap:butt;stroke-linejoin:miter;stroke:rgb(0%,0%,0%);stroke-opacity:1;stroke-miterlimit:10;" d="M 0.817408 198.901762 L -0.00056671 199.371412 L -0.818541 198.901762 L -0.818541 197.954634 L -0.00056671 197.484983 L 0.817408 197.954634 Z M 0.817408 198.901762 " transform="matrix(0.998083,0,0,-0.998083,7.887284,278.403288)"/>
<path style="fill:none;stroke-width:0.3985;stroke-linecap:butt;stroke-linejoin:miter;stroke:rgb(0%,0%,0%);stroke-opacity:1;stroke-miterlimit:10;" d="M 15.591823 213.421783 L 14.175045 214.239758 L 12.754353 213.421783 L 12.754353 211.781921 L 14.175045 210.963947 L 15.591823 211.781921 Z M 15.591823 213.421783 " transform="matrix(0.998083,0,0,-0.998083,7.887284,278.403288)"/>
<path style="fill:none;stroke-width:0.3985;stroke-linecap:butt;stroke-linejoin:miter;stroke:rgb(0%,0%,0%);stroke-opacity:1;stroke-miterlimit:10;" d="M 0.817408 227.249071 L -0.00056671 227.718721 L -0.818541 227.249071 L -0.818541 226.301943 L -0.00056671 225.832292 L 0.817408 226.301943 Z M 0.817408 227.249071 " transform="matrix(0.998083,0,0,-0.998083,7.887284,278.403288)"/>
<path style="fill:none;stroke-width:0.3985;stroke-linecap:butt;stroke-linejoin:miter;stroke:rgb(0%,0%,0%);stroke-opacity:1;stroke-miterlimit:10;" d="M 15.591823 241.765179 L 14.175045 242.587067 L 12.754353 241.765179 L 12.754353 240.12923 L 14.175045 239.311256 L 15.591823 240.12923 Z M 15.591823 241.765179 " transform="matrix(0.998083,0,0,-0.998083,7.887284,278.403288)"/>
<path style="fill:none;stroke-width:0.3985;stroke-linecap:butt;stroke-linejoin:miter;stroke:rgb(0%,0%,0%);stroke-opacity:1;stroke-miterlimit:10;" d="M 0.817408 255.59638 L -0.00056671 256.06603 L -0.818541 255.59638 L -0.818541 254.649252 L -0.00056671 254.175688 L 0.817408 254.649252 Z M 0.817408 255.59638 " transform="matrix(0.998083,0,0,-0.998083,7.887284,278.403288)"/>
<path style="fill:none;stroke-width:0.3985;stroke-linecap:butt;stroke-linejoin:miter;stroke:rgb(0%,0%,0%);stroke-opacity:1;stroke-miterlimit:10;" d="M 15.591823 270.112488 L 14.175045 270.934376 L 12.754353 270.112488 L 12.754353 268.47654 L 14.175045 267.654652 L 15.591823 268.47654 Z M 15.591823 270.112488 " transform="matrix(0.998083,0,0,-0.998083,7.887284,278.403288)"/>
<g clip-path="url(#clip-1732452203364021-1)" clip-rule="nonzero">
<path style="fill:none;stroke-width:0.3985;stroke-linecap:butt;stroke-linejoin:miter;stroke:rgb(0%,0%,0%);stroke-opacity:1;stroke-miterlimit:10;" d="M 31.141162 1.613412 L 28.346743 3.229792 L 25.552323 1.613412 L 25.552323 -1.61152 L 28.346743 -3.227899 L 31.141162 -1.61152 Z M 31.141162 1.613412 " transform="matrix(0.998083,0,0,-0.998083,7.887284,278.403288)"/>
</g>
<path style="fill:none;stroke-width:0.3985;stroke-linecap:butt;stroke-linejoin:miter;stroke:rgb(0%,0%,0%);stroke-opacity:1;stroke-miterlimit:10;" d="M 46.608312 16.536551 L 42.51844 18.89263 L 38.432483 16.536551 L 38.432483 11.812651 L 42.51844 9.452659 L 46.608312 11.812651 Z M 46.608312 16.536551 " transform="matrix(0.998083,0,0,-0.998083,7.887284,278.403288)"/>
<path style="fill:none;stroke-width:0.3985;stroke-linecap:butt;stroke-linejoin:miter;stroke:rgb(0%,0%,0%);stroke-opacity:1;stroke-miterlimit:10;" d="M 31.141162 29.960722 L 28.346743 31.577102 L 25.552323 29.960722 L 25.552323 26.73579 L 28.346743 25.11941 L 31.141162 26.73579 Z M 31.141162 29.960722 " transform="matrix(0.998083,0,0,-0.998083,7.887284,278.403288)"/>
<path style="fill:none;stroke-width:0.3985;stroke-linecap:butt;stroke-linejoin:miter;stroke:rgb(0%,0%,0%);stroke-opacity:1;stroke-miterlimit:10;" d="M 46.608312 44.879946 L 42.51844 47.239939 L 38.432483 44.879946 L 38.432483 40.159961 L 42.51844 37.799968 L 46.608312 40.159961 Z M 46.608312 44.879946 " transform="matrix(0.998083,0,0,-0.998083,7.887284,278.403288)"/>
<path style="fill:none;stroke-width:0.3985;stroke-linecap:butt;stroke-linejoin:miter;stroke:rgb(0%,0%,0%);stroke-opacity:1;stroke-miterlimit:10;" d="M 31.141162 58.308031 L 28.346743 59.924411 L 25.552323 58.308031 L 25.552323 55.079185 L 28.346743 53.462805 L 31.141162 55.079185 Z M 31.141162 58.308031 " transform="matrix(0.998083,0,0,-0.998083,7.887284,278.403288)"/>
<path style="fill:none;stroke-width:0.3985;stroke-linecap:butt;stroke-linejoin:miter;stroke:rgb(0%,0%,0%);stroke-opacity:1;stroke-miterlimit:10;" d="M 46.608312 73.227256 L 42.51844 75.587248 L 38.432483 73.227256 L 38.432483 68.50727 L 42.51844 66.147277 L 46.608312 68.50727 Z M 46.608312 73.227256 " transform="matrix(0.998083,0,0,-0.998083,7.887284,278.403288)"/>
<path style="fill:none;stroke-width:0.3985;stroke-linecap:butt;stroke-linejoin:miter;stroke:rgb(0%,0%,0%);stroke-opacity:1;stroke-miterlimit:10;" d="M 31.141162 86.651427 L 28.346743 88.267806 L 25.552323 86.651427 L 25.552323 83.426494 L 28.346743 81.810115 L 31.141162 83.426494 Z M 31.141162 86.651427 " transform="matrix(0.998083,0,0,-0.998083,7.887284,278.403288)"/>
<path style="fill:none;stroke-width:0.3985;stroke-linecap:butt;stroke-linejoin:miter;stroke:rgb(0%,0%,0%);stroke-opacity:1;stroke-miterlimit:10;" d="M 46.608312 101.574565 L 42.51844 103.934558 L 38.432483 101.574565 L 38.432483 96.850666 L 42.51844 94.494587 L 46.608312 96.850666 Z M 46.608312 101.574565 " transform="matrix(0.998083,0,0,-0.998083,7.887284,278.403288)"/>
<path style="fill:none;stroke-width:0.3985;stroke-linecap:butt;stroke-linejoin:miter;stroke:rgb(0%,0%,0%);stroke-opacity:1;stroke-miterlimit:10;" d="M 31.141162 114.998736 L 28.346743 116.615116 L 25.552323 114.998736 L 25.552323 111.773804 L 28.346743 110.157424 L 31.141162 111.773804 Z M 31.141162 114.998736 " transform="matrix(0.998083,0,0,-0.998083,7.887284,278.403288)"/>
<path style="fill:none;stroke-width:0.3985;stroke-linecap:butt;stroke-linejoin:miter;stroke:rgb(0%,0%,0%);stroke-opacity:1;stroke-miterlimit:10;" d="M 46.608312 129.921874 L 42.51844 132.281867 L 38.432483 129.921874 L 38.432483 125.197975 L 42.51844 122.841896 L 46.608312 125.197975 Z M 46.608312 129.921874 " transform="matrix(0.998083,0,0,-0.998083,7.887284,278.403288)"/>
<path style="fill:none;stroke-width:0.3985;stroke-linecap:butt;stroke-linejoin:miter;stroke:rgb(0%,0%,0%);stroke-opacity:1;stroke-miterlimit:10;" d="M 31.141162 143.346045 L 28.346743 144.962425 L 25.552323 143.346045 L 25.552323 140.121113 L 28.346743 138.504733 L 31.141162 140.121113 Z M 31.141162 143.346045 " transform="matrix(0.998083,0,0,-0.998083,7.887284,278.403288)"/>
<path style="fill:none;stroke-width:0.3985;stroke-linecap:butt;stroke-linejoin:miter;stroke:rgb(0%,0%,0%);stroke-opacity:1;stroke-miterlimit:10;" d="M 46.608312 158.269183 L 42.51844 160.629176 L 38.432483 158.269183 L 38.432483 153.545284 L 42.51844 151.189205 L 46.608312 153.545284 Z M 46.608312 158.269183 " transform="matrix(0.998083,0,0,-0.998083,7.887284,278.403288)"/>
<path style="fill:none;stroke-width:0.3985;stroke-linecap:butt;stroke-linejoin:miter;stroke:rgb(0%,0%,0%);stroke-opacity:1;stroke-miterlimit:10;" d="M 31.141162 171.693354 L 28.346743 173.309734 L 25.552323 171.693354 L 25.552323 168.468422 L 28.346743 166.852043 L 31.141162 168.468422 Z M 31.141162 171.693354 " transform="matrix(0.998083,0,0,-0.998083,7.887284,278.403288)"/>
<path style="fill:none;stroke-width:0.3985;stroke-linecap:butt;stroke-linejoin:miter;stroke:rgb(0%,0%,0%);stroke-opacity:1;stroke-miterlimit:10;" d="M 46.608312 186.616493 L 42.51844 188.972572 L 38.432483 186.616493 L 38.432483 181.892593 L 42.51844 179.532601 L 46.608312 181.892593 Z M 46.608312 186.616493 " transform="matrix(0.998083,0,0,-0.998083,7.887284,278.403288)"/>
<path style="fill:none;stroke-width:0.3985;stroke-linecap:butt;stroke-linejoin:miter;stroke:rgb(0%,0%,0%);stroke-opacity:1;stroke-miterlimit:10;" d="M 31.141162 200.040664 L 28.346743 201.657043 L 25.552323 200.040664 L 25.552323 196.815732 L 28.346743 195.199352 L 31.141162 196.815732 Z M 31.141162 200.040664 " transform="matrix(0.998083,0,0,-0.998083,7.887284,278.403288)"/>
<path style="fill:none;stroke-width:0.3985;stroke-linecap:butt;stroke-linejoin:miter;stroke:rgb(0%,0%,0%);stroke-opacity:1;stroke-miterlimit:10;" d="M 46.608312 214.963802 L 42.51844 217.319881 L 38.432483 214.963802 L 38.432483 210.239903 L 42.51844 207.87991 L 46.608312 210.239903 Z M 46.608312 214.963802 " transform="matrix(0.998083,0,0,-0.998083,7.887284,278.403288)"/>
<path style="fill:none;stroke-width:0.3985;stroke-linecap:butt;stroke-linejoin:miter;stroke:rgb(0%,0%,0%);stroke-opacity:1;stroke-miterlimit:10;" d="M 31.141162 228.387973 L 28.346743 230.004353 L 25.552323 228.387973 L 25.552323 225.163041 L 28.346743 223.546661 L 31.141162 225.163041 Z M 31.141162 228.387973 " transform="matrix(0.998083,0,0,-0.998083,7.887284,278.403288)"/>
<path style="fill:none;stroke-width:0.3985;stroke-linecap:butt;stroke-linejoin:miter;stroke:rgb(0%,0%,0%);stroke-opacity:1;stroke-miterlimit:10;" d="M 46.608312 243.307197 L 42.51844 245.66719 L 38.432483 243.307197 L 38.432483 238.587212 L 42.51844 236.227219 L 46.608312 238.587212 Z M 46.608312 243.307197 " transform="matrix(0.998083,0,0,-0.998083,7.887284,278.403288)"/>
<path style="fill:none;stroke-width:0.3985;stroke-linecap:butt;stroke-linejoin:miter;stroke:rgb(0%,0%,0%);stroke-opacity:1;stroke-miterlimit:10;" d="M 31.141162 256.735282 L 28.346743 258.351662 L 25.552323 256.735282 L 25.552323 253.506436 L 28.346743 251.89397 L 31.141162 253.506436 Z M 31.141162 256.735282 " transform="matrix(0.998083,0,0,-0.998083,7.887284,278.403288)"/>
<path style="fill:none;stroke-width:0.3985;stroke-linecap:butt;stroke-linejoin:miter;stroke:rgb(0%,0%,0%);stroke-opacity:1;stroke-miterlimit:10;" d="M 46.608312 271.654507 L 42.51844 274.014499 L 38.432483 271.654507 L 38.432483 266.934521 L 42.51844 264.574528 L 46.608312 266.934521 Z M 46.608312 271.654507 " transform="matrix(0.998083,0,0,-0.998083,7.887284,278.403288)"/>
<g clip-path="url(#clip-1732452203364021-2)" clip-rule="nonzero">
<path style="fill:none;stroke-width:0.3985;stroke-linecap:butt;stroke-linejoin:miter;stroke:rgb(0%,0%,0%);stroke-opacity:1;stroke-miterlimit:10;" d="M 61.950221 3.034105 L 56.694052 6.067263 L 51.437882 3.034105 L 51.437882 -3.032212 L 56.694052 -6.069284 L 61.950221 -3.032212 Z M 61.950221 3.034105 " transform="matrix(0.998083,0,0,-0.998083,7.887284,278.403288)"/>
</g>
<path style="fill:none;stroke-width:0.3985;stroke-linecap:butt;stroke-linejoin:miter;stroke:rgb(0%,0%,0%);stroke-opacity:1;stroke-miterlimit:10;" d="M 77.131667 17.788952 L 70.86575 21.409173 L 64.603746 17.788952 L 64.603746 10.556337 L 70.86575 6.94003 L 77.131667 10.556337 Z M 77.131667 17.788952 " transform="matrix(0.998083,0,0,-0.998083,7.887284,278.403288)"/>
<path style="fill:none;stroke-width:0.3985;stroke-linecap:butt;stroke-linejoin:miter;stroke:rgb(0%,0%,0%);stroke-opacity:1;stroke-miterlimit:10;" d="M 61.950221 31.381414 L 56.694052 34.414572 L 51.437882 31.381414 L 51.437882 25.315098 L 56.694052 22.278026 L 61.950221 25.315098 Z M 61.950221 31.381414 " transform="matrix(0.998083,0,0,-0.998083,7.887284,278.403288)"/>
<path style="fill:none;stroke-width:0.3985;stroke-linecap:butt;stroke-linejoin:miter;stroke:rgb(0%,0%,0%);stroke-opacity:1;stroke-miterlimit:10;" d="M 77.131667 46.136261 L 70.86575 49.752568 L 64.603746 46.136261 L 64.603746 38.903646 L 70.86575 35.287339 L 77.131667 38.903646 Z M 77.131667 46.136261 " transform="matrix(0.998083,0,0,-0.998083,7.887284,278.403288)"/>
<path style="fill:none;stroke-width:0.3985;stroke-linecap:butt;stroke-linejoin:miter;stroke:rgb(0%,0%,0%);stroke-opacity:1;stroke-miterlimit:10;" d="M 61.950221 59.724809 L 56.694052 62.761881 L 51.437882 59.724809 L 51.437882 53.662407 L 56.694052 50.625335 L 61.950221 53.662407 Z M 61.950221 59.724809 " transform="matrix(0.998083,0,0,-0.998083,7.887284,278.403288)"/>
<path style="fill:none;stroke-width:0.3985;stroke-linecap:butt;stroke-linejoin:miter;stroke:rgb(0%,0%,0%);stroke-opacity:1;stroke-miterlimit:10;" d="M 77.131667 74.48357 L 70.86575 78.099877 L 64.603746 74.48357 L 64.603746 67.250955 L 70.86575 63.634648 L 77.131667 67.250955 Z M 77.131667 74.48357 " transform="matrix(0.998083,0,0,-0.998083,7.887284,278.403288)"/>
<path style="fill:none;stroke-width:0.3985;stroke-linecap:butt;stroke-linejoin:miter;stroke:rgb(0%,0%,0%);stroke-opacity:1;stroke-miterlimit:10;" d="M 61.950221 88.072119 L 56.694052 91.109191 L 51.437882 88.072119 L 51.437882 82.005802 L 56.694052 78.972644 L 61.950221 82.005802 Z M 61.950221 88.072119 " transform="matrix(0.998083,0,0,-0.998083,7.887284,278.403288)"/>
<path style="fill:none;stroke-width:0.3985;stroke-linecap:butt;stroke-linejoin:miter;stroke:rgb(0%,0%,0%);stroke-opacity:1;stroke-miterlimit:10;" d="M 77.131667 102.830879 L 70.86575 106.447187 L 64.603746 102.830879 L 64.603746 95.598265 L 70.86575 91.978044 L 77.131667 95.598265 Z M 77.131667 102.830879 " transform="matrix(0.998083,0,0,-0.998083,7.887284,278.403288)"/>
<path style="fill:none;stroke-width:0.3985;stroke-linecap:butt;stroke-linejoin:miter;stroke:rgb(0%,0%,0%);stroke-opacity:1;stroke-miterlimit:10;" d="M 61.950221 116.419428 L 56.694052 119.4565 L 51.437882 116.419428 L 51.437882 110.353112 L 56.694052 107.319953 L 61.950221 110.353112 Z M 61.950221 116.419428 " transform="matrix(0.998083,0,0,-0.998083,7.887284,278.403288)"/>
<path style="fill:none;stroke-width:0.3985;stroke-linecap:butt;stroke-linejoin:miter;stroke:rgb(0%,0%,0%);stroke-opacity:1;stroke-miterlimit:10;" d="M 77.131667 131.178189 L 70.86575 134.794496 L 64.603746 131.178189 L 64.603746 123.945574 L 70.86575 120.325353 L 77.131667 123.945574 Z M 77.131667 131.178189 " transform="matrix(0.998083,0,0,-0.998083,7.887284,278.403288)"/>
<path style="fill:none;stroke-width:0.3985;stroke-linecap:butt;stroke-linejoin:miter;stroke:rgb(0%,0%,0%);stroke-opacity:1;stroke-miterlimit:10;" d="M 61.950221 144.766737 L 56.694052 147.803809 L 51.437882 144.766737 L 51.437882 138.700421 L 56.694052 135.663349 L 61.950221 138.700421 Z M 61.950221 144.766737 " transform="matrix(0.998083,0,0,-0.998083,7.887284,278.403288)"/>
<path style="fill:none;stroke-width:0.3985;stroke-linecap:butt;stroke-linejoin:miter;stroke:rgb(0%,0%,0%);stroke-opacity:1;stroke-miterlimit:10;" d="M 77.131667 159.525498 L 70.86575 163.141805 L 64.603746 159.525498 L 64.603746 152.28897 L 70.86575 148.672662 L 77.131667 152.28897 Z M 77.131667 159.525498 " transform="matrix(0.998083,0,0,-0.998083,7.887284,278.403288)"/>
<path style="fill:none;stroke-width:0.3985;stroke-linecap:butt;stroke-linejoin:miter;stroke:rgb(0%,0%,0%);stroke-opacity:1;stroke-miterlimit:10;" d="M 61.950221 173.114046 L 56.694052 176.151118 L 51.437882 173.114046 L 51.437882 167.04773 L 56.694052 164.010658 L 61.950221 167.04773 Z M 61.950221 173.114046 " transform="matrix(0.998083,0,0,-0.998083,7.887284,278.403288)"/>
<path style="fill:none;stroke-width:0.3985;stroke-linecap:butt;stroke-linejoin:miter;stroke:rgb(0%,0%,0%);stroke-opacity:1;stroke-miterlimit:10;" d="M 77.131667 187.872807 L 70.86575 191.489114 L 64.603746 187.872807 L 64.603746 180.636279 L 70.86575 177.019971 L 77.131667 180.636279 Z M 77.131667 187.872807 " transform="matrix(0.998083,0,0,-0.998083,7.887284,278.403288)"/>
<path style="fill:none;stroke-width:0.3985;stroke-linecap:butt;stroke-linejoin:miter;stroke:rgb(0%,0%,0%);stroke-opacity:1;stroke-miterlimit:10;" d="M 61.950221 201.461356 L 56.694052 204.498428 L 51.437882 201.461356 L 51.437882 195.395039 L 56.694052 192.357967 L 61.950221 195.395039 Z M 61.950221 201.461356 " transform="matrix(0.998083,0,0,-0.998083,7.887284,278.403288)"/>
<path style="fill:none;stroke-width:0.3985;stroke-linecap:butt;stroke-linejoin:miter;stroke:rgb(0%,0%,0%);stroke-opacity:1;stroke-miterlimit:10;" d="M 77.131667 216.216203 L 70.86575 219.836424 L 64.603746 216.216203 L 64.603746 208.983588 L 70.86575 205.367281 L 77.131667 208.983588 Z M 77.131667 216.216203 " transform="matrix(0.998083,0,0,-0.998083,7.887284,278.403288)"/>
<path style="fill:none;stroke-width:0.3985;stroke-linecap:butt;stroke-linejoin:miter;stroke:rgb(0%,0%,0%);stroke-opacity:1;stroke-miterlimit:10;" d="M 61.950221 229.808665 L 56.694052 232.841823 L 51.437882 229.808665 L 51.437882 223.742349 L 56.694052 220.705277 L 61.950221 223.742349 Z M 61.950221 229.808665 " transform="matrix(0.998083,0,0,-0.998083,7.887284,278.403288)"/>
<path style="fill:none;stroke-width:0.3985;stroke-linecap:butt;stroke-linejoin:miter;stroke:rgb(0%,0%,0%);stroke-opacity:1;stroke-miterlimit:10;" d="M 77.131667 244.563512 L 70.86575 248.183733 L 64.603746 244.563512 L 64.603746 237.330897 L 70.86575 233.71459 L 77.131667 237.330897 Z M 77.131667 244.563512 " transform="matrix(0.998083,0,0,-0.998083,7.887284,278.403288)"/>
<path style="fill:none;stroke-width:0.3985;stroke-linecap:butt;stroke-linejoin:miter;stroke:rgb(0%,0%,0%);stroke-opacity:1;stroke-miterlimit:10;" d="M 61.950221 258.155974 L 56.694052 261.189132 L 51.437882 258.155974 L 51.437882 252.089658 L 56.694052 249.052586 L 61.950221 252.089658 Z M 61.950221 258.155974 " transform="matrix(0.998083,0,0,-0.998083,7.887284,278.403288)"/>
<path style="fill:none;stroke-width:0.3985;stroke-linecap:butt;stroke-linejoin:miter;stroke:rgb(0%,0%,0%);stroke-opacity:1;stroke-miterlimit:10;" d="M 77.131667 272.910821 L 70.86575 276.527128 L 64.603746 272.910821 L 64.603746 265.678207 L 70.86575 262.061899 L 77.131667 265.678207 Z M 77.131667 272.910821 " transform="matrix(0.998083,0,0,-0.998083,7.887284,278.403288)"/>
<g clip-path="url(#clip-1732452203364021-3)" clip-rule="nonzero">
<path style="fill:none;stroke-width:0.3985;stroke-linecap:butt;stroke-linejoin:miter;stroke:rgb(0%,0%,0%);stroke-opacity:1;stroke-miterlimit:10;" d="M 92.121339 4.090818 L 85.041361 8.176775 L 77.957469 4.090818 L 77.957469 -4.088925 L 85.041361 -8.178796 L 92.121339 -4.088925 Z M 92.121339 4.090818 " transform="matrix(0.998083,0,0,-0.998083,7.887284,278.403288)"/>
</g>
<path style="fill:none;stroke-width:0.3985;stroke-linecap:butt;stroke-linejoin:miter;stroke:rgb(0%,0%,0%);stroke-opacity:1;stroke-miterlimit:10;" d="M 106.899669 18.61084 L 99.213059 23.049035 L 91.530363 18.61084 L 91.530363 9.738363 L 99.213059 5.296254 L 106.899669 9.738363 Z M 106.899669 18.61084 " transform="matrix(0.998083,0,0,-0.998083,7.887284,278.403288)"/>
<path style="fill:none;stroke-width:0.3985;stroke-linecap:butt;stroke-linejoin:miter;stroke:rgb(0%,0%,0%);stroke-opacity:1;stroke-miterlimit:10;" d="M 92.121339 32.438127 L 85.041361 36.524085 L 77.957469 32.438127 L 77.957469 24.254471 L 85.041361 20.168513 L 92.121339 24.254471 Z M 92.121339 32.438127 " transform="matrix(0.998083,0,0,-0.998083,7.887284,278.403288)"/>
<path style="fill:none;stroke-width:0.3985;stroke-linecap:butt;stroke-linejoin:miter;stroke:rgb(0%,0%,0%);stroke-opacity:1;stroke-miterlimit:10;" d="M 106.899669 46.958149 L 99.213059 51.396344 L 91.530363 46.958149 L 91.530363 38.085672 L 99.213059 33.643563 L 106.899669 38.085672 Z M 106.899669 46.958149 " transform="matrix(0.998083,0,0,-0.998083,7.887284,278.403288)"/>
<path style="fill:none;stroke-width:0.3985;stroke-linecap:butt;stroke-linejoin:miter;stroke:rgb(0%,0%,0%);stroke-opacity:1;stroke-miterlimit:10;" d="M 92.121339 60.785436 L 85.041361 64.871394 L 77.957469 60.785436 L 77.957469 52.60178 L 85.041361 48.515822 L 92.121339 52.60178 Z M 92.121339 60.785436 " transform="matrix(0.998083,0,0,-0.998083,7.887284,278.403288)"/>
<path style="fill:none;stroke-width:0.3985;stroke-linecap:butt;stroke-linejoin:miter;stroke:rgb(0%,0%,0%);stroke-opacity:1;stroke-miterlimit:10;" d="M 106.899669 75.301544 L 99.213059 79.743653 L 91.530363 75.301544 L 91.530363 66.429067 L 99.213059 61.990872 L 106.899669 66.429067 Z M 106.899669 75.301544 " transform="matrix(0.998083,0,0,-0.998083,7.887284,278.403288)"/>
<path style="fill:none;stroke-width:0.3985;stroke-linecap:butt;stroke-linejoin:miter;stroke:rgb(0%,0%,0%);stroke-opacity:1;stroke-miterlimit:10;" d="M 92.121339 89.132746 L 85.041361 93.218703 L 77.957469 89.132746 L 77.957469 80.949089 L 85.041361 76.863132 L 92.121339 80.949089 Z M 92.121339 89.132746 " transform="matrix(0.998083,0,0,-0.998083,7.887284,278.403288)"/>
<path style="fill:none;stroke-width:0.3985;stroke-linecap:butt;stroke-linejoin:miter;stroke:rgb(0%,0%,0%);stroke-opacity:1;stroke-miterlimit:10;" d="M 106.899669 103.648854 L 99.213059 108.090963 L 91.530363 103.648854 L 91.530363 94.776377 L 99.213059 90.338181 L 106.899669 94.776377 Z M 106.899669 103.648854 " transform="matrix(0.998083,0,0,-0.998083,7.887284,278.403288)"/>
<path style="fill:none;stroke-width:0.3985;stroke-linecap:butt;stroke-linejoin:miter;stroke:rgb(0%,0%,0%);stroke-opacity:1;stroke-miterlimit:10;" d="M 92.121339 117.476141 L 85.041361 121.566012 L 77.957469 117.476141 L 77.957469 109.296398 L 85.041361 105.210441 L 92.121339 109.296398 Z M 92.121339 117.476141 " transform="matrix(0.998083,0,0,-0.998083,7.887284,278.403288)"/>
<path style="fill:none;stroke-width:0.3985;stroke-linecap:butt;stroke-linejoin:miter;stroke:rgb(0%,0%,0%);stroke-opacity:1;stroke-miterlimit:10;" d="M 106.899669 131.996163 L 99.213059 136.434358 L 91.530363 131.996163 L 91.530363 123.123686 L 99.213059 118.685491 L 106.899669 123.123686 Z M 106.899669 131.996163 " transform="matrix(0.998083,0,0,-0.998083,7.887284,278.403288)"/>
<path style="fill:none;stroke-width:0.3985;stroke-linecap:butt;stroke-linejoin:miter;stroke:rgb(0%,0%,0%);stroke-opacity:1;stroke-miterlimit:10;" d="M 92.121339 145.82345 L 85.041361 149.913322 L 77.957469 145.82345 L 77.957469 137.643708 L 85.041361 133.55775 L 92.121339 137.643708 Z M 92.121339 145.82345 " transform="matrix(0.998083,0,0,-0.998083,7.887284,278.403288)"/>
<path style="fill:none;stroke-width:0.3985;stroke-linecap:butt;stroke-linejoin:miter;stroke:rgb(0%,0%,0%);stroke-opacity:1;stroke-miterlimit:10;" d="M 106.899669 160.343472 L 99.213059 164.781667 L 91.530363 160.343472 L 91.530363 151.470995 L 99.213059 147.0328 L 106.899669 151.470995 Z M 106.899669 160.343472 " transform="matrix(0.998083,0,0,-0.998083,7.887284,278.403288)"/>
<path style="fill:none;stroke-width:0.3985;stroke-linecap:butt;stroke-linejoin:miter;stroke:rgb(0%,0%,0%);stroke-opacity:1;stroke-miterlimit:10;" d="M 92.121339 174.17076 L 85.041361 178.260631 L 77.957469 174.17076 L 77.957469 165.991017 L 85.041361 161.901146 L 92.121339 165.991017 Z M 92.121339 174.17076 " transform="matrix(0.998083,0,0,-0.998083,7.887284,278.403288)"/>
<path style="fill:none;stroke-width:0.3985;stroke-linecap:butt;stroke-linejoin:miter;stroke:rgb(0%,0%,0%);stroke-opacity:1;stroke-miterlimit:10;" d="M 106.899669 188.690781 L 99.213059 193.128977 L 91.530363 188.690781 L 91.530363 179.818305 L 99.213059 175.380109 L 106.899669 179.818305 Z M 106.899669 188.690781 " transform="matrix(0.998083,0,0,-0.998083,7.887284,278.403288)"/>
<path style="fill:none;stroke-width:0.3985;stroke-linecap:butt;stroke-linejoin:miter;stroke:rgb(0%,0%,0%);stroke-opacity:1;stroke-miterlimit:10;" d="M 92.121339 202.518069 L 85.041361 206.604027 L 77.957469 202.518069 L 77.957469 194.338326 L 85.041361 190.248455 L 92.121339 194.338326 Z M 92.121339 202.518069 " transform="matrix(0.998083,0,0,-0.998083,7.887284,278.403288)"/>
<path style="fill:none;stroke-width:0.3985;stroke-linecap:butt;stroke-linejoin:miter;stroke:rgb(0%,0%,0%);stroke-opacity:1;stroke-miterlimit:10;" d="M 106.899669 217.038091 L 99.213059 221.476286 L 91.530363 217.038091 L 91.530363 208.165614 L 99.213059 203.727418 L 106.899669 208.165614 Z M 106.899669 217.038091 " transform="matrix(0.998083,0,0,-0.998083,7.887284,278.403288)"/>
<path style="fill:none;stroke-width:0.3985;stroke-linecap:butt;stroke-linejoin:miter;stroke:rgb(0%,0%,0%);stroke-opacity:1;stroke-miterlimit:10;" d="M 92.121339 230.865378 L 85.041361 234.951336 L 77.957469 230.865378 L 77.957469 222.685635 L 85.041361 218.595764 L 92.121339 222.685635 Z M 92.121339 230.865378 " transform="matrix(0.998083,0,0,-0.998083,7.887284,278.403288)"/>
<path style="fill:none;stroke-width:0.3985;stroke-linecap:butt;stroke-linejoin:miter;stroke:rgb(0%,0%,0%);stroke-opacity:1;stroke-miterlimit:10;" d="M 106.899669 245.3854 L 99.213059 249.823595 L 91.530363 245.3854 L 91.530363 236.512923 L 99.213059 232.070814 L 106.899669 236.512923 Z M 106.899669 245.3854 " transform="matrix(0.998083,0,0,-0.998083,7.887284,278.403288)"/>
<path style="fill:none;stroke-width:0.3985;stroke-linecap:butt;stroke-linejoin:miter;stroke:rgb(0%,0%,0%);stroke-opacity:1;stroke-miterlimit:10;" d="M 92.121339 259.212687 L 85.041361 263.298645 L 77.957469 259.212687 L 77.957469 251.029031 L 85.041361 246.943073 L 92.121339 251.029031 Z M 92.121339 259.212687 " transform="matrix(0.998083,0,0,-0.998083,7.887284,278.403288)"/>
<path style="fill:none;stroke-width:0.3985;stroke-linecap:butt;stroke-linejoin:miter;stroke:rgb(0%,0%,0%);stroke-opacity:1;stroke-miterlimit:10;" d="M 106.899669 273.732709 L 99.213059 278.170905 L 91.530363 273.732709 L 91.530363 264.860232 L 99.213059 260.418123 L 106.899669 264.860232 Z M 106.899669 273.732709 " transform="matrix(0.998083,0,0,-0.998083,7.887284,278.403288)"/>
<g clip-path="url(#clip-1732452203364021-4)" clip-rule="nonzero">
<path style="fill:none;stroke-width:0.3985;stroke-linecap:butt;stroke-linejoin:miter;stroke:rgb(0%,0%,0%);stroke-opacity:1;stroke-miterlimit:10;" d="M 121.443173 4.650484 L 113.38867 9.303936 L 105.330254 4.650484 L 105.330254 -4.652505 L 113.38867 -9.302043 L 121.443173 -4.652505 Z M 121.443173 4.650484 " transform="matrix(0.998083,0,0,-0.998083,7.887284,278.403288)"/>
</g>
<path style="fill:none;stroke-width:0.3985;stroke-linecap:butt;stroke-linejoin:miter;stroke:rgb(0%,0%,0%);stroke-opacity:1;stroke-miterlimit:10;" d="M 135.744025 18.900457 L 127.560368 23.620443 L 119.376712 18.900457 L 119.376712 9.448745 L 127.560368 4.724846 L 135.744025 9.448745 Z M 135.744025 18.900457 " transform="matrix(0.998083,0,0,-0.998083,7.887284,278.403288)"/>
<path style="fill:none;stroke-width:0.3985;stroke-linecap:butt;stroke-linejoin:miter;stroke:rgb(0%,0%,0%);stroke-opacity:1;stroke-miterlimit:10;" d="M 121.443173 32.997794 L 113.38867 37.651245 L 105.330254 32.997794 L 105.330254 23.694804 L 113.38867 19.045266 L 121.443173 23.694804 Z M 121.443173 32.997794 " transform="matrix(0.998083,0,0,-0.998083,7.887284,278.403288)"/>
<path style="fill:none;stroke-width:0.3985;stroke-linecap:butt;stroke-linejoin:miter;stroke:rgb(0%,0%,0%);stroke-opacity:1;stroke-miterlimit:10;" d="M 135.744025 47.243853 L 127.560368 51.967752 L 119.376712 47.243853 L 119.376712 37.796054 L 127.560368 33.072155 L 135.744025 37.796054 Z M 135.744025 47.243853 " transform="matrix(0.998083,0,0,-0.998083,7.887284,278.403288)"/>
<path style="fill:none;stroke-width:0.3985;stroke-linecap:butt;stroke-linejoin:miter;stroke:rgb(0%,0%,0%);stroke-opacity:1;stroke-miterlimit:10;" d="M 121.443173 61.345103 L 113.38867 65.998555 L 105.330254 61.345103 L 105.330254 52.042113 L 113.38867 47.388662 L 121.443173 52.042113 Z M 121.443173 61.345103 " transform="matrix(0.998083,0,0,-0.998083,7.887284,278.403288)"/>
<path style="fill:none;stroke-width:0.3985;stroke-linecap:butt;stroke-linejoin:miter;stroke:rgb(0%,0%,0%);stroke-opacity:1;stroke-miterlimit:10;" d="M 135.744025 75.591162 L 127.560368 80.315061 L 119.376712 75.591162 L 119.376712 66.143364 L 127.560368 61.419464 L 135.744025 66.143364 Z M 135.744025 75.591162 " transform="matrix(0.998083,0,0,-0.998083,7.887284,278.403288)"/>
<path style="fill:none;stroke-width:0.3985;stroke-linecap:butt;stroke-linejoin:miter;stroke:rgb(0%,0%,0%);stroke-opacity:1;stroke-miterlimit:10;" d="M 121.443173 89.692412 L 113.38867 94.34195 L 105.330254 89.692412 L 105.330254 80.389423 L 113.38867 75.735971 L 121.443173 80.389423 Z M 121.443173 89.692412 " transform="matrix(0.998083,0,0,-0.998083,7.887284,278.403288)"/>
<path style="fill:none;stroke-width:0.3985;stroke-linecap:butt;stroke-linejoin:miter;stroke:rgb(0%,0%,0%);stroke-opacity:1;stroke-miterlimit:10;" d="M 135.744025 103.938471 L 127.560368 108.662371 L 119.376712 103.938471 L 119.376712 94.486759 L 127.560368 89.766774 L 135.744025 94.486759 Z M 135.744025 103.938471 " transform="matrix(0.998083,0,0,-0.998083,7.887284,278.403288)"/>
<path style="fill:none;stroke-width:0.3985;stroke-linecap:butt;stroke-linejoin:miter;stroke:rgb(0%,0%,0%);stroke-opacity:1;stroke-miterlimit:10;" d="M 121.443173 118.039721 L 113.38867 122.689259 L 105.330254 118.039721 L 105.330254 108.736732 L 113.38867 104.08328 L 121.443173 108.736732 Z M 121.443173 118.039721 " transform="matrix(0.998083,0,0,-0.998083,7.887284,278.403288)"/>
<path style="fill:none;stroke-width:0.3985;stroke-linecap:butt;stroke-linejoin:miter;stroke:rgb(0%,0%,0%);stroke-opacity:1;stroke-miterlimit:10;" d="M 135.744025 132.285781 L 127.560368 137.00968 L 119.376712 132.285781 L 119.376712 122.834068 L 127.560368 118.114083 L 135.744025 122.834068 Z M 135.744025 132.285781 " transform="matrix(0.998083,0,0,-0.998083,7.887284,278.403288)"/>
<path style="fill:none;stroke-width:0.3985;stroke-linecap:butt;stroke-linejoin:miter;stroke:rgb(0%,0%,0%);stroke-opacity:1;stroke-miterlimit:10;" d="M 121.443173 146.387031 L 113.38867 151.036569 L 105.330254 146.387031 L 105.330254 137.084041 L 113.38867 132.430589 L 121.443173 137.084041 Z M 121.443173 146.387031 " transform="matrix(0.998083,0,0,-0.998083,7.887284,278.403288)"/>
<path style="fill:none;stroke-width:0.3985;stroke-linecap:butt;stroke-linejoin:miter;stroke:rgb(0%,0%,0%);stroke-opacity:1;stroke-miterlimit:10;" d="M 135.744025 160.63309 L 127.560368 165.356989 L 119.376712 160.63309 L 119.376712 151.181378 L 127.560368 146.461392 L 135.744025 151.181378 Z M 135.744025 160.63309 " transform="matrix(0.998083,0,0,-0.998083,7.887284,278.403288)"/>
<path style="fill:none;stroke-width:0.3985;stroke-linecap:butt;stroke-linejoin:miter;stroke:rgb(0%,0%,0%);stroke-opacity:1;stroke-miterlimit:10;" d="M 121.443173 174.730426 L 113.38867 179.383878 L 105.330254 174.730426 L 105.330254 165.427437 L 113.38867 160.777899 L 121.443173 165.427437 Z M 121.443173 174.730426 " transform="matrix(0.998083,0,0,-0.998083,7.887284,278.403288)"/>
<path style="fill:none;stroke-width:0.3985;stroke-linecap:butt;stroke-linejoin:miter;stroke:rgb(0%,0%,0%);stroke-opacity:1;stroke-miterlimit:10;" d="M 135.744025 188.980399 L 127.560368 193.700385 L 119.376712 188.980399 L 119.376712 179.528687 L 127.560368 174.804788 L 135.744025 179.528687 Z M 135.744025 188.980399 " transform="matrix(0.998083,0,0,-0.998083,7.887284,278.403288)"/>
<path style="fill:none;stroke-width:0.3985;stroke-linecap:butt;stroke-linejoin:miter;stroke:rgb(0%,0%,0%);stroke-opacity:1;stroke-miterlimit:10;" d="M 121.443173 203.077736 L 113.38867 207.731187 L 105.330254 203.077736 L 105.330254 193.774746 L 113.38867 189.125208 L 121.443173 193.774746 Z M 121.443173 203.077736 " transform="matrix(0.998083,0,0,-0.998083,7.887284,278.403288)"/>
<path style="fill:none;stroke-width:0.3985;stroke-linecap:butt;stroke-linejoin:miter;stroke:rgb(0%,0%,0%);stroke-opacity:1;stroke-miterlimit:10;" d="M 135.744025 217.327708 L 127.560368 222.047694 L 119.376712 217.327708 L 119.376712 207.875996 L 127.560368 203.152097 L 135.744025 207.875996 Z M 135.744025 217.327708 " transform="matrix(0.998083,0,0,-0.998083,7.887284,278.403288)"/>
<path style="fill:none;stroke-width:0.3985;stroke-linecap:butt;stroke-linejoin:miter;stroke:rgb(0%,0%,0%);stroke-opacity:1;stroke-miterlimit:10;" d="M 121.443173 231.425045 L 113.38867 236.078497 L 105.330254 231.425045 L 105.330254 222.122055 L 113.38867 217.472517 L 121.443173 222.122055 Z M 121.443173 231.425045 " transform="matrix(0.998083,0,0,-0.998083,7.887284,278.403288)"/>
<path style="fill:none;stroke-width:0.3985;stroke-linecap:butt;stroke-linejoin:miter;stroke:rgb(0%,0%,0%);stroke-opacity:1;stroke-miterlimit:10;" d="M 135.744025 245.675018 L 127.560368 250.395003 L 119.376712 245.675018 L 119.376712 236.223305 L 127.560368 231.499406 L 135.744025 236.223305 Z M 135.744025 245.675018 " transform="matrix(0.998083,0,0,-0.998083,7.887284,278.403288)"/>
<path style="fill:none;stroke-width:0.3985;stroke-linecap:butt;stroke-linejoin:miter;stroke:rgb(0%,0%,0%);stroke-opacity:1;stroke-miterlimit:10;" d="M 121.443173 259.772354 L 113.38867 264.425806 L 105.330254 259.772354 L 105.330254 250.469364 L 113.38867 245.815913 L 121.443173 250.469364 Z M 121.443173 259.772354 " transform="matrix(0.998083,0,0,-0.998083,7.887284,278.403288)"/>
<path style="fill:none;stroke-width:0.3985;stroke-linecap:butt;stroke-linejoin:miter;stroke:rgb(0%,0%,0%);stroke-opacity:1;stroke-miterlimit:10;" d="M 135.744025 274.018413 L 127.560368 278.742312 L 119.376712 274.018413 L 119.376712 264.570615 L 127.560368 259.846715 L 135.744025 264.570615 Z M 135.744025 274.018413 " transform="matrix(0.998083,0,0,-0.998083,7.887284,278.403288)"/>
<g clip-path="url(#clip-1732452203364021-5)" clip-rule="nonzero">
<path style="fill:none;stroke-width:0.3985;stroke-linecap:butt;stroke-linejoin:miter;stroke:rgb(0%,0%,0%);stroke-opacity:1;stroke-miterlimit:10;" d="M 149.794396 4.654398 L 141.73598 9.30785 L 133.673649 4.654398 L 133.673649 -4.656419 L 141.73598 -9.309871 L 149.794396 -4.656419 Z M 149.794396 4.654398 " transform="matrix(0.998083,0,0,-0.998083,7.887284,278.403288)"/>
</g>
<path style="fill:none;stroke-width:0.3985;stroke-linecap:butt;stroke-linejoin:miter;stroke:rgb(0%,0%,0%);stroke-opacity:1;stroke-miterlimit:10;" d="M 163.602115 18.614753 L 155.907677 23.056862 L 148.21324 18.614753 L 148.21324 9.730535 L 155.907677 5.288426 L 163.602115 9.730535 Z M 163.602115 18.614753 " transform="matrix(0.998083,0,0,-0.998083,7.887284,278.403288)"/>
<path style="fill:none;stroke-width:0.3985;stroke-linecap:butt;stroke-linejoin:miter;stroke:rgb(0%,0%,0%);stroke-opacity:1;stroke-miterlimit:10;" d="M 149.794396 33.001707 L 141.73598 37.655159 L 133.673649 33.001707 L 133.673649 23.69089 L 141.73598 19.037439 L 149.794396 23.69089 Z M 149.794396 33.001707 " transform="matrix(0.998083,0,0,-0.998083,7.887284,278.403288)"/>
<path style="fill:none;stroke-width:0.3985;stroke-linecap:butt;stroke-linejoin:miter;stroke:rgb(0%,0%,0%);stroke-opacity:1;stroke-miterlimit:10;" d="M 163.602115 46.962063 L 155.907677 51.404172 L 148.21324 46.962063 L 148.21324 38.077844 L 155.907677 33.635735 L 163.602115 38.077844 Z M 163.602115 46.962063 " transform="matrix(0.998083,0,0,-0.998083,7.887284,278.403288)"/>
<path style="fill:none;stroke-width:0.3985;stroke-linecap:butt;stroke-linejoin:miter;stroke:rgb(0%,0%,0%);stroke-opacity:1;stroke-miterlimit:10;" d="M 149.794396 61.349017 L 141.73598 66.002468 L 133.673649 61.349017 L 133.673649 52.0382 L 141.73598 47.384748 L 149.794396 52.0382 Z M 149.794396 61.349017 " transform="matrix(0.998083,0,0,-0.998083,7.887284,278.403288)"/>
<path style="fill:none;stroke-width:0.3985;stroke-linecap:butt;stroke-linejoin:miter;stroke:rgb(0%,0%,0%);stroke-opacity:1;stroke-miterlimit:10;" d="M 163.602115 75.309372 L 155.907677 79.751481 L 148.21324 75.309372 L 148.21324 66.425154 L 155.907677 61.983045 L 163.602115 66.425154 Z M 163.602115 75.309372 " transform="matrix(0.998083,0,0,-0.998083,7.887284,278.403288)"/>
<path style="fill:none;stroke-width:0.3985;stroke-linecap:butt;stroke-linejoin:miter;stroke:rgb(0%,0%,0%);stroke-opacity:1;stroke-miterlimit:10;" d="M 149.794396 89.696326 L 141.73598 94.349778 L 133.673649 89.696326 L 133.673649 80.385509 L 141.73598 75.732057 L 149.794396 80.385509 Z M 149.794396 89.696326 " transform="matrix(0.998083,0,0,-0.998083,7.887284,278.403288)"/>
<path style="fill:none;stroke-width:0.3985;stroke-linecap:butt;stroke-linejoin:miter;stroke:rgb(0%,0%,0%);stroke-opacity:1;stroke-miterlimit:10;" d="M 163.602115 103.656681 L 155.907677 108.09879 L 148.21324 103.656681 L 148.21324 94.772463 L 155.907677 90.330354 L 163.602115 94.772463 Z M 163.602115 103.656681 " transform="matrix(0.998083,0,0,-0.998083,7.887284,278.403288)"/>
<path style="fill:none;stroke-width:0.3985;stroke-linecap:butt;stroke-linejoin:miter;stroke:rgb(0%,0%,0%);stroke-opacity:1;stroke-miterlimit:10;" d="M 149.794396 118.043635 L 141.73598 122.697087 L 133.673649 118.043635 L 133.673649 108.732818 L 141.73598 104.079366 L 149.794396 108.732818 Z M 149.794396 118.043635 " transform="matrix(0.998083,0,0,-0.998083,7.887284,278.403288)"/>
<path style="fill:none;stroke-width:0.3985;stroke-linecap:butt;stroke-linejoin:miter;stroke:rgb(0%,0%,0%);stroke-opacity:1;stroke-miterlimit:10;" d="M 163.602115 132.00399 L 155.907677 136.446099 L 148.21324 132.00399 L 148.21324 123.119772 L 155.907677 118.677663 L 163.602115 123.119772 Z M 163.602115 132.00399 " transform="matrix(0.998083,0,0,-0.998083,7.887284,278.403288)"/>
<path style="fill:none;stroke-width:0.3985;stroke-linecap:butt;stroke-linejoin:miter;stroke:rgb(0%,0%,0%);stroke-opacity:1;stroke-miterlimit:10;" d="M 149.794396 146.387031 L 141.73598 151.044396 L 133.673649 146.387031 L 133.673649 137.080127 L 141.73598 132.426676 L 149.794396 137.080127 Z M 149.794396 146.387031 " transform="matrix(0.998083,0,0,-0.998083,7.887284,278.403288)"/>
<path style="fill:none;stroke-width:0.3985;stroke-linecap:butt;stroke-linejoin:miter;stroke:rgb(0%,0%,0%);stroke-opacity:1;stroke-miterlimit:10;" d="M 163.602115 160.347386 L 155.907677 164.789495 L 148.21324 160.347386 L 148.21324 151.467081 L 155.907677 147.024972 L 163.602115 151.467081 Z M 163.602115 160.347386 " transform="matrix(0.998083,0,0,-0.998083,7.887284,278.403288)"/>
<path style="fill:none;stroke-width:0.3985;stroke-linecap:butt;stroke-linejoin:miter;stroke:rgb(0%,0%,0%);stroke-opacity:1;stroke-miterlimit:10;" d="M 149.794396 174.73434 L 141.73598 179.391705 L 133.673649 174.73434 L 133.673649 165.427437 L 141.73598 160.770071 L 149.794396 165.427437 Z M 149.794396 174.73434 " transform="matrix(0.998083,0,0,-0.998083,7.887284,278.403288)"/>
<path style="fill:none;stroke-width:0.3985;stroke-linecap:butt;stroke-linejoin:miter;stroke:rgb(0%,0%,0%);stroke-opacity:1;stroke-miterlimit:10;" d="M 163.602115 188.694695 L 155.907677 193.136804 L 148.21324 188.694695 L 148.21324 179.814391 L 155.907677 175.372282 L 163.602115 179.814391 Z M 163.602115 188.694695 " transform="matrix(0.998083,0,0,-0.998083,7.887284,278.403288)"/>
<path style="fill:none;stroke-width:0.3985;stroke-linecap:butt;stroke-linejoin:miter;stroke:rgb(0%,0%,0%);stroke-opacity:1;stroke-miterlimit:10;" d="M 149.794396 203.081649 L 141.73598 207.735101 L 133.673649 203.081649 L 133.673649 193.774746 L 141.73598 189.11738 L 149.794396 193.774746 Z M 149.794396 203.081649 " transform="matrix(0.998083,0,0,-0.998083,7.887284,278.403288)"/>
<path style="fill:none;stroke-width:0.3985;stroke-linecap:butt;stroke-linejoin:miter;stroke:rgb(0%,0%,0%);stroke-opacity:1;stroke-miterlimit:10;" d="M 163.602115 217.042004 L 155.907677 221.484113 L 148.21324 217.042004 L 148.21324 208.157786 L 155.907677 203.715677 L 163.602115 208.157786 Z M 163.602115 217.042004 " transform="matrix(0.998083,0,0,-0.998083,7.887284,278.403288)"/>
<path style="fill:none;stroke-width:0.3985;stroke-linecap:butt;stroke-linejoin:miter;stroke:rgb(0%,0%,0%);stroke-opacity:1;stroke-miterlimit:10;" d="M 149.794396 231.428959 L 141.73598 236.08241 L 133.673649 231.428959 L 133.673649 222.118141 L 141.73598 217.46469 L 149.794396 222.118141 Z M 149.794396 231.428959 " transform="matrix(0.998083,0,0,-0.998083,7.887284,278.403288)"/>
<path style="fill:none;stroke-width:0.3985;stroke-linecap:butt;stroke-linejoin:miter;stroke:rgb(0%,0%,0%);stroke-opacity:1;stroke-miterlimit:10;" d="M 163.602115 245.389314 L 155.907677 249.831423 L 148.21324 245.389314 L 148.21324 236.505096 L 155.907677 232.062986 L 163.602115 236.505096 Z M 163.602115 245.389314 " transform="matrix(0.998083,0,0,-0.998083,7.887284,278.403288)"/>
<path style="fill:none;stroke-width:0.3985;stroke-linecap:butt;stroke-linejoin:miter;stroke:rgb(0%,0%,0%);stroke-opacity:1;stroke-miterlimit:10;" d="M 149.794396 259.776268 L 141.73598 264.42972 L 133.673649 259.776268 L 133.673649 250.465451 L 141.73598 245.811999 L 149.794396 250.465451 Z M 149.794396 259.776268 " transform="matrix(0.998083,0,0,-0.998083,7.887284,278.403288)"/>
<path style="fill:none;stroke-width:0.3985;stroke-linecap:butt;stroke-linejoin:miter;stroke:rgb(0%,0%,0%);stroke-opacity:1;stroke-miterlimit:10;" d="M 163.602115 273.736623 L 155.907677 278.178732 L 148.21324 273.736623 L 148.21324 264.852405 L 155.907677 260.410296 L 163.602115 264.852405 Z M 163.602115 273.736623 " transform="matrix(0.998083,0,0,-0.998083,7.887284,278.403288)"/>
<g clip-path="url(#clip-1732452203364021-6)" clip-rule="nonzero">
<path style="fill:none;stroke-width:0.3985;stroke-linecap:butt;stroke-linejoin:miter;stroke:rgb(0%,0%,0%);stroke-opacity:1;stroke-miterlimit:10;" d="M 177.175008 4.094732 L 170.079375 8.19243 L 162.983742 4.094732 L 162.983742 -4.096752 L 170.079375 -8.190537 L 177.175008 -4.096752 Z M 177.175008 4.094732 " transform="matrix(0.998083,0,0,-0.998083,7.887284,278.403288)"/>
</g>
<path style="fill:none;stroke-width:0.3985;stroke-linecap:butt;stroke-linejoin:miter;stroke:rgb(0%,0%,0%);stroke-opacity:1;stroke-miterlimit:10;" d="M 190.536559 17.800693 L 184.254987 21.424828 L 177.973414 17.800693 L 177.973414 10.548509 L 184.254987 6.920461 L 190.536559 10.548509 Z M 190.536559 17.800693 " transform="matrix(0.998083,0,0,-0.998083,7.887284,278.403288)"/>
<path style="fill:none;stroke-width:0.3985;stroke-linecap:butt;stroke-linejoin:miter;stroke:rgb(0%,0%,0%);stroke-opacity:1;stroke-miterlimit:10;" d="M 177.175008 32.442041 L 170.079375 36.53974 L 162.983742 32.442041 L 162.983742 24.250557 L 170.079375 20.152858 L 177.175008 24.250557 Z M 177.175008 32.442041 " transform="matrix(0.998083,0,0,-0.998083,7.887284,278.403288)"/>
<path style="fill:none;stroke-width:0.3985;stroke-linecap:butt;stroke-linejoin:miter;stroke:rgb(0%,0%,0%);stroke-opacity:1;stroke-miterlimit:10;" d="M 190.536559 46.144088 L 184.254987 49.772137 L 177.973414 46.144088 L 177.973414 38.895819 L 184.254987 35.26777 L 190.536559 38.895819 Z M 190.536559 46.144088 " transform="matrix(0.998083,0,0,-0.998083,7.887284,278.403288)"/>
<path style="fill:none;stroke-width:0.3985;stroke-linecap:butt;stroke-linejoin:miter;stroke:rgb(0%,0%,0%);stroke-opacity:1;stroke-miterlimit:10;" d="M 177.175008 60.78935 L 170.079375 64.887049 L 162.983742 60.78935 L 162.983742 52.597866 L 170.079375 48.500167 L 177.175008 52.597866 Z M 177.175008 60.78935 " transform="matrix(0.998083,0,0,-0.998083,7.887284,278.403288)"/>
<path style="fill:none;stroke-width:0.3985;stroke-linecap:butt;stroke-linejoin:miter;stroke:rgb(0%,0%,0%);stroke-opacity:1;stroke-miterlimit:10;" d="M 190.536559 74.491398 L 184.254987 78.119446 L 177.973414 74.491398 L 177.973414 67.243128 L 184.254987 63.615079 L 190.536559 67.243128 Z M 190.536559 74.491398 " transform="matrix(0.998083,0,0,-0.998083,7.887284,278.403288)"/>
<path style="fill:none;stroke-width:0.3985;stroke-linecap:butt;stroke-linejoin:miter;stroke:rgb(0%,0%,0%);stroke-opacity:1;stroke-miterlimit:10;" d="M 177.175008 89.136659 L 170.079375 93.234358 L 162.983742 89.136659 L 162.983742 80.945175 L 170.079375 76.847477 L 177.175008 80.945175 Z M 177.175008 89.136659 " transform="matrix(0.998083,0,0,-0.998083,7.887284,278.403288)"/>
<path style="fill:none;stroke-width:0.3985;stroke-linecap:butt;stroke-linejoin:miter;stroke:rgb(0%,0%,0%);stroke-opacity:1;stroke-miterlimit:10;" d="M 190.536559 102.838707 L 184.254987 106.466755 L 177.973414 102.838707 L 177.973414 95.586523 L 184.254987 91.962389 L 190.536559 95.586523 Z M 190.536559 102.838707 " transform="matrix(0.998083,0,0,-0.998083,7.887284,278.403288)"/>
<path style="fill:none;stroke-width:0.3985;stroke-linecap:butt;stroke-linejoin:miter;stroke:rgb(0%,0%,0%);stroke-opacity:1;stroke-miterlimit:10;" d="M 177.175008 117.483969 L 170.079375 121.577754 L 162.983742 117.483969 L 162.983742 109.292485 L 170.079375 105.194786 L 177.175008 109.292485 Z M 177.175008 117.483969 " transform="matrix(0.998083,0,0,-0.998083,7.887284,278.403288)"/>
<path style="fill:none;stroke-width:0.3985;stroke-linecap:butt;stroke-linejoin:miter;stroke:rgb(0%,0%,0%);stroke-opacity:1;stroke-miterlimit:10;" d="M 190.536559 131.186016 L 184.254987 134.810151 L 177.973414 131.186016 L 177.973414 123.933833 L 184.254987 120.309698 L 190.536559 123.933833 Z M 190.536559 131.186016 " transform="matrix(0.998083,0,0,-0.998083,7.887284,278.403288)"/>
<path style="fill:none;stroke-width:0.3985;stroke-linecap:butt;stroke-linejoin:miter;stroke:rgb(0%,0%,0%);stroke-opacity:1;stroke-miterlimit:10;" d="M 177.175008 145.831278 L 170.079375 149.925063 L 162.983742 145.831278 L 162.983742 137.639794 L 170.079375 133.542095 L 177.175008 137.639794 Z M 177.175008 145.831278 " transform="matrix(0.998083,0,0,-0.998083,7.887284,278.403288)"/>
<path style="fill:none;stroke-width:0.3985;stroke-linecap:butt;stroke-linejoin:miter;stroke:rgb(0%,0%,0%);stroke-opacity:1;stroke-miterlimit:10;" d="M 190.536559 159.533325 L 184.254987 163.15746 L 177.973414 159.533325 L 177.973414 152.281142 L 184.254987 148.657007 L 190.536559 152.281142 Z M 190.536559 159.533325 " transform="matrix(0.998083,0,0,-0.998083,7.887284,278.403288)"/>
<path style="fill:none;stroke-width:0.3985;stroke-linecap:butt;stroke-linejoin:miter;stroke:rgb(0%,0%,0%);stroke-opacity:1;stroke-miterlimit:10;" d="M 177.175008 174.178587 L 170.079375 178.272372 L 162.983742 174.178587 L 162.983742 165.983189 L 170.079375 161.889404 L 177.175008 165.983189 Z M 177.175008 174.178587 " transform="matrix(0.998083,0,0,-0.998083,7.887284,278.403288)"/>
<path style="fill:none;stroke-width:0.3985;stroke-linecap:butt;stroke-linejoin:miter;stroke:rgb(0%,0%,0%);stroke-opacity:1;stroke-miterlimit:10;" d="M 190.536559 187.880635 L 184.254987 191.504769 L 177.973414 187.880635 L 177.973414 180.628451 L 184.254987 177.004316 L 190.536559 180.628451 Z M 190.536559 187.880635 " transform="matrix(0.998083,0,0,-0.998083,7.887284,278.403288)"/>
<path style="fill:none;stroke-width:0.3985;stroke-linecap:butt;stroke-linejoin:miter;stroke:rgb(0%,0%,0%);stroke-opacity:1;stroke-miterlimit:10;" d="M 177.175008 202.521983 L 170.079375 206.619682 L 162.983742 202.521983 L 162.983742 194.330499 L 170.079375 190.236714 L 177.175008 194.330499 Z M 177.175008 202.521983 " transform="matrix(0.998083,0,0,-0.998083,7.887284,278.403288)"/>
<path style="fill:none;stroke-width:0.3985;stroke-linecap:butt;stroke-linejoin:miter;stroke:rgb(0%,0%,0%);stroke-opacity:1;stroke-miterlimit:10;" d="M 190.536559 216.227944 L 184.254987 219.852079 L 177.973414 216.227944 L 177.973414 208.975761 L 184.254987 205.351626 L 190.536559 208.975761 Z M 190.536559 216.227944 " transform="matrix(0.998083,0,0,-0.998083,7.887284,278.403288)"/>
<path style="fill:none;stroke-width:0.3985;stroke-linecap:butt;stroke-linejoin:miter;stroke:rgb(0%,0%,0%);stroke-opacity:1;stroke-miterlimit:10;" d="M 177.175008 230.869292 L 170.079375 234.966991 L 162.983742 230.869292 L 162.983742 222.677808 L 170.079375 218.584023 L 177.175008 222.677808 Z M 177.175008 230.869292 " transform="matrix(0.998083,0,0,-0.998083,7.887284,278.403288)"/>
<path style="fill:none;stroke-width:0.3985;stroke-linecap:butt;stroke-linejoin:miter;stroke:rgb(0%,0%,0%);stroke-opacity:1;stroke-miterlimit:10;" d="M 190.536559 244.575253 L 184.254987 248.199388 L 177.973414 244.575253 L 177.973414 237.32307 L 184.254987 233.695021 L 190.536559 237.32307 Z M 190.536559 244.575253 " transform="matrix(0.998083,0,0,-0.998083,7.887284,278.403288)"/>
<path style="fill:none;stroke-width:0.3985;stroke-linecap:butt;stroke-linejoin:miter;stroke:rgb(0%,0%,0%);stroke-opacity:1;stroke-miterlimit:10;" d="M 177.175008 259.216601 L 170.079375 263.3143 L 162.983742 259.216601 L 162.983742 251.025117 L 170.079375 246.927418 L 177.175008 251.025117 Z M 177.175008 259.216601 " transform="matrix(0.998083,0,0,-0.998083,7.887284,278.403288)"/>
<path style="fill:none;stroke-width:0.3985;stroke-linecap:butt;stroke-linejoin:miter;stroke:rgb(0%,0%,0%);stroke-opacity:1;stroke-miterlimit:10;" d="M 190.536559 272.918649 L 184.254987 276.546697 L 177.973414 272.918649 L 177.973414 265.670379 L 184.254987 262.042331 L 190.536559 265.670379 Z M 190.536559 272.918649 " transform="matrix(0.998083,0,0,-0.998083,7.887284,278.403288)"/>
<g clip-path="url(#clip-1732452203364021-7)" clip-rule="nonzero">
<path style="fill:none;stroke-width:0.3985;stroke-linecap:butt;stroke-linejoin:miter;stroke:rgb(0%,0%,0%);stroke-opacity:1;stroke-miterlimit:10;" d="M 203.702423 3.045846 L 198.426684 6.090745 L 193.150946 3.045846 L 193.150946 -3.043953 L 198.426684 -6.092766 L 203.702423 -3.043953 Z M 203.702423 3.045846 " transform="matrix(0.998083,0,0,-0.998083,7.887284,278.403288)"/>
</g>
<path style="fill:none;stroke-width:0.3985;stroke-linecap:butt;stroke-linejoin:miter;stroke:rgb(0%,0%,0%);stroke-opacity:1;stroke-miterlimit:10;" d="M 216.711736 16.544378 L 212.602296 18.920026 L 208.488942 16.544378 L 208.488942 11.80091 L 212.602296 9.429176 L 216.711736 11.80091 Z M 216.711736 16.544378 " transform="matrix(0.998083,0,0,-0.998083,7.887284,278.403288)"/>
<path style="fill:none;stroke-width:0.3985;stroke-linecap:butt;stroke-linejoin:miter;stroke:rgb(0%,0%,0%);stroke-opacity:1;stroke-miterlimit:10;" d="M 203.702423 31.393155 L 198.426684 34.438055 L 193.150946 31.393155 L 193.150946 25.303356 L 198.426684 22.254543 L 203.702423 25.303356 Z M 203.702423 31.393155 " transform="matrix(0.998083,0,0,-0.998083,7.887284,278.403288)"/>
<path style="fill:none;stroke-width:0.3985;stroke-linecap:butt;stroke-linejoin:miter;stroke:rgb(0%,0%,0%);stroke-opacity:1;stroke-miterlimit:10;" d="M 216.711736 44.891687 L 212.602296 47.267335 L 208.488942 44.891687 L 208.488942 40.148219 L 212.602296 37.776485 L 216.711736 40.148219 Z M 216.711736 44.891687 " transform="matrix(0.998083,0,0,-0.998083,7.887284,278.403288)"/>
<path style="fill:none;stroke-width:0.3985;stroke-linecap:butt;stroke-linejoin:miter;stroke:rgb(0%,0%,0%);stroke-opacity:1;stroke-miterlimit:10;" d="M 203.702423 59.736551 L 198.426684 62.785364 L 193.150946 59.736551 L 193.150946 53.650666 L 198.426684 50.601852 L 203.702423 53.650666 Z M 203.702423 59.736551 " transform="matrix(0.998083,0,0,-0.998083,7.887284,278.403288)"/>
<path style="fill:none;stroke-width:0.3985;stroke-linecap:butt;stroke-linejoin:miter;stroke:rgb(0%,0%,0%);stroke-opacity:1;stroke-miterlimit:10;" d="M 216.711736 73.238997 L 212.602296 75.610731 L 208.488942 73.238997 L 208.488942 68.495529 L 212.602296 66.119881 L 216.711736 68.495529 Z M 216.711736 73.238997 " transform="matrix(0.998083,0,0,-0.998083,7.887284,278.403288)"/>
<path style="fill:none;stroke-width:0.3985;stroke-linecap:butt;stroke-linejoin:miter;stroke:rgb(0%,0%,0%);stroke-opacity:1;stroke-miterlimit:10;" d="M 203.702423 88.08386 L 198.426684 91.132673 L 193.150946 88.08386 L 193.150946 81.994061 L 198.426684 78.949162 L 203.702423 81.994061 Z M 203.702423 88.08386 " transform="matrix(0.998083,0,0,-0.998083,7.887284,278.403288)"/>
<path style="fill:none;stroke-width:0.3985;stroke-linecap:butt;stroke-linejoin:miter;stroke:rgb(0%,0%,0%);stroke-opacity:1;stroke-miterlimit:10;" d="M 216.711736 101.586306 L 212.602296 103.95804 L 208.488942 101.586306 L 208.488942 96.842838 L 212.602296 94.46719 L 216.711736 96.842838 Z M 216.711736 101.586306 " transform="matrix(0.998083,0,0,-0.998083,7.887284,278.403288)"/>
<path style="fill:none;stroke-width:0.3985;stroke-linecap:butt;stroke-linejoin:miter;stroke:rgb(0%,0%,0%);stroke-opacity:1;stroke-miterlimit:10;" d="M 203.702423 116.431169 L 198.426684 119.479982 L 193.150946 116.431169 L 193.150946 110.34137 L 198.426684 107.296471 L 203.702423 110.34137 Z M 203.702423 116.431169 " transform="matrix(0.998083,0,0,-0.998083,7.887284,278.403288)"/>
<path style="fill:none;stroke-width:0.3985;stroke-linecap:butt;stroke-linejoin:miter;stroke:rgb(0%,0%,0%);stroke-opacity:1;stroke-miterlimit:10;" d="M 216.711736 129.933615 L 212.602296 132.305349 L 208.488942 129.933615 L 208.488942 125.186234 L 212.602296 122.8145 L 216.711736 125.186234 Z M 216.711736 129.933615 " transform="matrix(0.998083,0,0,-0.998083,7.887284,278.403288)"/>
<path style="fill:none;stroke-width:0.3985;stroke-linecap:butt;stroke-linejoin:miter;stroke:rgb(0%,0%,0%);stroke-opacity:1;stroke-miterlimit:10;" d="M 203.702423 144.778478 L 198.426684 147.827292 L 193.150946 144.778478 L 193.150946 138.68868 L 198.426684 135.64378 L 203.702423 138.68868 Z M 203.702423 144.778478 " transform="matrix(0.998083,0,0,-0.998083,7.887284,278.403288)"/>
<path style="fill:none;stroke-width:0.3985;stroke-linecap:butt;stroke-linejoin:miter;stroke:rgb(0%,0%,0%);stroke-opacity:1;stroke-miterlimit:10;" d="M 216.711736 158.280925 L 212.602296 160.652659 L 208.488942 158.280925 L 208.488942 153.533543 L 212.602296 151.161809 L 216.711736 153.533543 Z M 216.711736 158.280925 " transform="matrix(0.998083,0,0,-0.998083,7.887284,278.403288)"/>
<path style="fill:none;stroke-width:0.3985;stroke-linecap:butt;stroke-linejoin:miter;stroke:rgb(0%,0%,0%);stroke-opacity:1;stroke-miterlimit:10;" d="M 203.702423 173.125788 L 198.426684 176.174601 L 193.150946 173.125788 L 193.150946 167.035989 L 198.426684 163.987176 L 203.702423 167.035989 Z M 203.702423 173.125788 " transform="matrix(0.998083,0,0,-0.998083,7.887284,278.403288)"/>
<path style="fill:none;stroke-width:0.3985;stroke-linecap:butt;stroke-linejoin:miter;stroke:rgb(0%,0%,0%);stroke-opacity:1;stroke-miterlimit:10;" d="M 216.711736 186.628234 L 212.602296 188.999968 L 208.488942 186.628234 L 208.488942 181.880852 L 212.602296 179.509118 L 216.711736 181.880852 Z M 216.711736 186.628234 " transform="matrix(0.998083,0,0,-0.998083,7.887284,278.403288)"/>
<path style="fill:none;stroke-width:0.3985;stroke-linecap:butt;stroke-linejoin:miter;stroke:rgb(0%,0%,0%);stroke-opacity:1;stroke-miterlimit:10;" d="M 203.702423 201.473097 L 198.426684 204.517996 L 193.150946 201.473097 L 193.150946 195.383298 L 198.426684 192.334485 L 203.702423 195.383298 Z M 203.702423 201.473097 " transform="matrix(0.998083,0,0,-0.998083,7.887284,278.403288)"/>
<path style="fill:none;stroke-width:0.3985;stroke-linecap:butt;stroke-linejoin:miter;stroke:rgb(0%,0%,0%);stroke-opacity:1;stroke-miterlimit:10;" d="M 216.711736 214.971629 L 212.602296 217.347277 L 208.488942 214.971629 L 208.488942 210.228161 L 212.602296 207.856427 L 216.711736 210.228161 Z M 216.711736 214.971629 " transform="matrix(0.998083,0,0,-0.998083,7.887284,278.403288)"/>
<path style="fill:none;stroke-width:0.3985;stroke-linecap:butt;stroke-linejoin:miter;stroke:rgb(0%,0%,0%);stroke-opacity:1;stroke-miterlimit:10;" d="M 203.702423 229.820406 L 198.426684 232.865306 L 193.150946 229.820406 L 193.150946 223.730607 L 198.426684 220.681794 L 203.702423 223.730607 Z M 203.702423 229.820406 " transform="matrix(0.998083,0,0,-0.998083,7.887284,278.403288)"/>
<path style="fill:none;stroke-width:0.3985;stroke-linecap:butt;stroke-linejoin:miter;stroke:rgb(0%,0%,0%);stroke-opacity:1;stroke-miterlimit:10;" d="M 216.711736 243.318939 L 212.602296 245.694586 L 208.488942 243.318939 L 208.488942 238.575471 L 212.602296 236.203737 L 216.711736 238.575471 Z M 216.711736 243.318939 " transform="matrix(0.998083,0,0,-0.998083,7.887284,278.403288)"/>
<path style="fill:none;stroke-width:0.3985;stroke-linecap:butt;stroke-linejoin:miter;stroke:rgb(0%,0%,0%);stroke-opacity:1;stroke-miterlimit:10;" d="M 203.702423 258.167716 L 198.426684 261.212615 L 193.150946 258.167716 L 193.150946 252.077917 L 198.426684 249.029103 L 203.702423 252.077917 Z M 203.702423 258.167716 " transform="matrix(0.998083,0,0,-0.998083,7.887284,278.403288)"/>
<path style="fill:none;stroke-width:0.3985;stroke-linecap:butt;stroke-linejoin:miter;stroke:rgb(0%,0%,0%);stroke-opacity:1;stroke-miterlimit:10;" d="M 216.711736 271.666248 L 212.602296 274.041896 L 208.488942 271.666248 L 208.488942 266.92278 L 212.602296 264.551046 L 216.711736 266.92278 Z M 216.711736 271.666248 " transform="matrix(0.998083,0,0,-0.998083,7.887284,278.403288)"/>
<g clip-path="url(#clip-1732452203364021-8)" clip-rule="nonzero">
<path style="fill:none;stroke-width:0.3985;stroke-linecap:butt;stroke-linejoin:miter;stroke:rgb(0%,0%,0%);stroke-opacity:1;stroke-miterlimit:10;" d="M 229.595809 1.629068 L 226.773994 3.257189 L 223.952178 1.629068 L 223.952178 -1.627175 L 226.773994 -3.255296 L 229.595809 -1.627175 Z M 229.595809 1.629068 " transform="matrix(0.998083,0,0,-0.998083,7.887284,278.403288)"/>
</g>
<path style="fill:none;stroke-width:0.3985;stroke-linecap:butt;stroke-linejoin:miter;stroke:rgb(0%,0%,0%);stroke-opacity:1;stroke-miterlimit:10;" d="M 242.39378 15.006274 L 240.949605 15.843817 L 239.501517 15.006274 L 239.501517 13.339015 L 240.949605 12.505386 L 242.39378 13.339015 Z M 242.39378 15.006274 " transform="matrix(0.998083,0,0,-0.998083,7.887284,278.403288)"/>
<path style="fill:none;stroke-width:0.3985;stroke-linecap:butt;stroke-linejoin:miter;stroke:rgb(0%,0%,0%);stroke-opacity:1;stroke-miterlimit:10;" d="M 229.595809 29.972463 L 226.773994 31.604498 L 223.952178 29.972463 L 223.952178 26.720135 L 226.773994 25.0881 L 229.595809 26.720135 Z M 229.595809 29.972463 " transform="matrix(0.998083,0,0,-0.998083,7.887284,278.403288)"/>
<path style="fill:none;stroke-width:0.3985;stroke-linecap:butt;stroke-linejoin:miter;stroke:rgb(0%,0%,0%);stroke-opacity:1;stroke-miterlimit:10;" d="M 242.39378 43.353583 L 240.949605 44.191126 L 239.501517 43.353583 L 239.501517 41.686324 L 240.949605 40.848781 L 242.39378 41.686324 Z M 242.39378 43.353583 " transform="matrix(0.998083,0,0,-0.998083,7.887284,278.403288)"/>
<path style="fill:none;stroke-width:0.3985;stroke-linecap:butt;stroke-linejoin:miter;stroke:rgb(0%,0%,0%);stroke-opacity:1;stroke-miterlimit:10;" d="M 229.595809 58.319772 L 226.773994 59.951807 L 223.952178 58.319772 L 223.952178 55.067444 L 226.773994 53.435409 L 229.595809 55.067444 Z M 229.595809 58.319772 " transform="matrix(0.998083,0,0,-0.998083,7.887284,278.403288)"/>
<path style="fill:none;stroke-width:0.3985;stroke-linecap:butt;stroke-linejoin:miter;stroke:rgb(0%,0%,0%);stroke-opacity:1;stroke-miterlimit:10;" d="M 242.39378 71.700892 L 240.949605 72.538435 L 239.501517 71.700892 L 239.501517 70.033633 L 240.949605 69.19609 L 242.39378 70.033633 Z M 242.39378 71.700892 " transform="matrix(0.998083,0,0,-0.998083,7.887284,278.403288)"/>
<path style="fill:none;stroke-width:0.3985;stroke-linecap:butt;stroke-linejoin:miter;stroke:rgb(0%,0%,0%);stroke-opacity:1;stroke-miterlimit:10;" d="M 229.595809 86.667082 L 226.773994 88.299116 L 223.952178 86.667082 L 223.952178 83.414753 L 226.773994 81.782718 L 229.595809 83.414753 Z M 229.595809 86.667082 " transform="matrix(0.998083,0,0,-0.998083,7.887284,278.403288)"/>
<path style="fill:none;stroke-width:0.3985;stroke-linecap:butt;stroke-linejoin:miter;stroke:rgb(0%,0%,0%);stroke-opacity:1;stroke-miterlimit:10;" d="M 242.39378 100.048201 L 240.949605 100.881831 L 239.501517 100.048201 L 239.501517 98.380943 L 240.949605 97.5434 L 242.39378 98.380943 Z M 242.39378 100.048201 " transform="matrix(0.998083,0,0,-0.998083,7.887284,278.403288)"/>
<path style="fill:none;stroke-width:0.3985;stroke-linecap:butt;stroke-linejoin:miter;stroke:rgb(0%,0%,0%);stroke-opacity:1;stroke-miterlimit:10;" d="M 229.595809 115.014391 L 226.773994 116.642512 L 223.952178 115.014391 L 223.952178 111.758149 L 226.773994 110.130028 L 229.595809 111.758149 Z M 229.595809 115.014391 " transform="matrix(0.998083,0,0,-0.998083,7.887284,278.403288)"/>
<path style="fill:none;stroke-width:0.3985;stroke-linecap:butt;stroke-linejoin:miter;stroke:rgb(0%,0%,0%);stroke-opacity:1;stroke-miterlimit:10;" d="M 242.39378 128.395511 L 240.949605 129.22914 L 239.501517 128.395511 L 239.501517 126.728252 L 240.949605 125.890709 L 242.39378 126.728252 Z M 242.39378 128.395511 " transform="matrix(0.998083,0,0,-0.998083,7.887284,278.403288)"/>
<path style="fill:none;stroke-width:0.3985;stroke-linecap:butt;stroke-linejoin:miter;stroke:rgb(0%,0%,0%);stroke-opacity:1;stroke-miterlimit:10;" d="M 229.595809 143.3617 L 226.773994 144.989821 L 223.952178 143.3617 L 223.952178 140.105458 L 226.773994 138.477337 L 229.595809 140.105458 Z M 229.595809 143.3617 " transform="matrix(0.998083,0,0,-0.998083,7.887284,278.403288)"/>
<path style="fill:none;stroke-width:0.3985;stroke-linecap:butt;stroke-linejoin:miter;stroke:rgb(0%,0%,0%);stroke-opacity:1;stroke-miterlimit:10;" d="M 242.39378 156.74282 L 240.949605 157.576449 L 239.501517 156.74282 L 239.501517 155.075561 L 240.949605 154.238018 L 242.39378 155.075561 Z M 242.39378 156.74282 " transform="matrix(0.998083,0,0,-0.998083,7.887284,278.403288)"/>
<path style="fill:none;stroke-width:0.3985;stroke-linecap:butt;stroke-linejoin:miter;stroke:rgb(0%,0%,0%);stroke-opacity:1;stroke-miterlimit:10;" d="M 229.595809 171.709009 L 226.773994 173.33713 L 223.952178 171.709009 L 223.952178 168.452767 L 226.773994 166.824646 L 229.595809 168.452767 Z M 229.595809 171.709009 " transform="matrix(0.998083,0,0,-0.998083,7.887284,278.403288)"/>
<path style="fill:none;stroke-width:0.3985;stroke-linecap:butt;stroke-linejoin:miter;stroke:rgb(0%,0%,0%);stroke-opacity:1;stroke-miterlimit:10;" d="M 242.39378 185.086215 L 240.949605 185.923758 L 239.501517 185.086215 L 239.501517 183.418957 L 240.949605 182.585328 L 242.39378 183.418957 Z M 242.39378 185.086215 " transform="matrix(0.998083,0,0,-0.998083,7.887284,278.403288)"/>
<path style="fill:none;stroke-width:0.3985;stroke-linecap:butt;stroke-linejoin:miter;stroke:rgb(0%,0%,0%);stroke-opacity:1;stroke-miterlimit:10;" d="M 229.595809 200.056319 L 226.773994 201.68444 L 223.952178 200.056319 L 223.952178 196.800077 L 226.773994 195.171956 L 229.595809 196.800077 Z M 229.595809 200.056319 " transform="matrix(0.998083,0,0,-0.998083,7.887284,278.403288)"/>
<path style="fill:none;stroke-width:0.3985;stroke-linecap:butt;stroke-linejoin:miter;stroke:rgb(0%,0%,0%);stroke-opacity:1;stroke-miterlimit:10;" d="M 242.39378 213.433525 L 240.949605 214.271068 L 239.501517 213.433525 L 239.501517 211.766266 L 240.949605 210.932637 L 242.39378 211.766266 Z M 242.39378 213.433525 " transform="matrix(0.998083,0,0,-0.998083,7.887284,278.403288)"/>
<path style="fill:none;stroke-width:0.3985;stroke-linecap:butt;stroke-linejoin:miter;stroke:rgb(0%,0%,0%);stroke-opacity:1;stroke-miterlimit:10;" d="M 229.595809 228.399714 L 226.773994 230.031749 L 223.952178 228.399714 L 223.952178 225.147386 L 226.773994 223.519265 L 229.595809 225.147386 Z M 229.595809 228.399714 " transform="matrix(0.998083,0,0,-0.998083,7.887284,278.403288)"/>
<path style="fill:none;stroke-width:0.3985;stroke-linecap:butt;stroke-linejoin:miter;stroke:rgb(0%,0%,0%);stroke-opacity:1;stroke-miterlimit:10;" d="M 242.39378 241.780834 L 240.949605 242.618377 L 239.501517 241.780834 L 239.501517 240.113575 L 240.949605 239.279946 L 242.39378 240.113575 Z M 242.39378 241.780834 " transform="matrix(0.998083,0,0,-0.998083,7.887284,278.403288)"/>
<path style="fill:none;stroke-width:0.3985;stroke-linecap:butt;stroke-linejoin:miter;stroke:rgb(0%,0%,0%);stroke-opacity:1;stroke-miterlimit:10;" d="M 229.595809 256.747023 L 226.773994 258.379058 L 223.952178 256.747023 L 223.952178 253.494695 L 226.773994 251.86266 L 229.595809 253.494695 Z M 229.595809 256.747023 " transform="matrix(0.998083,0,0,-0.998083,7.887284,278.403288)"/>
<path style="fill:none;stroke-width:0.3985;stroke-linecap:butt;stroke-linejoin:miter;stroke:rgb(0%,0%,0%);stroke-opacity:1;stroke-miterlimit:10;" d="M 242.39378 270.128143 L 240.949605 270.965686 L 239.501517 270.128143 L 239.501517 268.460885 L 240.949605 267.623342 L 242.39378 268.460885 Z M 242.39378 270.128143 " transform="matrix(0.998083,0,0,-0.998083,7.887284,278.403288)"/>
<path style="fill:none;stroke-width:0.3985;stroke-linecap:butt;stroke-linejoin:miter;stroke:rgb(0%,0%,0%);stroke-opacity:1;stroke-miterlimit:10;" d="M 255.939277 0.474511 L 255.121303 0.944161 L 254.303329 0.474511 L 254.303329 -0.472618 L 255.121303 -0.942268 L 255.939277 -0.472618 Z M 255.939277 0.474511 " transform="matrix(0.998083,0,0,-0.998083,7.887284,278.403288)"/>
<g clip-path="url(#clip-1732452203364021-9)" clip-rule="nonzero">
<path style="fill:none;stroke-width:0.3985;stroke-linecap:butt;stroke-linejoin:miter;stroke:rgb(0%,0%,0%);stroke-opacity:1;stroke-miterlimit:10;" d="M 270.114889 14.646208 L 269.293001 15.115859 L 268.475026 14.646208 L 268.475026 13.69908 L 269.293001 13.22943 L 270.114889 13.69908 Z M 270.114889 14.646208 " transform="matrix(0.998083,0,0,-0.998083,7.887284,278.403288)"/>
</g>
<path style="fill:none;stroke-width:0.3985;stroke-linecap:butt;stroke-linejoin:miter;stroke:rgb(0%,0%,0%);stroke-opacity:1;stroke-miterlimit:10;" d="M 255.939277 28.82182 L 255.121303 29.29147 L 254.303329 28.82182 L 254.303329 27.874692 L 255.121303 27.401128 L 255.939277 27.874692 Z M 255.939277 28.82182 " transform="matrix(0.998083,0,0,-0.998083,7.887284,278.403288)"/>
<g clip-path="url(#clip-1732452203364021-10)" clip-rule="nonzero">
<path style="fill:none;stroke-width:0.3985;stroke-linecap:butt;stroke-linejoin:miter;stroke:rgb(0%,0%,0%);stroke-opacity:1;stroke-miterlimit:10;" d="M 270.114889 42.993518 L 269.293001 43.463168 L 268.475026 42.993518 L 268.475026 42.046389 L 269.293001 41.576739 L 270.114889 42.046389 Z M 270.114889 42.993518 " transform="matrix(0.998083,0,0,-0.998083,7.887284,278.403288)"/>
</g>
<path style="fill:none;stroke-width:0.3985;stroke-linecap:butt;stroke-linejoin:miter;stroke:rgb(0%,0%,0%);stroke-opacity:1;stroke-miterlimit:10;" d="M 255.939277 57.165215 L 255.121303 57.638779 L 254.303329 57.165215 L 254.303329 56.222001 L 255.121303 55.748437 L 255.939277 56.222001 Z M 255.939277 57.165215 " transform="matrix(0.998083,0,0,-0.998083,7.887284,278.403288)"/>
<g clip-path="url(#clip-1732452203364021-11)" clip-rule="nonzero">
<path style="fill:none;stroke-width:0.3985;stroke-linecap:butt;stroke-linejoin:miter;stroke:rgb(0%,0%,0%);stroke-opacity:1;stroke-miterlimit:10;" d="M 270.114889 71.340827 L 269.293001 71.810477 L 268.475026 71.340827 L 268.475026 70.393699 L 269.293001 69.924048 L 270.114889 70.393699 Z M 270.114889 71.340827 " transform="matrix(0.998083,0,0,-0.998083,7.887284,278.403288)"/>
</g>
<path style="fill:none;stroke-width:0.3985;stroke-linecap:butt;stroke-linejoin:miter;stroke:rgb(0%,0%,0%);stroke-opacity:1;stroke-miterlimit:10;" d="M 255.939277 85.512525 L 255.121303 85.986089 L 254.303329 85.512525 L 254.303329 84.565396 L 255.121303 84.095746 L 255.939277 84.565396 Z M 255.939277 85.512525 " transform="matrix(0.998083,0,0,-0.998083,7.887284,278.403288)"/>
<g clip-path="url(#clip-1732452203364021-12)" clip-rule="nonzero">
<path style="fill:none;stroke-width:0.3985;stroke-linecap:butt;stroke-linejoin:miter;stroke:rgb(0%,0%,0%);stroke-opacity:1;stroke-miterlimit:10;" d="M 270.114889 99.688136 L 269.293001 100.157786 L 268.475026 99.688136 L 268.475026 98.741008 L 269.293001 98.271358 L 270.114889 98.741008 Z M 270.114889 99.688136 " transform="matrix(0.998083,0,0,-0.998083,7.887284,278.403288)"/>
</g>
<path style="fill:none;stroke-width:0.3985;stroke-linecap:butt;stroke-linejoin:miter;stroke:rgb(0%,0%,0%);stroke-opacity:1;stroke-miterlimit:10;" d="M 255.939277 113.859834 L 255.121303 114.329484 L 254.303329 113.859834 L 254.303329 112.912706 L 255.121303 112.443055 L 255.939277 112.912706 Z M 255.939277 113.859834 " transform="matrix(0.998083,0,0,-0.998083,7.887284,278.403288)"/>
<g clip-path="url(#clip-1732452203364021-13)" clip-rule="nonzero">
<path style="fill:none;stroke-width:0.3985;stroke-linecap:butt;stroke-linejoin:miter;stroke:rgb(0%,0%,0%);stroke-opacity:1;stroke-miterlimit:10;" d="M 270.114889 128.035445 L 269.293001 128.505096 L 268.475026 128.035445 L 268.475026 127.088317 L 269.293001 126.618667 L 270.114889 127.088317 Z M 270.114889 128.035445 " transform="matrix(0.998083,0,0,-0.998083,7.887284,278.403288)"/>
</g>
<path style="fill:none;stroke-width:0.3985;stroke-linecap:butt;stroke-linejoin:miter;stroke:rgb(0%,0%,0%);stroke-opacity:1;stroke-miterlimit:10;" d="M 255.939277 142.207143 L 255.121303 142.676793 L 254.303329 142.207143 L 254.303329 141.260015 L 255.121303 140.790365 L 255.939277 141.260015 Z M 255.939277 142.207143 " transform="matrix(0.998083,0,0,-0.998083,7.887284,278.403288)"/>
<g clip-path="url(#clip-1732452203364021-14)" clip-rule="nonzero">
<path style="fill:none;stroke-width:0.3985;stroke-linecap:butt;stroke-linejoin:miter;stroke:rgb(0%,0%,0%);stroke-opacity:1;stroke-miterlimit:10;" d="M 270.114889 156.378841 L 269.293001 156.852405 L 268.475026 156.378841 L 268.475026 155.435627 L 269.293001 154.962062 L 270.114889 155.435627 Z M 270.114889 156.378841 " transform="matrix(0.998083,0,0,-0.998083,7.887284,278.403288)"/>
</g>
<path style="fill:none;stroke-width:0.3985;stroke-linecap:butt;stroke-linejoin:miter;stroke:rgb(0%,0%,0%);stroke-opacity:1;stroke-miterlimit:10;" d="M 255.939277 170.554452 L 255.121303 171.024103 L 254.303329 170.554452 L 254.303329 169.607324 L 255.121303 169.137674 L 255.939277 169.607324 Z M 255.939277 170.554452 " transform="matrix(0.998083,0,0,-0.998083,7.887284,278.403288)"/>
<g clip-path="url(#clip-1732452203364021-15)" clip-rule="nonzero">
<path style="fill:none;stroke-width:0.3985;stroke-linecap:butt;stroke-linejoin:miter;stroke:rgb(0%,0%,0%);stroke-opacity:1;stroke-miterlimit:10;" d="M 270.114889 184.72615 L 269.293001 185.199714 L 268.475026 184.72615 L 268.475026 183.782936 L 269.293001 183.309372 L 270.114889 183.782936 Z M 270.114889 184.72615 " transform="matrix(0.998083,0,0,-0.998083,7.887284,278.403288)"/>
</g>
<path style="fill:none;stroke-width:0.3985;stroke-linecap:butt;stroke-linejoin:miter;stroke:rgb(0%,0%,0%);stroke-opacity:1;stroke-miterlimit:10;" d="M 255.939277 198.901762 L 255.121303 199.371412 L 254.303329 198.901762 L 254.303329 197.954634 L 255.121303 197.484983 L 255.939277 197.954634 Z M 255.939277 198.901762 " transform="matrix(0.998083,0,0,-0.998083,7.887284,278.403288)"/>
<g clip-path="url(#clip-1732452203364021-16)" clip-rule="nonzero">
<path style="fill:none;stroke-width:0.3985;stroke-linecap:butt;stroke-linejoin:miter;stroke:rgb(0%,0%,0%);stroke-opacity:1;stroke-miterlimit:10;" d="M 270.114889 213.073459 L 269.293001 213.54311 L 268.475026 213.073459 L 268.475026 212.126331 L 269.293001 211.656681 L 270.114889 212.126331 Z M 270.114889 213.073459 " transform="matrix(0.998083,0,0,-0.998083,7.887284,278.403288)"/>
</g>
<path style="fill:none;stroke-width:0.3985;stroke-linecap:butt;stroke-linejoin:miter;stroke:rgb(0%,0%,0%);stroke-opacity:1;stroke-miterlimit:10;" d="M 255.939277 227.249071 L 255.121303 227.718721 L 254.303329 227.249071 L 254.303329 226.301943 L 255.121303 225.832292 L 255.939277 226.301943 Z M 255.939277 227.249071 " transform="matrix(0.998083,0,0,-0.998083,7.887284,278.403288)"/>
<g clip-path="url(#clip-1732452203364021-17)" clip-rule="nonzero">
<path style="fill:none;stroke-width:0.3985;stroke-linecap:butt;stroke-linejoin:miter;stroke:rgb(0%,0%,0%);stroke-opacity:1;stroke-miterlimit:10;" d="M 270.114889 241.420769 L 269.293001 241.890419 L 268.475026 241.420769 L 268.475026 240.473641 L 269.293001 240.00399 L 270.114889 240.473641 Z M 270.114889 241.420769 " transform="matrix(0.998083,0,0,-0.998083,7.887284,278.403288)"/>
</g>
<path style="fill:none;stroke-width:0.3985;stroke-linecap:butt;stroke-linejoin:miter;stroke:rgb(0%,0%,0%);stroke-opacity:1;stroke-miterlimit:10;" d="M 255.939277 255.59638 L 255.121303 256.06603 L 254.303329 255.59638 L 254.303329 254.649252 L 255.121303 254.175688 L 255.939277 254.649252 Z M 255.939277 255.59638 " transform="matrix(0.998083,0,0,-0.998083,7.887284,278.403288)"/>
<g clip-path="url(#clip-1732452203364021-18)" clip-rule="nonzero">
<path style="fill:none;stroke-width:0.3985;stroke-linecap:butt;stroke-linejoin:miter;stroke:rgb(0%,0%,0%);stroke-opacity:1;stroke-miterlimit:10;" d="M 270.114889 269.768078 L 269.293001 270.237728 L 268.475026 269.768078 L 268.475026 268.82095 L 269.293001 268.3513 L 270.114889 268.82095 Z M 270.114889 269.768078 " transform="matrix(0.998083,0,0,-0.998083,7.887284,278.403288)"/>
</g>
</g>
</svg>
