<svg width="167" height="165" xmlns="http://www.w3.org/2000/svg" xmlns:xlink="http://www.w3.org/1999/xlink" xml:space="preserve" overflow="hidden"><defs><clipPath id="clip0"><rect x="888" y="-26" width="167" height="165"/></clipPath></defs><g clip-path="url(#clip0)" transform="translate(-888 26)"><path d="M75.593-0.00133337C75.593 41.7497 41.7485 75.5943-0.00254173 75.5943-41.7483 75.5943-75.5929 41.7497-75.5929-0.00133337-75.5929-41.7471-41.7483-75.5917-0.00254173-75.5917 41.7485-75.5917 75.593-41.7471 75.593-0.00133337Z" stroke="#000000" stroke-width="0.531346" stroke-miterlimit="10" fill="none" transform="matrix(1.00019 0 0 -1 970.626 56.5007)"/><path d="M84.0125 82.502C84.0125 81.6634 83.3354 80.9863 82.4968 80.9863 81.6634 80.9863 80.9863 81.6634 80.9863 82.502 80.9863 83.3354 81.6634 84.0125 82.4968 84.0125 83.3354 84.0125 84.0125 83.3354 84.0125 82.502Z" transform="matrix(1.00019 0 0 1 888.111 -26)"/><path d="M-0.00254173-0.00133337 68.4002 18.3272" stroke="#000000" stroke-width="0.531346" stroke-miterlimit="10" fill="none" transform="matrix(1.00019 0 0 -1 970.626 56.5007)"/><path d="M155.519 62.9338C154.082 63.0432 151.65 62.8713 149.868 62.3869L150.899 66.236C152.202 64.9234 154.217 63.5588 155.519 62.9338" transform="matrix(1.00019 0 0 1 888.111 -26)"/><path d="M4.02093-4.20844 6.29182-4.20844C8.16686-4.20844 10.0211-5.58347 10.0211-7.06267 10.0211-8.10436 9.14606-9.08355 7.39601-9.08355L3.10424-9.08355C2.85424-9.08355 2.7084-9.08355 2.7084-8.83355 2.7084-8.66688 2.81257-8.66688 3.08341-8.66688 3.25008-8.66688 3.50008-8.64604 3.64592-8.64604 3.87509-8.60438 3.9376-8.58354 3.9376-8.41687 3.9376-8.3752 3.9376-8.33354 3.89593-8.16686L2.10422-1.04169C1.97921-0.520846 1.95838-0.416677 0.895855-0.416677 0.687517-0.416677 0.54168-0.416677 0.54168-0.166671 0.54168 0 0.687517 0 0.729184 0 1.10419 0 2.04172-0.0416677 2.41673-0.0416677 2.7084-0.0416677 3.00007-0.0208338 3.27091-0.0208338 3.56259-0.0208338 3.85426 0 4.1251 0 4.22927 0 4.39594 0 4.39594-0.27084 4.39594-0.416677 4.27094-0.416677 4.02093-0.416677 3.54175-0.416677 3.16674-0.416677 3.16674-0.645849 3.16674-0.729184 3.18758-0.791686 3.20841-0.875021ZM4.97929-8.16686C5.10429-8.62521 5.12512-8.66688 5.70847-8.66688L6.97934-8.66688C8.08353-8.66688 8.79188-8.3127 8.79188-7.39601 8.79188-6.87517 8.52104-5.72931 8.00019-5.25013 7.33351-4.64595 6.54183-4.54178 5.95848-4.54178L4.08343-4.54178Z" transform="matrix(1.00019 0 0 1 965.44 70.2703)"/><path d="M1.16669-0.791686C1.12503-0.583347 1.04169-0.27084 1.04169-0.208338 1.04169 0.0208338 1.2292 0.145837 1.43753 0.145837 1.60421 0.145837 1.83338 0.0416677 1.93755-0.229172 1.95838-0.27084 2.39589-2.08338 2.45839-2.33339 2.56256-2.7709 2.81257-3.68759 2.87507-4.0626 2.93757-4.22927 3.31258-4.85428 3.62509-5.14596 3.72926-5.22929 4.1251-5.58347 4.68761-5.58347 5.04179-5.58347 5.22929-5.4168 5.25013-5.4168 4.85428-5.3543 4.56261-5.04179 4.56261-4.68761 4.56261-4.47928 4.70845-4.22927 5.06262-4.22927 5.4168-4.22927 5.79181-4.54178 5.79181-5.02096 5.79181-5.4793 5.37513-5.87514 4.68761-5.87514 3.83343-5.87514 3.25008-5.22929 3.00007-4.85428 2.87507-5.45847 2.39589-5.87514 1.77088-5.87514 1.16669-5.87514 0.916689-5.3543 0.791686-5.12512 0.562514-4.66678 0.395843-3.87509 0.395843-3.83343 0.395843-3.68759 0.520846-3.68759 0.54168-3.68759 0.687517-3.68759 0.687517-3.70842 0.770852-4.0001 1.00002-4.93762 1.27086-5.58347 1.75004-5.58347 1.95838-5.58347 2.14589-5.4793 2.14589-4.97929 2.14589-4.68761 2.10422-4.54178 1.93755-3.85426Z" transform="matrix(1.00019 0 0 1 1003.96 42.0243)"/><path d="M-53.6705-53.6693-53.6705 53.6718 53.6706 53.6718 53.6706-53.6693Z" stroke="#000000" stroke-width="0.531346" stroke-miterlimit="10" fill="none" transform="matrix(1.00019 0 0 -1 970.626 56.5007)"/><path d="M310.789 82.502C310.789 81.6634 310.117 80.9863 309.278 80.9863 308.445 80.9863 307.768 81.6634 307.768 82.502 307.768 83.3354 308.445 84.0125 309.278 84.0125 310.117 84.0125 310.789 83.3354 310.789 82.502Z" transform="matrix(1.00019 0 0 1 888.111 -26)"/><path d="M226.779-0.00133337 295.176 18.3272" stroke="#000000" stroke-width="0.531346" stroke-miterlimit="10" fill="none" transform="matrix(1.00019 0 0 -1 970.626 56.5007)"/><path d="M382.296 62.9338C380.858 63.0432 378.431 62.8713 376.65 62.3869L377.681 66.236C378.978 64.9234 380.999 63.5588 382.296 62.9338" transform="matrix(1.00019 0 0 1 888.111 -26)"/><path d="M4.02093-4.20844 6.29182-4.20844C8.16686-4.20844 10.0211-5.58347 10.0211-7.06267 10.0211-8.10436 9.14606-9.08355 7.39601-9.08355L3.10424-9.08355C2.85424-9.08355 2.7084-9.08355 2.7084-8.83355 2.7084-8.66688 2.81257-8.66688 3.08341-8.66688 3.25008-8.66688 3.50008-8.64604 3.64592-8.64604 3.87509-8.60438 3.9376-8.58354 3.9376-8.41687 3.9376-8.3752 3.9376-8.33354 3.89593-8.16686L2.10422-1.04169C1.97921-0.520846 1.95838-0.416677 0.895855-0.416677 0.687517-0.416677 0.54168-0.416677 0.54168-0.166671 0.54168 0 0.687517 0 0.729184 0 1.10419 0 2.04172-0.0416677 2.41673-0.0416677 2.7084-0.0416677 3.00007-0.0208338 3.27091-0.0208338 3.56259-0.0208338 3.85426 0 4.1251 0 4.22927 0 4.39594 0 4.39594-0.27084 4.39594-0.416677 4.27094-0.416677 4.02093-0.416677 3.54175-0.416677 3.16674-0.416677 3.16674-0.645849 3.16674-0.729184 3.18758-0.791686 3.20841-0.875021ZM4.97929-8.16686C5.10429-8.62521 5.12512-8.66688 5.70847-8.66688L6.97934-8.66688C8.08353-8.66688 8.79188-8.3127 8.79188-7.39601 8.79188-6.87517 8.52104-5.72931 8.00019-5.25013 7.33351-4.64595 6.54183-4.54178 5.95848-4.54178L4.08343-4.54178Z" transform="matrix(1.00019 0 0 1 1192.26 70.2703)"/><path d="M1.16669-0.791686C1.12503-0.583347 1.04169-0.27084 1.04169-0.208338 1.04169 0.0208338 1.2292 0.145837 1.43753 0.145837 1.60421 0.145837 1.83338 0.0416677 1.93755-0.229172 1.95838-0.27084 2.39589-2.08338 2.45839-2.33339 2.56256-2.7709 2.81257-3.68759 2.87507-4.0626 2.93757-4.22927 3.31258-4.85428 3.62509-5.14596 3.72926-5.22929 4.1251-5.58347 4.68761-5.58347 5.04179-5.58347 5.22929-5.4168 5.25013-5.4168 4.85428-5.3543 4.56261-5.04179 4.56261-4.68761 4.56261-4.47928 4.70845-4.22927 5.06262-4.22927 5.4168-4.22927 5.79181-4.54178 5.79181-5.02096 5.79181-5.4793 5.37513-5.87514 4.68761-5.87514 3.83343-5.87514 3.25008-5.22929 3.00007-4.85428 2.87507-5.45847 2.39589-5.87514 1.77088-5.87514 1.16669-5.87514 0.916689-5.3543 0.791686-5.12512 0.562514-4.66678 0.395843-3.87509 0.395843-3.83343 0.395843-3.68759 0.520846-3.68759 0.54168-3.68759 0.687517-3.68759 0.687517-3.70842 0.770852-4.0001 1.00002-4.93762 1.27086-5.58347 1.75004-5.58347 1.95838-5.58347 2.14589-5.4793 2.14589-4.97929 2.14589-4.68761 2.10422-4.54178 1.93755-3.85426Z" transform="matrix(1.00019 0 0 1 1230.78 42.0243)"/><path d="M151.189-75.5917 151.189 75.5943 302.375 75.5943 302.375-75.5917Z" stroke="#000000" stroke-width="0.531346" stroke-miterlimit="10" fill="none" transform="matrix(1.00019 0 0 -1 970.626 56.5007)"/></g></svg>